<svg id="Lager_2" data-name="Lager 2" xmlns="http://www.w3.org/2000/svg" viewBox="0 0 1339.04 805"><defs><style>.cls-1{fill:#fff;}.cls-2{fill:none;stroke:#000;stroke-miterlimit:10;}</style></defs><title>logotyp</title><polyline class="cls-1" points="93.69 26.03 254.12 26.03 1339.04 26.03"/><circle cx="134.67" cy="51.75" r="18.31"/><circle cx="243.67" cy="51.75" r="18.31"/><path d="M416,114.56,367.12,217.47h104" transform="translate(-281.5 -44.5)"/><path d="M528.43,218l48.65-103-104,.18" transform="translate(-281.5 -44.5)"/><rect x="116.36" y="172.97" width="14.07" height="49.07"/><rect x="138.92" y="172.97" width="14.07" height="49.07"/><circle cx="348.22" cy="55.31" r="18.31"/><path d="M629.5,118.12,580.66,221h104" transform="translate(-281.5 -44.5)"/><rect x="329.91" y="176.53" width="14.07" height="49.07"/><rect x="352.47" y="176.53" width="14.07" height="49.07"/><circle cx="457.72" cy="55.31" r="18.31"/><path d="M739,118.12,690.16,221h104" transform="translate(-281.5 -44.5)"/><rect x="439.41" y="176.53" width="14.07" height="49.07"/><rect x="461.97" y="176.53" width="14.07" height="49.07"/><rect x="227.86" y="172.97" width="14.07" height="49.07"/><rect x="250.42" y="172.97" width="14.07" height="49.07"/><circle cx="564.75" cy="55.31" r="18.31"/><path d="M849.51,221.52l48.65-103-104,.18" transform="translate(-281.5 -44.5)"/><rect x="548.94" y="176.53" width="14.07" height="49.07"/><rect x="571.5" y="176.53" width="14.07" height="49.07"/><circle cx="680.5" cy="55.31" r="18.31"/><path d="M965.25,221.52l48.66-103-104,.18" transform="translate(-281.5 -44.5)"/><rect x="664.68" y="176.53" width="14.07" height="49.07"/><rect x="687.24" y="176.53" width="14.07" height="49.07"/><circle cx="130.66" cy="283.75" r="18.31"/><circle cx="239.66" cy="283.75" r="18.31"/><path d="M411.94,346.56,363.1,449.47h104" transform="translate(-281.5 -44.5)"/><path d="M524.41,450l48.66-103-104,.18" transform="translate(-281.5 -44.5)"/><rect x="112.34" y="404.97" width="14.07" height="49.07"/><rect x="134.9" y="404.97" width="14.07" height="49.07"/><circle cx="344.2" cy="287.31" r="18.31"/><path d="M625.48,350.12,576.65,453h104" transform="translate(-281.5 -44.5)"/><rect x="325.89" y="408.53" width="14.07" height="49.07"/><rect x="348.45" y="408.53" width="14.07" height="49.07"/><circle cx="453.7" cy="287.31" r="18.31"/><path d="M735,350.12,686.15,453h104" transform="translate(-281.5 -44.5)"/><rect x="435.39" y="408.53" width="14.07" height="49.07"/><rect x="457.95" y="408.53" width="14.07" height="49.07"/><rect x="223.84" y="404.97" width="14.07" height="49.07"/><rect x="246.4" y="404.97" width="14.07" height="49.07"/><circle cx="560.74" cy="287.31" r="18.31"/><path d="M845.49,453.52l48.66-103-104,.18" transform="translate(-281.5 -44.5)"/><rect x="544.92" y="408.53" width="14.07" height="49.07"/><rect x="567.48" y="408.53" width="14.07" height="49.07"/><circle cx="676.48" cy="287.31" r="18.31"/><path d="M961.23,453.52l48.66-103-104,.18" transform="translate(-281.5 -44.5)"/><rect x="660.67" y="408.53" width="14.07" height="49.07"/><rect x="683.22" y="408.53" width="14.07" height="49.07"/><polyline class="cls-1" points="92.17 501.03 252.6 501.03 1337.52 501.03"/><ellipse cx="148.75" cy="516.57" rx="14.4" ry="9.92"/><ellipse cx="234.47" cy="516.57" rx="14.4" ry="9.92"/><path d="M430.08,571l-38.4,55.74h81.78" transform="translate(-281.5 -44.5)"/><path d="M518.53,627l38.26-55.78-81.78.1" transform="translate(-281.5 -44.5)"/><rect x="134.35" y="582.23" width="11.06" height="26.58"/><rect x="152.09" y="582.23" width="11.06" height="26.58"/><ellipse cx="316.68" cy="518.5" rx="14.4" ry="9.92"/><path d="M598,572.92,559.6,628.65h81.78" transform="translate(-281.5 -44.5)"/><rect x="302.28" y="584.15" width="11.06" height="26.58"/><rect x="320.02" y="584.15" width="11.06" height="26.58"/><ellipse cx="402.79" cy="518.5" rx="14.4" ry="9.92"/><path d="M684.11,572.92l-38.4,55.73h81.78" transform="translate(-281.5 -44.5)"/><rect x="388.38" y="584.15" width="11.06" height="26.58"/><rect x="406.12" y="584.15" width="11.06" height="26.58"/><rect x="222.03" y="582.23" width="11.06" height="26.58"/><rect x="239.77" y="582.23" width="11.06" height="26.58"/><ellipse cx="486.95" cy="518.5" rx="14.4" ry="9.92"/><path d="M771,628.92l38.26-55.78-81.78.1" transform="translate(-281.5 -44.5)"/><rect x="474.52" y="584.15" width="11.06" height="26.58"/><rect x="492.26" y="584.15" width="11.06" height="26.58"/><ellipse cx="577.97" cy="518.5" rx="14.4" ry="9.92"/><path d="M862,628.92l38.26-55.78-81.78.1" transform="translate(-281.5 -44.5)"/><rect x="565.53" y="584.15" width="11.06" height="26.58"/><rect x="583.27" y="584.15" width="11.06" height="26.58"/><circle cx="148.81" cy="642.01" r="11.36"/><path d="M432.33,762l30.17-63.86-64.49.11" transform="translate(-281.5 -44.5)"/><rect x="139" y="717.17" width="8.72" height="30.43"/><rect x="152.99" y="717.17" width="8.72" height="30.43"/><circle cx="232.9" cy="642.01" r="11.36"/><path d="M516.42,762l30.17-63.86-64.49.11" transform="translate(-281.5 -44.5)"/><rect x="223.09" y="717.17" width="8.72" height="30.43"/><rect x="237.08" y="717.17" width="8.72" height="30.43"/><circle cx="310.4" cy="642.01" r="11.36"/><path d="M593.92,762l30.17-63.86-64.49.11" transform="translate(-281.5 -44.5)"/><rect x="300.6" y="717.17" width="8.72" height="30.43"/><rect x="314.58" y="717.17" width="8.72" height="30.43"/><circle cx="396.78" cy="646.01" r="11.36"/><path d="M680.3,766l30.17-63.86-64.49.11" transform="translate(-281.5 -44.5)"/><rect x="386.98" y="721.17" width="8.72" height="30.43"/><rect x="400.96" y="721.17" width="8.72" height="30.43"/><ellipse cx="478.13" cy="647.45" rx="11.92" ry="11.2"/><path d="M759.49,703.15l-31.8,62.94H795.4" transform="translate(-281.5 -44.5)"/><rect x="466.21" y="721.59" width="9.16" height="30.01"/><rect x="480.9" y="721.59" width="9.16" height="30.01"/><ellipse cx="561.65" cy="647.45" rx="11.92" ry="11.2"/><path d="M843,703.15l-31.8,62.94h67.71" transform="translate(-281.5 -44.5)"/><rect x="549.73" y="721.59" width="9.16" height="30.01"/><rect x="564.42" y="721.59" width="9.16" height="30.01"/><ellipse cx="653.58" cy="643.64" rx="11.92" ry="11.2"/><path d="M934.94,699.34l-31.79,62.94h67.7" transform="translate(-281.5 -44.5)"/><rect x="641.66" y="717.78" width="9.16" height="30.01"/><rect x="656.35" y="717.78" width="9.16" height="30.01"/><ellipse cx="658.61" cy="522.24" rx="14.4" ry="9.92"/><path d="M939.94,576.66l-38.4,55.74h81.78" transform="translate(-281.5 -44.5)"/><rect x="644.21" y="587.9" width="11.06" height="26.58"/><rect x="661.95" y="587.9" width="11.06" height="26.58"/><rect class="cls-2" x="0.5" y="0.5" width="795" height="804" rx="12" ry="12"/></svg>