<svg id="Lager_2" data-name="Lager 2" xmlns="http://www.w3.org/2000/svg" viewBox="0 0 1324.04 768"><defs><style>.cls-1{fill:#fff;}.cls-2{fill:none;stroke:#000;stroke-miterlimit:10;}</style></defs><title>logo</title><polyline class="cls-1" points="78.69 44.03 239.12 44.03 1324.04 44.03"/><circle cx="119.67" cy="69.75" r="18.31"/><circle cx="228.67" cy="69.75" r="18.31"/><path d="M416,114.56,367.12,217.47h104" transform="translate(-296.5 -26.5)"/><path d="M528.43,218l48.65-103-104,.18" transform="translate(-296.5 -26.5)"/><rect x="101.36" y="190.97" width="14.07" height="49.07"/><rect x="123.92" y="190.97" width="14.07" height="49.07"/><circle cx="333.22" cy="73.31" r="18.31"/><path d="M629.5,118.12,580.66,221h104" transform="translate(-296.5 -26.5)"/><rect x="314.91" y="194.53" width="14.07" height="49.07"/><rect x="337.47" y="194.53" width="14.07" height="49.07"/><circle cx="442.72" cy="73.31" r="18.31"/><path d="M739,118.12,690.16,221h104" transform="translate(-296.5 -26.5)"/><rect x="424.41" y="194.53" width="14.07" height="49.07"/><rect x="446.97" y="194.53" width="14.07" height="49.07"/><rect x="212.86" y="190.97" width="14.07" height="49.07"/><rect x="235.42" y="190.97" width="14.07" height="49.07"/><circle cx="549.75" cy="73.31" r="18.31"/><path d="M849.51,221.52l48.65-103-104,.18" transform="translate(-296.5 -26.5)"/><rect x="533.94" y="194.53" width="14.07" height="49.07"/><rect x="556.5" y="194.53" width="14.07" height="49.07"/><circle cx="665.5" cy="73.31" r="18.31"/><path d="M965.25,221.52l48.66-103-104,.18" transform="translate(-296.5 -26.5)"/><rect x="649.68" y="194.53" width="14.07" height="49.07"/><rect x="672.24" y="194.53" width="14.07" height="49.07"/><polyline class="cls-1" points="74.67 276.03 235.1 276.03 1320.02 276.03"/><circle cx="115.66" cy="301.75" r="18.31"/><circle cx="224.66" cy="301.75" r="18.31"/><path d="M411.94,346.56,363.1,449.47h104" transform="translate(-296.5 -26.5)"/><path d="M524.41,450l48.66-103-104,.18" transform="translate(-296.5 -26.5)"/><rect x="97.34" y="422.97" width="14.07" height="49.07"/><rect x="119.9" y="422.97" width="14.07" height="49.07"/><circle cx="329.2" cy="305.31" r="18.31"/><path d="M625.48,350.12,576.65,453h104" transform="translate(-296.5 -26.5)"/><rect x="310.89" y="426.53" width="14.07" height="49.07"/><rect x="333.45" y="426.53" width="14.07" height="49.07"/><circle cx="438.7" cy="305.31" r="18.31"/><path d="M735,350.12,686.15,453h104" transform="translate(-296.5 -26.5)"/><rect x="420.39" y="426.53" width="14.07" height="49.07"/><rect x="442.95" y="426.53" width="14.07" height="49.07"/><rect x="208.84" y="422.97" width="14.07" height="49.07"/><rect x="231.4" y="422.97" width="14.07" height="49.07"/><circle cx="545.74" cy="305.31" r="18.31"/><path d="M845.49,453.52l48.66-103-104,.18" transform="translate(-296.5 -26.5)"/><rect x="529.92" y="426.53" width="14.07" height="49.07"/><rect x="552.48" y="426.53" width="14.07" height="49.07"/><circle cx="661.48" cy="305.31" r="18.31"/><path d="M961.23,453.52l48.66-103-104,.18" transform="translate(-296.5 -26.5)"/><rect x="645.67" y="426.53" width="14.07" height="49.07"/><rect x="668.22" y="426.53" width="14.07" height="49.07"/><polyline class="cls-1" points="77.17 519.03 237.6 519.03 1322.52 519.03"/><circle cx="118.16" cy="544.75" r="18.31"/><circle cx="227.16" cy="544.75" r="18.31"/><path d="M414.44,589.56,365.6,692.47h104" transform="translate(-296.5 -26.5)"/><path d="M526.91,693l48.66-103-104,.18" transform="translate(-296.5 -26.5)"/><rect x="99.84" y="665.97" width="14.07" height="49.07"/><rect x="122.4" y="665.97" width="14.07" height="49.07"/><circle cx="331.7" cy="548.31" r="18.31"/><path d="M628,593.12,579.15,696h104" transform="translate(-296.5 -26.5)"/><rect x="313.39" y="669.53" width="14.07" height="49.07"/><rect x="335.95" y="669.53" width="14.07" height="49.07"/><circle cx="441.2" cy="548.31" r="18.31"/><path d="M737.48,593.12,688.65,696h104" transform="translate(-296.5 -26.5)"/><rect x="422.89" y="669.53" width="14.07" height="49.07"/><rect x="445.45" y="669.53" width="14.07" height="49.07"/><rect x="211.34" y="665.97" width="14.07" height="49.07"/><rect x="233.9" y="665.97" width="14.07" height="49.07"/><circle cx="548.24" cy="548.31" r="18.31"/><path d="M848,696.52l48.66-103-104,.18" transform="translate(-296.5 -26.5)"/><rect x="532.42" y="669.53" width="14.07" height="49.07"/><rect x="554.98" y="669.53" width="14.07" height="49.07"/><circle cx="663.98" cy="548.31" r="18.31"/><path d="M963.73,696.52l48.66-103-104,.18" transform="translate(-296.5 -26.5)"/><rect x="648.17" y="669.53" width="14.07" height="49.07"/><rect x="670.72" y="669.53" width="14.07" height="49.07"/><rect class="cls-2" x="0.5" y="0.5" width="767" height="767" rx="12" ry="12"/></svg>