<svg xmlns="http://www.w3.org/2000/svg" viewBox="0 0 478.33 318.34"><defs><style>.cls-1{fill:none;stroke:#000;stroke-miterlimit:10;}</style></defs><title>men</title><g id="FATHERS"><path class="cls-1" d="M712,775c0,1.55.15,2.69-1.74,2.67a25.32,25.32,0,0,1-4.92-.75,17.31,17.31,0,0,0-2.88-.24,21.41,21.41,0,0,0-3.13-.36,26.35,26.35,0,0,0-3.64.51,33.32,33.32,0,0,0-3.33,1.11c-.15,0-1.73.75-2,.49a1.67,1.67,0,0,1,1.67.2,5.71,5.71,0,0,1,1,1.2,6.6,6.6,0,0,0,1.22,1.08c2.3,1.71,3.83,4.05,6.91,4.35a4.7,4.7,0,0,0,1.75-.15,7.11,7.11,0,0,0,2.9-1.73,12.91,12.91,0,0,0,2.58-3.38c-1.67,1.91-1.5,6.27-2,8.65a13.73,13.73,0,0,1-.09,1.7c-.11.35-.4.64-.53,1a6.12,6.12,0,0,1-.82,1.66c-.86,1.26-.92,2.58-1.24,4a6.88,6.88,0,0,1-.68,1.39,18.11,18.11,0,0,1-.72,1.87c-.35.51-.9.72-1.35,1.12a8.37,8.37,0,0,1-2.42,1.79,20.88,20.88,0,0,1-2.75,1c-1.33.4-2.65,1-4,1.3a18.43,18.43,0,0,1-6.57.5c-1.53-.2-3-.68-4.53-1s-3.1-.57-4.63-1a10.23,10.23,0,0,1-3.59-1.66c-2.05-1.56-6-5.56-9.13-3.61-2.15,1.34-2.62,4.46-2.67,6.76-.07,4,2.12,7,3.67,10.5" transform="translate(-518.83 -653.17)"/><path class="cls-1" d="M663.67,796.33c-.33-.09-.43-.26-.68-.48a35.09,35.09,0,0,1-2.77-3.4c-1.33-1.52-2.79-2.82-4-4.42-.79-1-1.7-1.94-2.56-2.89a22.69,22.69,0,0,1-3-4,16.11,16.11,0,0,1-1.16-2.66,7.68,7.68,0,0,1-.79-3.09l.3-.09" transform="translate(-518.83 -653.17)"/><path class="cls-1" d="M709.33,767a6,6,0,0,0,.75,3.32,6.52,6.52,0,0,0,3,2.68c2.56,1.41,5.56,0,8.23,1,.53.19.93.41,1.53.57s1.49.88,2.12.81,1.43-1.63,1.68-2.2a8.78,8.78,0,0,0,.4-4c-.21-3.87-2.35-7.27-2.35-11.11a8.72,8.72,0,0,1,.16-2.11c.16-.67,0-1.33.15-2,.4-2,2.19-3.5,3.37-5.1a11.93,11.93,0,0,1,2-2.48c.39-.32.89-.53,1.27-.87a12.88,12.88,0,0,0,1.51-2.21,14,14,0,0,0,1.11-1.36,4.94,4.94,0,0,0,.12-.65,6.92,6.92,0,0,0,.26-2.54c0-3.06-.4-6.1-.34-9.18,0-1.05.22-2.06.33-3.12.27-2.42.43-4.87.87-7.28.71-3.91,1.76-8,1.31-12a20.52,20.52,0,0,0-.69-2.94c-.12-.49-.09-1-.22-1.49a20.23,20.23,0,0,0-.94-2.07c-.61-1.6-1.06-3.27-1.72-4.85-.39-.93-1-1.71-1.45-2.59a38.72,38.72,0,0,1-1.52-3.78c-.71-1.75-1.79-3.38-2.46-5.13a18.24,18.24,0,0,0-1.46-2.35,11.23,11.23,0,0,0-2.13-2.63,6.71,6.71,0,0,1-.66-1c-.28-.39-.82-.58-.92-1.08" transform="translate(-518.83 -653.17)"/><path class="cls-1" d="M724.33,749.33a31.91,31.91,0,0,0-7.24-.67,12.73,12.73,0,0,0-4,.36c2.26-.07,4.52,0,6.78,0a25.08,25.08,0,0,1,2.5.34,6.61,6.61,0,0,1,1.53.19,5.38,5.38,0,0,0,1.74.48c-2.44-.1-4.9.21-7.28-.27a8,8,0,0,0-1.83-.06,4,4,0,0,1-1.24-.27c-.39-.09-.79,0-1.17,0-.64-.13-1.24-.51-1.88-.71-.85-.25-1.55-.18-2.37-.35-.37-.07-.64-.27-1-.31a11.47,11.47,0,0,0-1.31,0c-1.9,0-3.61.31-5.49.33" transform="translate(-518.83 -653.17)"/><path class="cls-1" d="M715.67,754.33c-2.84,0-5.68,0-8.52,0a18.86,18.86,0,0,0-3.3.64,8.72,8.72,0,0,1-2.87-.3c-.72-.12-2-.15-2.54-.62a10.63,10.63,0,0,1,2.77.54c.5.09,1,.27,1.5.34a24.36,24.36,0,0,0,3.07.42c1.53,0,3.28-.35,4.68.29.53.24,3.81,2.06,3.65.38-.13-1.32-2.4-2.3-3.34-1.29a3.31,3.31,0,0,0,.83.84A1.61,1.61,0,0,0,712,754a2,2,0,0,0-1.2,0,5,5,0,0,0,2.19,1c0-.73-1.16-.63-1.64-.66" transform="translate(-518.83 -653.17)"/><path class="cls-1" d="M661.33,730.33c-1-2-1.39-4.12-2.32-6.11a3.41,3.41,0,0,0-.88-1.29,16.55,16.55,0,0,0-2.56-1.54,6.36,6.36,0,0,0-2.45-.73,10.26,10.26,0,0,0-4.49.46,16,16,0,0,0-3,1.29c-1,.67-2.59,1.28-3.31,2.28-.1.13,0,.48-.06.62a11.26,11.26,0,0,1-.85,1,20.51,20.51,0,0,0-2.29,3.7c-.36.74-1,1.29-1.3,2a7.16,7.16,0,0,0-.2,3c0,1.56,1,3,1.69,4.32a24.77,24.77,0,0,0,2.76,4.44,10.4,10.4,0,0,1,1.89,2.47,29.23,29.23,0,0,0,1.64,3.32,10.16,10.16,0,0,0,4.26,3.45c1.16.57,3.2,1.7,4.48,1.1s1.73-2.16.5-3c-.54-.39-1.45-.44-1.87-.81a4.18,4.18,0,0,1-.53-1.29,17.28,17.28,0,0,1-.94-3.07,11.44,11.44,0,0,1,.14-2.26c.06-1.2-.18-1.45-1.36-1.91s-2.6-.68-3.87-1.09a1.93,1.93,0,0,1-1.11-.75,11,11,0,0,1-.7-4.36,6.56,6.56,0,0,1,1.28-3.84,8,8,0,0,1,4.61-2.81c1.21-.32,3.44-.57,4.36.35a4.12,4.12,0,0,1,1.12,3.3c-.18,1.2-1.14,1.7-1.86,2.53-.48.55-.24,1.24-.61,1.68-.9,1.06-2.44-.17-3.37,0-1.22.25.22,2,.62,2.42a7.17,7.17,0,0,0,2.23,1.56,6.75,6.75,0,0,1,1.86,1c.5.65,0,1.41-.51,1.83s-1.43,1.35-2,1.16" transform="translate(-518.83 -653.17)"/><path class="cls-1" d="M639.33,678.33a33.09,33.09,0,0,0-4.4,7.67c-1,2.56-1.27,5.23-1.93,7.87-.36,1.45-1,2.79-1.24,4.26a35.66,35.66,0,0,1-2,6.62,28.34,28.34,0,0,0-.89,3.52,26.12,26.12,0,0,1-1,2.85c-.57,1.58-1.17,3.16-1.81,4.72a70.88,70.88,0,0,0-2.51,7.45c-.59,2.07-1,4.17-1.67,6.21-.62,1.8-.76,3.72-1.47,5.49-.82,2-1.91,4-2.71,6a36.91,36.91,0,0,1-2.12,4.88c-1.46,2.57-3.06,5.09-4.61,7.61s-3.45,4.84-4.91,7.39c-1.27,2.22-2.23,4.62-3.62,6.77-.48.75-1,1.43-1.52,2.18s-1.61,2-1.52,2.78c2.07,1.13,3.87,2.52,6,3.47,3.34,1.45,6.91,2.58,10.13,4.26,2.56,1.34,4.46,4.12,6.54,6.08a78.29,78.29,0,0,1,8.9,9.75c2.89,3.8,5.74,7.63,9.37,10.77a19.49,19.49,0,0,0,2.61,2,12.39,12.39,0,0,0,1.59,1,11.4,11.4,0,0,0,2.8,0,9.1,9.1,0,0,1,3.41.32,16,16,0,0,1,3.94,2c.64.46,1.27.93,1.9,1.4a11.22,11.22,0,0,0,2.74,1.92" transform="translate(-518.83 -653.17)"/><path class="cls-1" d="M604,760a8.53,8.53,0,0,0-6.94,3,7.74,7.74,0,0,0-1.83,2.2,8.59,8.59,0,0,0-.58,3.48c0,1.37.42,4.89,2.35,5" transform="translate(-518.83 -653.17)"/><path class="cls-1" d="M591.33,767a13.48,13.48,0,0,0-5.11,5c-1,1.65-1.51,3.54-2.49,5.2-.57,1-1.1,1.9-1.58,2.91a19.68,19.68,0,0,1-2.78,4.54,11.77,11.77,0,0,1-1.37,1.61c-.37.3-1,.42-1.25.77a9.58,9.58,0,0,0,4.31,1,47.09,47.09,0,0,1,8.59,2.12A19.52,19.52,0,0,1,599.71,797c1.21,1.55,2.54,2.93,3.61,4.59,1.7,2.63,3.43,5.3,5.29,7.81a44.84,44.84,0,0,0,3.79,3.89,46.19,46.19,0,0,0,4.53,4,34.4,34.4,0,0,0,3.86,2.4c.57.35,1.4,1.27,2.1,1.26a3.92,3.92,0,0,0,1.34-1c1.08-.76,2.13-1.55,3.16-2.37a24.4,24.4,0,0,1,3.12-2.43c2-1.23,4.5-1,6.78-1.38a17.71,17.71,0,0,1,5,.26" transform="translate(-518.83 -653.17)"/><path class="cls-1" d="M577,791a14.75,14.75,0,0,0-2.2,2.53c-1.25,1.91-3,3.32-4.41,5.07a63.43,63.43,0,0,1-4.55,4.73c-1.87,1.83-4,3.24-6,5-3.87,3.44-7,8.07-9.89,12.32-1.51,2.21-2.27,4.67-3.41,7.06a39.2,39.2,0,0,0-2.18,4.91c-.42,1.31-.68,2.68-1.07,4a25.72,25.72,0,0,0-1.27,4.82q0,1.26-.12,2.52c-.17.7-.35,1.39-.55,2.08-.19,1.09,0,2.19-.13,3.29s-.08,2.44-.31,3.6a31.69,31.69,0,0,0-1,3.37,6.1,6.1,0,0,1-.76,2,9.18,9.18,0,0,1-.53,1.29l.29-.21" transform="translate(-518.83 -653.17)"/><path class="cls-1" d="M663.67,819a5,5,0,0,0,.93,2.12c1.09,2.07,2,4.15,3.24,6.17,1.77,3,3.49,6,5.16,9a25.82,25.82,0,0,1,2.33,5.95,62.84,62.84,0,0,1,1,6.53c0-10.47-3-20.64-3-31.1A20.75,20.75,0,0,1,674,811a24,24,0,0,0,1-4.42c.1-.68.48-.94.66-1.53" transform="translate(-518.83 -653.17)"/><path class="cls-1" d="M692.67,809.67c1.7,1.94,2.41,4.13,3.23,6.53,1,2.85,2.31,5.56,3.11,8.47a36,36,0,0,0,3.33,9c1,1.61,2.57,2.3,3.8,3.66s3.35,2.48,2.2,4.3c-.6,1-1.18,1.83-1.72,2.85-1.6,3-3.35,5.81-4.77,8.86-3.39,7.3-7.18,14.78-6.86,23,.24,6.41,3.18,12.31,4,18.63.39,3.18.33,6.39.63,9.58a46.81,46.81,0,0,0,3.09,12.74,26.42,26.42,0,0,1,1.75,5.74c.26,1.59.84,3.18,1.26,4.74.75,2.83,1.62,5.63,2.33,8.48a50.66,50.66,0,0,1,1.15,5c.2,1.35.16,2.7.43,4A16.65,16.65,0,0,1,710,949" transform="translate(-518.83 -653.17)"/><path class="cls-1" d="M650.67,885.33c-1,.79-.49,3.49-.31,4.43a24.22,24.22,0,0,0,4.6,9.45c1.38,1.83,3.27,3.21,4.53,5.13a33.31,33.31,0,0,1,2.3,4,5.55,5.55,0,0,1,.62,2.22,4.48,4.48,0,0,1-1.67,3.5,17.29,17.29,0,0,1-5,2.6c-2.25.94-4.49,1.9-6.7,3a53.37,53.37,0,0,0-5.87,2.91c-1.35.87-2.64,1.78-4,2.63-1.92,1.19-3.52,2.79-5.44,4-1.35.82-2.64,1.74-4,2.51-3.94,2.23-8,4.18-12.15,6.08-3.9,1.8-8.12,3.3-11.7,5.7a59.57,59.57,0,0,1-5.3,3.33c-1.33.68-2.67,1.3-4.05,1.87a25.3,25.3,0,0,1-3.66.76c-1.74.41-3.3,1.08-5.08,1.38a24,24,0,0,1-4.48.29" transform="translate(-518.83 -653.17)"/><path class="cls-1" d="M550.67,906.33a7.3,7.3,0,0,0,.94,4.18,70.26,70.26,0,0,0,4.93,6.85,37.11,37.11,0,0,0,5.12,5,31.09,31.09,0,0,1,3.92,4.72c1.38,1.88,2.15,4.2,3.72,5.93a23.54,23.54,0,0,1,2,2.27c.9,1.26,1.4,2.71,2.24,4a45.37,45.37,0,0,0,4.49,5.41,9.62,9.62,0,0,1,1.74,2.55,10.57,10.57,0,0,0,.94,1.45c.17.26.8,1.66,1.33,1.73.19-.66-1.26-2.92-1.32-3.06" transform="translate(-518.83 -653.17)"/><path class="cls-1" d="M539,919.67c-.17.77.66,1.71,1,2.34a51.11,51.11,0,0,1,2.45,5.64,65.84,65.84,0,0,1,2.75,10.85,69,69,0,0,1,.5,11.5" transform="translate(-518.83 -653.17)"/><path class="cls-1" d="M662.33,910.33a2.6,2.6,0,0,0,.5,1c.6,1,1,2.2,1.57,3.29,1.2,2.47,2.55,4.82,3.6,7.36,1,2.38,2.33,4.57,3,7.06a39.73,39.73,0,0,1,1.14,4.94c.5,3.3.93,6.64,1.33,10a43.56,43.56,0,0,1,.5,4.53,11,11,0,0,0,0,2,6.4,6.4,0,0,0-.72-2.16" transform="translate(-518.83 -653.17)"/><path class="cls-1" d="M666.67,925.33a17.08,17.08,0,0,0-2.3,1.73,28.89,28.89,0,0,0-3.61,3,55.54,55.54,0,0,1-7,5.78c-1,.7-2.19,1.09-3.2,1.8a14.69,14.69,0,0,1-2.59,1.71c-1.8.78-3.65,1.51-5.47,2.28-5.08,2.15-10.36,3.64-15.47,5.68a48.78,48.78,0,0,0-6.7,3" transform="translate(-518.83 -653.17)"/><path class="cls-1" d="M684,865.33c.45,2.34.94,4.68,1.34,7a45.5,45.5,0,0,0,.89,4.77c.82,3,1.25,6,2.14,9,.75,2.47,1.75,4.85,2.65,7.26,1.36,3.58,2.94,7,4.3,10.62A38.11,38.11,0,0,1,698,918c0,4,0,8,0,12,0,1.22,0,2.43,0,3.65,0,1.4-.32,2.7-.36,4.08a39.09,39.09,0,0,0-.25,5.05c.15,1.45.4,2.9.53,4.35a7.53,7.53,0,0,0,.66,3.07,8.69,8.69,0,0,0,.74-2.57" transform="translate(-518.83 -653.17)"/><path class="cls-1" d="M701,780c.1.64.5,1.14.35,1.85-.12.5-.28.88-.41,1.43l-.27.05" transform="translate(-518.83 -653.17)"/><path class="cls-1" d="M698,780a9.48,9.48,0,0,1-.34,1.84c0,.26,0,.49-.07.75s-.4.27-.26.74" transform="translate(-518.83 -653.17)"/><path class="cls-1" d="M705.67,780c0,.72.3,2.18-.34,2.67" transform="translate(-518.83 -653.17)"/><path class="cls-1" d="M705.67,755.67c.79.14,1.69.17,2.45.36.48.12,1,.44,1.57.56.72.16,2,.77,2.53.08-.52-.18-.75-.53-1.19-.76a3.67,3.67,0,0,0-1.86-.24h.5" transform="translate(-518.83 -653.17)"/><path class="cls-1" d="M760.67,752.67a2.77,2.77,0,0,1-1.39-1.39,55.28,55.28,0,0,1-4.39-8.73c-1.71-4.43-2.57-9.24-4.6-13.54-.53-1.12-1-2.24-1.61-3.31a17,17,0,0,1-1.51-5.18c-.5-2.51-.93-5-1.27-7.52-.2-1.52-.23-3-.57-4.49a24.68,24.68,0,0,1-.35-4c-.13-1.78-.67-3.51-.69-5.3a13.65,13.65,0,0,1,1.07-5.66c.65-1.32,1.58-2.55,2.25-3.88,1.12-2.23,1.35-4.76,2-7.11.29-1,.65-2,1-3,.28-.75,1.14-1.74,1-2.56" transform="translate(-518.83 -653.17)"/><path class="cls-1" d="M837,775.33c0,.57-1.17.33-1.58.4a4.6,4.6,0,0,0-1.94.93c-1.5,1.27.28,4.27,1.16,5.48.62.85.88,1.35,2,1.12.55-.11,1.06-.45,1.59-.56,2-.44,3.44.49,5.15,1.3,3.66,1.74,9,2.92,11.8-.84,1.33-1.78.91-4.06.51-6.15-.26-1.41-1.16-2.72-1.64-4.09s-1.07-2.59-1.61-3.89a16.39,16.39,0,0,1-.46-1.62c-.13-.44-.47-.8-.57-1.24s-.16-1.24-.29-1.84a8.4,8.4,0,0,1-.07-1.74,7.48,7.48,0,0,1,.29-3.1,9.67,9.67,0,0,1,2.48-2.83c.4-.38.84-.74,1.22-1.14.61-.62.83-1.49,1.41-2.12,1.26-1.38,3.08-1.88,3.93-3.66a8,8,0,0,0,.75-5.22c-.46-2.51-.33-5-.84-7.55s-.49-4.81-.83-7.21c-.42-3,.18-6-.14-9a55.64,55.64,0,0,0-1-5.87c-.51-2.38.49-4.57,1.5-6.74a3.22,3.22,0,0,1,1.18-1.6c2.74-1.74,6.45.82,9.26,1.11.78.08,1.41.18,1.93-.47s.53-2.38.47-3.35a7.31,7.31,0,0,0-1-3.19c-1.25-2.11-3.18-3-5.19-4.21-3.13-1.91-6.44-4.13-8.37-7.34a6.35,6.35,0,0,0-2.35-2.8c-1.35-.8-3-1-4.31-1.75a3.37,3.37,0,0,1-1.34-1.43,79.41,79.41,0,0,0-4.23-7.34l.16-.09" transform="translate(-518.83 -653.17)"/><path class="cls-1" d="M817.33,764c.52,0,1.08-.06,1.59,0,1.05.08,1.69.86,2.7,1.28a33.17,33.17,0,0,0,4.06,1.06,13.54,13.54,0,0,0,3.45.69c1.82,0,4.19.3,5.64-1,.65-.58.63-1.24.9-2,.12-.31.4-.6.41-.95-.81,1.15-2.19,1.23-3.44,1.23s-2.18.36-3.31.35c-.94,0-1.89,0-2.84,0-.64,0-2.26-.31-2.72.24.33.37.79.37,1.24.49a13.44,13.44,0,0,0,3.89.6c1.11,0,2.64,0,3.5-.87a7.22,7.22,0,0,1-2.57.89,13.35,13.35,0,0,1-2.76-.32c.92,1.24,3.88,1.43,5.15.63a.22.22,0,0,1-.21-.22,17,17,0,0,0,2-1.11" transform="translate(-518.83 -653.17)"/><path class="cls-1" d="M842.67,759.33a5.17,5.17,0,0,1-1.46-.18,14.74,14.74,0,0,0-3.32,0,63.41,63.41,0,0,1-6.89.18c-2.54,0-5.13-.24-7.61.34-1.15.26-2.31.4-3.47.58s-2.32.48-3.56.76a6.86,6.86,0,0,1-2.73.33c-.4-.08-.88-.45-1.3-.34" transform="translate(-518.83 -653.17)"/><path class="cls-1" d="M773.33,774.67c1.26,2.74,4.22,2.1,6.25,4a20.93,20.93,0,0,1,1.59,2.15,38.9,38.9,0,0,1,2.48,3.64,55.63,55.63,0,0,0,5.92,7.76,15.5,15.5,0,0,0,4.65,3.26c1.62.82,3.15,1.82,4.76,2.68,4,2.14,7.79,4.88,12.25,6.07,2.26.61,4.53,1,6.82,1.39,1.93.34,3.69,1,5.65,1,1.48,0,3,.06,4.44,0a16.33,16.33,0,0,0,5.64-1.62,10.85,10.85,0,0,0,4.52-2.95c1-1.33.77-3,.44-4.46a24.66,24.66,0,0,1,.24-10.4c.15-.68.3-2.64.91-3.12s.44.8.44,1.23" transform="translate(-518.83 -653.17)"/><path class="cls-1" d="M775,761.67a13.43,13.43,0,0,0-3.82-2.82c-2.1-1.15-4.83-1.84-6.58-3.52a20,20,0,0,1-4.53-6.4,18.36,18.36,0,0,1-2.07-7.44,4.58,4.58,0,0,1,0-1.48c.32-.9,2.22-2.06,3-2.58,1.32-.93,3.39-.4,4.84,0,2.07.49,4.23.62,5.65,2.29a12.34,12.34,0,0,1,2.12,3,22.25,22.25,0,0,1,2.1,5,8.38,8.38,0,0,1,0,3c-.4,0-.92-.59-1.22-.82-1.26-1-2.62-1.8-3.84-2.82-.7-.58-1.51-1.68-2.56-1.41-1.24.32-1.41,2.17-1,3.19.67,1.66,4.11,2.64,5.56,2.88.87-.64-1.45-1.93-1.92-2a1.39,1.39,0,0,0,.62,1.53c.21-.45.07-1.35-.48-1.5.07.21.14.43.2.65" transform="translate(-518.83 -653.17)"/><path class="cls-1" d="M761.67,758c-.22,1.27.49,3.11.68,4.32a37.36,37.36,0,0,1,.32,7.91,11.76,11.76,0,0,1-.35,2,7.47,7.47,0,0,1-.85,2.09,6.69,6.69,0,0,1-2.79,2.28c-3.54,1.8-7.47,3.6-10,6.77a4.44,4.44,0,0,0-.95,1.81c-.21,1-.1,2.17-.28,3.22-1,5.85-6.12,8.77-10.35,12.22-1,.85-2,1.74-3.09,2.58a21.83,21.83,0,0,0-3.66,4.35c-.92,1.2-1.54,2.42-2.39,3.66-1.11,1.65-2.48,3.16-3.63,4.79a51.06,51.06,0,0,0-4.64,6.93,26.74,26.74,0,0,1-2,4.13,8.33,8.33,0,0,1-1.71,1.44,10.17,10.17,0,0,0,1.37-1.18,36.59,36.59,0,0,1,2.5-2.76c1.24-1.07,2.67-1.77,4-2.71,1-.73,1.9-1.64,2.91-2.34a26.79,26.79,0,0,1,3.51-1.87c2.55-1.26,4.87-2.87,7.62-3.65a48.86,48.86,0,0,1,14.63-1.71,28.93,28.93,0,0,1,6.37.72,61.25,61.25,0,0,1,7.29,2.69,36.25,36.25,0,0,1,4.93,2.69c2,1.24,4.13,2.08,6.23,3.14,5.44,2.75,11.32,4.43,16.77,7.16,2.82,1.41,5.33,3.53,7.91,5.31,3.54,2.43,7,5.22,10.7,7.38A73.74,73.74,0,0,0,824,846.52c2,.76,4.17,1.42,6.18,2.29s3.72,2.21,5.7,3.11c2.2,1,4.45,1.87,6.69,2.78,1.37.56,2.85.89,4.21,1.47.79.34,1.17.82,2.05.85a7.63,7.63,0,0,0,1.85,0c1.11-.33.65-2.31.65-3.18,0-1.45-.27-3.13.36-4.45a15.16,15.16,0,0,1,2.67-3.77c.48-.51,1.12-.77,1.57-1.25.65-.7.27-1.69.11-2.47-.62-3-1.31-6-2-9.07-1.27-5.17-1.43-10.53-2.49-15.74-.49-2.43-.86-5-1.57-7.33-.34-1.12-.72-2.18-1-3.34a5.88,5.88,0,0,0-.5-2.1c-.48-.69-1.91-1.24-2.56-1.63a17,17,0,0,1-3.29-3c-.49-.52-.94-1.08-1.44-1.58a13.94,13.94,0,0,1-1.19-1.11,5.07,5.07,0,0,1-1-2.22l-.27-.05" transform="translate(-518.83 -653.17)"/><path class="cls-1" d="M840.67,789c2.1,2.75,3.83,5.67,6.69,7.77,2.6,1.9,5.59,3.31,8.13,5.27a16.19,16.19,0,0,1,3.44,4.19c1.33,2.09,1.68,4.72,3.09,6.77a20,20,0,0,0,3,3.21,7.22,7.22,0,0,1,1.58,1.59,22.83,22.83,0,0,1,1.8,4,32.22,32.22,0,0,1,1.51,4.54,6.22,6.22,0,0,1,.4,2" transform="translate(-518.83 -653.17)"/><path class="cls-1" d="M778.4,932c-3.33,2.26-6.8,4.34-10.18,6.54-2.22,1.44-4.44,2.49-7.12,2-1.65-.3-3.24-.85-4.88-1.17a58.4,58.4,0,0,0-7.68-.86c-5.39-.32-10.79-.22-16.19-.19a65.68,65.68,0,0,1-7.28-.43,71,71,0,0,0-7.44-.24c-1,0-1.91-.07-2.87,0s-2.1.43-3.18.6a6.77,6.77,0,0,1-2.2,0c-.24-.88-.23-2-.38-2.92-.33-2.13-.63-4.27-.92-6.41q-.71-5.33-1.44-10.64c-.36-2.63-1.62-5.1-2.29-7.66a101.25,101.25,0,0,1-2-10.38,32.43,32.43,0,0,1-.65-4.79c0-9.43-1.57-18.77-.76-28.21a29.33,29.33,0,0,1,6-15.35,43.9,43.9,0,0,1,4.61-5.74,32.49,32.49,0,0,0,3.83-4.37,20.5,20.5,0,0,1,2.38-3.32,15.92,15.92,0,0,1,2.2-1.81c4.28-3,9.1-5,13.88-7a72,72,0,0,1,7.52-2.76c2.59-.77,5.22-1.32,7.75-2.26,2.24-.83,5.32-.49,7.58.07a86.37,86.37,0,0,1,13,4.89c3.51,1.54,7.18,2.78,10.33,5,1,.68,1.94,1.35,2.89,2.05a16.29,16.29,0,0,1,2.48,2.5c3.22,3.53,6.6,7,10,10.31,3.85,3.73,8.84,6.31,13.53,8.78,3.71,2,7.47,3.82,11.11,5.9a46.73,46.73,0,0,1,4.94,3.7,42.94,42.94,0,0,1,4.68,4.37c.85.86,1.81,1.49,2.72,2.26a6,6,0,0,1,.95.86c.65,1,.38,2.57.4,3.72a19,19,0,0,1-.68,4.43c-.33,1.55-.29,3.08-.71,4.61-.48,1.74-1,3.39-1.38,5.15a12.63,12.63,0,0,1-.48,1.7c-.22.54-.81,1.34-.78,1.92a24.69,24.69,0,0,1-4,.39,53.93,53.93,0,0,0-5.64.94,20.45,20.45,0,0,1-3.5.06c-1.72,0-3.41.28-5.13.33-2.47.07-4.36.82-5.55,3-.73,1.35-.92,2.59-1.93,3.77-1.43,1.68-3,3.23-4.5,4.85-1.73,1.87-3.84,3.25-5.68,5a47.21,47.21,0,0,0-5.28,5.93c-1.32,1.78-2,3.87-3.44,5.6C783.14,929,780.75,930.43,778.4,932Z" transform="translate(-518.83 -653.17)"/><path class="cls-1" d="M710,940.67a3.73,3.73,0,0,0,.26,1.07c.09.45.08.89.15,1.36a21.64,21.64,0,0,1,.26,3.78c0,.49-.33,1.77.66,1.45" transform="translate(-518.83 -653.17)"/><path class="cls-1" d="M757.67,942c-3.49.7-9.22,1.33-10.67,5.33" transform="translate(-518.83 -653.17)"/><path class="cls-1" d="M850.67,915.67a17,17,0,0,0-3,1.25,23.39,23.39,0,0,1,2.69-1.62,27.66,27.66,0,0,1,3.59-1.12,3.08,3.08,0,0,1,1.41-.15c.63.13,1.1.64,1.7.87,1.79.7,3.88-.35,5.64.34,1,.39.64,1.09.38,2a17.17,17.17,0,0,0-.75,4.08,6,6,0,0,1-1.41,3.64c-.9,1-2.18,1.1-3.4,1.37a20.6,20.6,0,0,0-5.62,1.73,21.42,21.42,0,0,0-2.78,2.05c-.41.33-1.59,1-1.46,1.57,1.41.14,4.7-.63,6.09-.68a9.15,9.15,0,0,0,1.57,0c.59-.13.95-.46,1.59-.38.9.12,1.37.87,1.75,1.62.8,1.58.32,4.11.33,5.84,0,1.56-.11,2.26-1.7,2.91-2.22.9-4.71,1.2-7,2a89.21,89.21,0,0,0-11.54,5.32,21.75,21.75,0,0,1-2.45,1.05,2.66,2.66,0,0,1-1.31.33" transform="translate(-518.83 -653.17)"/><path class="cls-1" d="M838.33,904.33a33,33,0,0,0,10-3.1,26.63,26.63,0,0,1,5.57-2c.92-.22,1.81-.48,2.73-.67a7.74,7.74,0,0,1,3.07-.26c1,.29,1.06,3.51,1.41,4.38a10.24,10.24,0,0,1,.59,2.63,28,28,0,0,1-.36,4.3,6.31,6.31,0,0,1,0,1.06c-.22.5-.84.67-1.29,1a7.23,7.23,0,0,1-1.06.75c-.43.23-1,.23-1.24.66,1.28-.11,2.66-1.4,3.56-2.08" transform="translate(-518.83 -653.17)"/><path class="cls-1" d="M862.67,898.67c1.25-1.15,2.42-1.71,3.08-3.34.41-1,0-1.66-.4-2.66a9.5,9.5,0,0,0-2.1-3c-1.61-1.64-3.41-1.9-5.69-2-1.81-.08-3.59.27-5.4.24a4.27,4.27,0,0,1-1.42-.23,3,3,0,0,1-1.68-1.73,22.33,22.33,0,0,1-.71-3.73,26.58,26.58,0,0,1-.69-5,1.54,1.54,0,0,1,.41-1.27c.3-.42,1.28-1.11,1.26-1.68" transform="translate(-518.83 -653.17)"/><path class="cls-1" d="M856.67,859.33a15.8,15.8,0,0,1,10-5,5,5,0,0,1,5.24,2.52,17,17,0,0,1,2.05,7.59c.2,2.19-.31,4.31-.3,6.51" transform="translate(-518.83 -653.17)"/><path class="cls-1" d="M871.33,852.67a5.93,5.93,0,0,1-1.1-1.43,31.33,31.33,0,0,1-2.54-3.43,8.49,8.49,0,0,1-1-3.48c-.1-2.75.68-5.48.67-8.25,0-.77,0-1.54,0-2.3a10.51,10.51,0,0,1,1-4.1,14.93,14.93,0,0,1,3.16-4.77c1.24-1.38,2.87-2.16,3.6-3.83a41.57,41.57,0,0,1,4.4-8.4c.71-1,1.44-2,2.2-2.89.9-1.11,2-2,2.92-3.09s1.51-2.55,2.4-3.74c.75-1,1.69-1.82,2.37-2.89a10.47,10.47,0,0,1,3.41-3.8,22.63,22.63,0,0,1,3.33-1.86c1-.41,2.16-.68,3.21-1.06,2.6-.93,5.08-2.2,7.72-3a42.09,42.09,0,0,1,8.66-1.26,23,23,0,0,1,6,.11,27.62,27.62,0,0,1,6.93,2.5A52.61,52.61,0,0,1,939.46,798c4,3.24,6.26,7.36,8.3,12a20,20,0,0,1,1.86,6.38,10.67,10.67,0,0,1,0,3.52c-.65,2.24-3.78,3.4-5.81,4s-4.08.29-6.11.81a8.82,8.82,0,0,1-1.6.23,6.56,6.56,0,0,0-2.79,1.08,45,45,0,0,0-5.78,3.61c-.67.52-1.22,1.19-1.9,1.68s-1.61.83-2.36,1.3a23.15,23.15,0,0,1-4.18,2.53c-1.7.63-3.68,1.13-5.12,2.27-2.51,2-4.87,4-7.2,6.22-1.19,1.13-2.33,2.3-3.51,3.43a23.46,23.46,0,0,0-2.39,2.28c-1.61,2.07-3.92,3.6-5.19,5.94-.8,1.47-1.59,3-2.39,4.42a14.12,14.12,0,0,1-2.45,3.58,3.72,3.72,0,0,1-2.92,1,13.28,13.28,0,0,1-2.36,0,9.81,9.81,0,0,1-2.08-.91,11.31,11.31,0,0,0-2.55-.46,5.31,5.31,0,0,0-1.33-.54,2.68,2.68,0,0,1-1.28-.2.93.93,0,0,1,.71-.87" transform="translate(-518.83 -653.17)"/><path class="cls-1" d="M876.67,847.33a24.17,24.17,0,0,0,6.54,2.63,14.1,14.1,0,0,1,2.44.77,7.4,7.4,0,0,0,1.37.63c.44.07.84-.1,1.28,0-.18,1.23-3,1.9-4,2a18,18,0,0,0-2.41.22c-1,.19-1.67.54-2.63.13a20.76,20.76,0,0,1-2.3-1c-.6-.36-.72-.81-1.06-1.5a6.15,6.15,0,0,1-.93-2.58c0-.65,0-1.3,0-1.94" transform="translate(-518.83 -653.17)"/><path class="cls-1" d="M877,838a2.08,2.08,0,0,0,.76,1.6c.41.41.51.29,1.07.43a5.4,5.4,0,0,0,1.5.3c.94,0,.74,0,1.25.68.29.39.71.53,1.06.84a4.82,4.82,0,0,0,2.13,1.43c1.31.19,2.34-.74,3.23-1.61" transform="translate(-518.83 -653.17)"/><path class="cls-1" d="M894,833.33c-1.06.13.09,1.88.67,2a6.76,6.76,0,0,0,1,0,2.43,2.43,0,0,1,1.53.7,15,15,0,0,1,1.82,1.3c.27.28.25.53.63.69a5.49,5.49,0,0,1,3.14,1.65c-.85-.66-1.73-1.23-2.61-1.85-.46-.33-.84-.76-1.25-1.08-1-.75-2.17-.74-2.93-1.74" transform="translate(-518.83 -653.17)"/><path class="cls-1" d="M882.67,827.33c-1.26.24-1.87-1.63-2.86-2.14-.63-.32-1.15,0-1.79-.15-1.07-.2-2-1.35-2.87-2,.73.83,2.12,1.12,3.05,1.66a9,9,0,0,1,2.38,2.3.73.73,0,0,1-.58,0" transform="translate(-518.83 -653.17)"/><path class="cls-1" d="M881.33,822.33c.35-.73.47-1.09-.06-1.82a7.4,7.4,0,0,0-.94-1c-.43-.26-.84-.12-1.33-.14" transform="translate(-518.83 -653.17)"/><path class="cls-1" d="M894.67,829c.09,1,2.84,1.24,3.48,1.5a17.89,17.89,0,0,1,2.74,1.44c.28.18,1.42.94.44,1.06" transform="translate(-518.83 -653.17)"/><path class="cls-1" d="M951.67,814.33a5.9,5.9,0,0,1,4.62,2.94,6.88,6.88,0,0,1,1.06,2.3,5.86,5.86,0,0,1-.64,3.27c-1.22,2.89-2.94,5.84-3.63,8.91-.2.91-.62,1.7-.88,2.58-.45,1.48-.66,3.13-1,4.65-.55,2.4-1.33,4.72-2,7.08-1,3.36-1.88,6.75-2.94,10.09a82.92,82.92,0,0,0-2.77,12.31,54.34,54.34,0,0,0-.79,9.09c0,2.38-.88,4.77-.69,7.13a14.38,14.38,0,0,0,.44,2.69,9.65,9.65,0,0,0,.27,1.09c.19.46.55.75.73,1.28a11.62,11.62,0,0,1,.58,2.93c.3,3.52,1,7.07,1,10.62,0,1.42-.33,2.76-.34,4.16,0,1.12,0,1.52.86,2.19,1.91,1.41,2.14,3.69,2.83,5.83,1.13,3.55,1.48,7.32,2.12,11a11.32,11.32,0,0,1,.18,3.85c-.17.93-.77,1.74-1,2.7-.11.58-.29,1.08-.36,1.66a16.89,16.89,0,0,0-.39,2c0,1.36,1.29,3,1.92,4.17.4.75,1.1,1.48,1.42,2.25.77,1.84-1.26,3.65-2.27,4.93.45-1.47.91-2.79,1.32-4.32" transform="translate(-518.83 -653.17)"/><path class="cls-1" d="M946.67,897.67c.26-1.53,4.64-1.68,5.69-.95,1.47,1,.76,3,1,4.38a8.87,8.87,0,0,1-.74,5.21c-.43,1.15-.86,2.25-1.35,3.38a8.87,8.87,0,0,0-.67,1.63c-.23,1.27.82,2.32,1.38,3.3s.7,1.88,1.29,2.72c1.09,1.54,3.09.87,4.71,1.07,2.5.3,5.24.45,7.54,1.58a6.34,6.34,0,0,1,2.72,3.93c.44,2.15-1.11,4.15-2.54,5.51a3.92,3.92,0,0,1-1.94,1.26c-.85.26-1.11.12-1.1.85a3.07,3.07,0,0,1,.61,1,14.08,14.08,0,0,0,.85,1.45c.41.73.83,1.48,1.17,2.24.89,2,2.08,3.81,2,6.06,0,.49.06.78-.33,1.14s-.74.24-.95.89c-.36,1.07.56,2.31.6,3.42a2.87,2.87,0,0,1-.85,2.63c-.57-1.34-2.18-2.51-3.15-3.38" transform="translate(-518.83 -653.17)"/><path class="cls-1" d="M934,948c-1.15,1.06-2.32,2.08-3.53,3.08,1-1.19,2.26-2.2,3.21-3.47a17,17,0,0,0,2.45-5.76c.29-1.12.23-2.28.46-3.43a39.31,39.31,0,0,0,.38-3.93,7.52,7.52,0,0,0-.21-3.53,6.44,6.44,0,0,0-4.32-3.31c-2.35-.31-4,2.46-4.91,4.05-.58,1-1.2,1.95-1.87,2.88-1.85,2.79-3.17,6-5.49,8.43a8.16,8.16,0,0,0-1.49,1.94,21.37,21.37,0,0,0-.76,2.66c-.22.62-.87,1.25-.6,2,.8-1,1.59-1.92,2.35-2.91" transform="translate(-518.83 -653.17)"/><path class="cls-1" d="M951.67,932.33a21.39,21.39,0,0,0,5.19-.16c.54-.14,1.13,0,1.64-.19a5.39,5.39,0,0,0,1.5-1" transform="translate(-518.83 -653.17)"/><path class="cls-1" d="M954.67,917.67c-1.54.51-3.91,1.79-4,3.65-.07,1.33,1.78,3,3,3" transform="translate(-518.83 -653.17)"/><rect class="cls-1" x="20.17" y="22.39" width="438" height="274.52"/><polygon class="cls-1" points="0.5 0.5 477.83 1.83 477.83 317.83 0.5 312.83 0.5 0.5"/><path class="cls-1" d="M837.33,789h-5.21a10.19,10.19,0,0,1-2.37-.34,11.26,11.26,0,0,1-1.75-.59,15.88,15.88,0,0,1-3.16-1.53c-.7-.44-1.38-.85-2-1.36-.48-.39-1.83-1-2.1-1.43.7.75.74,1.68,1.61,2.35a6.85,6.85,0,0,0,2.7,1.58c.69.14,1.29.46,2,.59.5,0,1,.06,1.5.13a3.08,3.08,0,0,0,1.42.54c.8.15,1.57,0,2.37.13a12.25,12.25,0,0,0,2.34.27,8.1,8.1,0,0,0,3.35-.41,1.17,1.17,0,0,1,.35-.93" transform="translate(-518.83 -653.17)"/><path class="cls-1" d="M856,716.67a25.33,25.33,0,0,1-2.94,3.27,20.79,20.79,0,0,1-2,2.07,24.05,24.05,0,0,1-2.41,1.27,4.42,4.42,0,0,1-2.49.4c-2,0-3.46-.69-5.38-1.29a15.46,15.46,0,0,0-4.87-.77c-2.19,0-4.31.76-6.47,1.06-1.78.26-3.58.42-5.37.59-3.85.36-7.57-.37-11.36-.66-2.86-.21-6,1.68-8.1,3.35-1.64,1.28-3.33,2.46-5,3.68-1,.7-2.13,1.23-2.6,2.38-.64,1.52-.05,2.78,0,4.3,0,1-.44.92-.74,1.7-.22.56.12,1.49.14,2.12a25.84,25.84,0,0,1-.63,4.28,13.92,13.92,0,0,0,.27,5.27c.18.64.75.47,0,1.3s-2.48,1.16-3.62,1.3a8,8,0,0,1-1.38.07,4.69,4.69,0,0,1-.89-.31c-.92,0-.8.66-.75,1.48a11.55,11.55,0,0,0,1.13,3.45c.3.75.43.84-.42,1a2.08,2.08,0,0,1-1.68-.35,26.49,26.49,0,0,1-2.69-3.2,17.86,17.86,0,0,1-2.59-4.12c-.53-1.13-1.32-2.91-2.73-3-.75-.07-.55,0-1.1-.36a30.31,30.31,0,0,0-2.91-2" transform="translate(-518.83 -653.17)"/><path class="cls-1" d="M692,779.33a23,23,0,0,0,3.84.67,4.85,4.85,0,0,0,1.49-.26,8.26,8.26,0,0,1,1.49-.06c.75-.06,1.44-.34,2.2-.35.55,0,1.1,0,1.65,0,1.08,0,1.92.32,3,.34a14.79,14.79,0,0,0,3.26-.74,7.07,7.07,0,0,0,1.42-.81,27.53,27.53,0,0,1-2.62,1c-.59.16-1.16.16-1.74.31a11.82,11.82,0,0,1-3,.26" transform="translate(-518.83 -653.17)"/></g></svg>