<svg xmlns="http://www.w3.org/2000/svg" viewBox="0 0 535.34 319.78"><defs><style>.cls-1{fill:none;stroke:#000;stroke-miterlimit:10;}</style></defs><title>single_women</title><g id="SINGLE_WOMAN" data-name="SINGLE WOMAN"><path class="cls-1" d="M1315,228.33c0,.23,0,.46,0,.69a.33.33,0,0,0,.33.36,12.74,12.74,0,0,0,1.77,2.39,23.38,23.38,0,0,0,3.92,3.31c2,1.37,4.11,2.42,6.25,3.59a27.87,27.87,0,0,0,5.43,2,4.38,4.38,0,0,0,3.39,0,8.17,8.17,0,0,1,3.93-1.36,6.92,6.92,0,0,1,2.4.25,18.22,18.22,0,0,0,5.27.42c.16-.82-.72-2.15-1-2.89a14.15,14.15,0,0,0-2.82-4.61,21.82,21.82,0,0,0-4.34-3.48c-1.46-.93-3.14-1.43-4.61-2.34a16.91,16.91,0,0,0-6-2.27,32.84,32.84,0,0,0-5.92-.75c-1.53,0-3,.21-4.47.32a9.54,9.54,0,0,0-2.92.67c-.69.29-1.29.76-2,1a20.12,20.12,0,0,1-2.82.35c-.56.13-1.22.54-1.85.33s-.42-.87-.91-1a16.12,16.12,0,0,1-.77,3.17c-.42,1-.71,1.84-1,2.83s-1,1.51-1.28,2.32a15,15,0,0,1-1,2.41,33.45,33.45,0,0,1-3,4.64c-.72.83-1.52,2.13-2.55,2.57a7.05,7.05,0,0,0-.73.18c-.41.22-.87.78-1.31,1a30.37,30.37,0,0,1-6,3.28c-1.54.54-3.1.84-4.74,1.31A10.57,10.57,0,0,1,1280,249c-1.86-.72-2.92-2.35-4.06-3.88-1.25-1.68-2.29-3.3-2.26-5.56,0-1.09.68-1.64,1-2.57,2.15-6,11.48-9,17.64-10.35,2.84-.63,5.77-.64,8.63-1.07a44,44,0,0,1,6.39-.25" transform="translate(-1073.83 -188.39)"/><path class="cls-1" d="M1275,280c-.29,1.1.93,2.22,1.48,3,.79,1.1,1.54,2.21,2.27,3.35,1.09-1.19,1-3.3,1.24-4.79a60.57,60.57,0,0,0,1-7.22,33.91,33.91,0,0,1,1-6.63,8.43,8.43,0,0,1,3-4.79c3.24-2.84,7.52-3,11-5.23,1.4-.91,3-1.44,4.42-2.34a54,54,0,0,1,4.69-2.78c2.56-1.29,6.11-1.3,8.9-1.58a83.19,83.19,0,0,1,8.79-.3h3.19a9.19,9.19,0,0,0,3.23-.13,16.83,16.83,0,0,0,2.9-1.55,3.6,3.6,0,0,0,.88-.72c.35-.61-.14-2.77-.54-2.92-.07.37.26.71.44,1,.54.95.92,2,1.48,2.91a9.74,9.74,0,0,0,3,3.07,4.32,4.32,0,0,0,2.36.32c.84,0,1.47-.61,2.28-.19a4.71,4.71,0,0,1,1.5,1.69c.94,1.41,1.65,2.92,2.7,4.27a17.48,17.48,0,0,1,2.23,3.11,9.69,9.69,0,0,1,.69,2.24c.13.7.21,1.41.29,2.13.18,1.64.43,3.28.57,4.93a31.25,31.25,0,0,0,.34,3.87,13.88,13.88,0,0,1-.09,4.68c-.3,1.81-.05,3.64-.32,5.46a52,52,0,0,0-.86,6.31c0,1.76-.55,3.51-.27,5.28a28.8,28.8,0,0,1,.64,4,11.24,11.24,0,0,1-.5,3.19c-.41,1.63-.94,3.23-1.33,4.86s-.55,3.12-1,4.63-1.21,3.09-1.56,4.71c-.44,2-1.14,3.86-1.51,5.85a38.43,38.43,0,0,1-1.23,5.3,43.88,43.88,0,0,1-2.53,5.59,4.66,4.66,0,0,1-1.15,1.71,12.42,12.42,0,0,1-1.77.66,29.42,29.42,0,0,1-3.32,1.32,24.13,24.13,0,0,0-3.26,1.88,17.79,17.79,0,0,1-7.41,2.44c-1.52.11-3.12-.15-4.63.11a8.31,8.31,0,0,1-3.22.07,98.56,98.56,0,0,1-10.21-2c-1.39-.41-2.68-1-4-1.5a25,25,0,0,1-5.63-3.22,21.82,21.82,0,0,1-2.92-2c-.86-.84-1.59-1.82-2.46-2.67s-1.64-1.68-2.37-2.56c-.57-.68-1.11-1.44-1.62-2.16-.63-.89-.86-1.91-1.4-2.85a17.4,17.4,0,0,1-1.83-3.4c-.28-.88-.53-1.86-.72-2.77-.48-2.41-.32-4.82-.57-7.25-.12-1.12-.14-2.27-.35-3.38-.27-1.34-.67-2.66-1-4a25,25,0,0,0-1.8-4.8c-1.08-2.46-1.78-5.07-3-7.47-1.41-2.78-3.28-4.91-3.66-8.1-.19-1.58-.37-3.14-.58-4.71s0-3.35-.18-5c-.46-4.26-.71-8.9.49-13,.41-1.42,1-2.77,1.53-4.16a7.72,7.72,0,0,0,.7-2.13,7.23,7.23,0,0,1,.14-1.4,15.13,15.13,0,0,1,.67-1.82,6.72,6.72,0,0,0,.16-2.34" transform="translate(-1073.83 -188.39)"/><path class="cls-1" d="M1294,292c-.21-.74.81-1.28,1.33-1.58a10.63,10.63,0,0,0,1-.77,8,8,0,0,1,1.35-.56,11,11,0,0,1,1.65-.75c.49-.15.9-.46,1.4-.61a7,7,0,0,1,2-.06,10.67,10.67,0,0,1,2.89.26c.74.19,1.32,0,2,.4a6.47,6.47,0,0,1,1.57,1.43c.46.49,1.46,1.06,1.42,1.86-1.22.41-3.08.05-4.4.05H1302c-1.34,0-2.67,0-4,0a19.37,19.37,0,0,1-2-.35c-.6-.08-1.19.24-1.65-.32" transform="translate(-1073.83 -188.39)"/><path class="cls-1" d="M1328,291.33a5.16,5.16,0,0,1,1-1.8c.44-.58,1.08-.66,1.68-.93a12.49,12.49,0,0,1,1.53-.9,8.45,8.45,0,0,1,1.46-.37,5.44,5.44,0,0,1,1.71.08c1.07.2,2.11.09,3.15.24.24,0,.37.24.52.28.58.13,1.15,0,1.74.14a5.12,5.12,0,0,1,2.07.72,2.12,2.12,0,0,1,.9,1.13c.27.61.39.66-.39.75s-1.49-.08-2.21,0c-1,.14-1.94.36-2.9.56a29.17,29.17,0,0,1-5.61.07c-.54,0-1.09,0-1.64,0-1.24-.06-2.37-.84-3.67-.67" transform="translate(-1073.83 -188.39)"/><path class="cls-1" d="M1311.33,285c-.62,0-1.32-.67-1.89-.93a8.93,8.93,0,0,0-2.47-.75c-.88-.12-1.73-.23-2.62-.3-.55,0-1.06-.37-1.63-.38a3.19,3.19,0,0,0-1,.29,12.69,12.69,0,0,1-3,.07c-.75,0-1.1-.3-1.81-.34a12.27,12.27,0,0,0-2,0c-1.69.23-2.63,2-3.93,2.92l2.43-.9" transform="translate(-1073.83 -188.39)"/><path class="cls-1" d="M1328,285.67c1.55-.91,3.48-.81,5-1.66a10.73,10.73,0,0,1,2.08-1.29,5.92,5.92,0,0,1,1.33,0c.4-.05.71-.24,1.1-.32,1-.23,1.79-.85,2.82-1.05a4.09,4.09,0,0,1,2.44.33c.38.2,1.85.92,1.89,1.35" transform="translate(-1073.83 -188.39)"/><path class="cls-1" d="M1325,290c-1.45,3.38.37,7.15,1.14,10.47a18,18,0,0,0,.67,2.52,6.73,6.73,0,0,0,1.53,2.29,26.77,26.77,0,0,1,5.08,7c.35.71,1.28,1.92,1.25,2.75" transform="translate(-1073.83 -188.39)"/><path class="cls-1" d="M1309.67,305.67a12.51,12.51,0,0,0-1.81,2,14.32,14.32,0,0,1-2.78,3.68c-.72.59-1.21,1.39-1.91,2s-1.72,1-1.5,2" transform="translate(-1073.83 -188.39)"/><path class="cls-1" d="M1312.33,310.33a4.52,4.52,0,0,0,3.08.28c.91-.26,1.52-1,2.6-.56.72.31.83,1.36,1.42,1.87a2.58,2.58,0,0,0,1.8.75,5.16,5.16,0,0,0,2.44-.2c.45-.25.83-.87,1.24-1.22s.6-.36.89-.58.38-.49.6-.6.61,0,.95-.05.46-.5,1-.35" transform="translate(-1073.83 -188.39)"/><path class="cls-1" d="M1332.67,321c-.08.73-2.71.33-3.33.33s-1.12,0-1.67,0-1.27-.3-1.94-.36c-2.57-.22-5.1-.34-7.73-.31-1,0-2-.33-3-.34a14.09,14.09,0,0,0-3,.6,10.56,10.56,0,0,1-2.67.4,12.91,12.91,0,0,0-1.39,0c-.57.06-1,.41-1.6.35.33-.17-1.27-.86-1-1s.64-.48,1-.68c.71-.37,1.54-.36,2.26-.71s1.57-1.23,2.54-1.32c.6-.06,1.17.07,1.75,0a.45.45,0,0,1,.38-.28l.94,0a6.68,6.68,0,0,0,1.76-.26c.55-.13,1.15.06,1.69-.14.39-.15.59-.48,1-.61a11.1,11.1,0,0,1,1.35-.34,4.63,4.63,0,0,1,1.62.09c.87.14,1.81.14,2.65.33,2.25.52,4.72.57,7,1.09a21.89,21.89,0,0,1,3,.92c1.14.43.66,1.27,0,2.18a5.87,5.87,0,0,1-3.08,2c-1.66.55-3.27,1.18-4.94,1.67-1.52.46-2.71,1.32-4.31,1.4a18.52,18.52,0,0,1-2.22.31,33.13,33.13,0,0,1-5.39-1.23,6.37,6.37,0,0,1-2.09-.8,15.43,15.43,0,0,0-1.64-1.18,8.77,8.77,0,0,0-3.6-.75" transform="translate(-1073.83 -188.39)"/><path class="cls-1" d="M1269.33,283.67c-.15.46-.64.67-.84,1.19a11.56,11.56,0,0,0-.51,1.68c-.25,1.11.46,2.55.71,3.6s.94,2.3,1.33,3.45a9.18,9.18,0,0,1,.31,3.22c0,1.3-.14,2.72,0,4a8.24,8.24,0,0,0,.84,2.33,22.58,22.58,0,0,0,1.75,3.43,6.9,6.9,0,0,0,2.26,2.61,7.27,7.27,0,0,0,1.76.54c.37.11.81.45,1.24.56s.6.06,1,.36c.6.45.8,1.52,1.5,1.67" transform="translate(-1073.83 -188.39)"/><path class="cls-1" d="M1331,340.67c-1.27.22-1.74,2.57-2.08,3.59a45.1,45.1,0,0,0-1.68,7.27c-.18,1.07-.12,2.16-.31,3.21a8.17,8.17,0,0,0-.27,2.61c.31,2.73,2.87,4.83,4.31,6.95a10.33,10.33,0,0,0,5.35,4,7,7,0,0,1,1.51.55c1.07.66,1.39,2.1,1.87,3.17a69,69,0,0,1,2.43,7.32c.75,2.38,1.48,4.77,2.21,7.17.61,2,1,4.12,1.73,6.11a27.76,27.76,0,0,0,1.92,3.67c1,1.9,1.67,4,2.67,5.88,1.26,2.42,2.55,4.81,3.76,7.26a27.73,27.73,0,0,1,2,3.76A15.28,15.28,0,0,1,1357,415a3.89,3.89,0,0,1-.27,1.72c-.23.87-.13,1.95-.43,2.78-.42,1.13-2.32,2.18-3.42,2.5a25,25,0,0,1-5.93,1c-2.87.09-5.49-1.1-8.26-1.71s-5.28-1.71-8-2.11a36.64,36.64,0,0,0-5.34-.21,27.64,27.64,0,0,1-6.1-.33c-.84-.18-1.63-.27-2.48-.41a38.7,38.7,0,0,1-6-1.84c-5.27-1.74-10-4.69-14.77-7.42-5.63-3.2-11.15-6.47-15.64-11.22-2.83-3-4.84-6.47-6.92-10a83.15,83.15,0,0,0-6-8.43c-1.41-1.81-2.91-3.56-4.42-5.3-1.21-1.4-2-3.06-3.26-4.47a13.45,13.45,0,0,0-3.91-3.38,31,31,0,0,1-4.22-2.9,10.41,10.41,0,0,0-3.92-2c-.3-.08-.75-.23-1-.27-.56-.08-.76.2-1.31.26-.11-1.69,2.61-4.91,3.69-5.31a89,89,0,0,0,11.42-5c1.74-.93,3-2.22,4.61-3.28,1.17-.77,2.47-1.31,3.64-2.07s2.37-1.59,3.6-2.32a14.17,14.17,0,0,0,2.3-1.41c3.27-3,4.88-7.11,6.36-11.15a15.57,15.57,0,0,0,.72-5.55,5.11,5.11,0,0,0-.08-1.24c-.11-.5-.15-1.13-.31-1.63l-.28,0" transform="translate(-1073.83 -188.39)"/><path class="cls-1" d="M1360,379.33c.23-.64-1.35-2.26-1.79-2.61-1.29-1-3.22-1.2-4.67-1.89a9.12,9.12,0,0,1-2.17-1.47c-.95-.85-2-1.56-2.85-2.48a9,9,0,0,0-3.63-1.95c-1.2-.41-2.41-.82-3.59-1.29a8.46,8.46,0,0,1-2.52-1.3,10.62,10.62,0,0,1-1.54-1.27c-.25-.28-.55-.66-.91-.74" transform="translate(-1073.83 -188.39)"/><path class="cls-1" d="M1212,378.67c-.6.12-.6.85-1,1.21-.32-1.65,1.36-3.51,2.33-4.66a19.56,19.56,0,0,1,2.78-2.83,16,16,0,0,1,5.22-2.22c4.55-1.36,10,0,12.81,3.94,2.22,3,2,7,2.52,10.55s1.37,6.75,1.77,10.18c.19,1.6.37,3.2.59,4.79.27,2,.23,3.87.31,5.85.06,1.49.37,2.92.3,4.42-.11,2.3-.36,4.6-.63,6.88a71.49,71.49,0,0,0-.32,8.41c0,2.65.38,5.15.61,7.79a117.71,117.71,0,0,1,.08,12c-.09,4.34-1.11,8.64-1.88,12.89-1,5.36-1.3,10.77-2.14,16.14-.18,1.19-.59,2.52-.84,3.63-.08.35-.57,1.19-.51,1.54V479" transform="translate(-1073.83 -188.39)"/><path class="cls-1" d="M1210,382a5.11,5.11,0,0,1-.65,1,21.4,21.4,0,0,0-1.47,4.44c-1.13,3.7-2.2,7.43-3.62,11-1.77,4.47-3.08,9-4.69,13.57-1,2.71-2.22,5.31-3.2,8-.43,1.39-.88,2.78-1.37,4.15-.5,1.09-1,2.19-1.52,3.27a108.68,108.68,0,0,0-4.5,14.15,136.6,136.6,0,0,0-2.9,18.13c-.18,1.75-.74,3.44-.77,5.2,0,.77.08,1.55,0,2.33-.14,2.42-.39,4.9-.77,7.29a17.79,17.79,0,0,0-.25,4.83,3.08,3.08,0,0,0,1.34-1.42" transform="translate(-1073.83 -188.39)"/><path class="cls-1" d="M1373.33,446.67a8,8,0,0,1,1.37,2.91,42.15,42.15,0,0,1,0,6.55,19.41,19.41,0,0,1-1.34,6c-1,2.45-2.63,4.61-3.91,6.91-1.46,2.62-4.27,4-5.85,6.52a11.26,11.26,0,0,0-1.88,6.42" transform="translate(-1073.83 -188.39)"/><path class="cls-1" d="M1244,360.67a9.41,9.41,0,0,1-2.2-.31c-.86-.06-1.72,0-2.58,0a19.65,19.65,0,0,0-2.87.05c-1.12.17-2.16.66-3.26.9-3.7.8-7.81.56-11.08,2.69a23.17,23.17,0,0,0-7.66,8.7c-.39.71-1,1.27-1.37,2a10.82,10.82,0,0,0-.73,2.28,9.31,9.31,0,0,1-1.58,3.4" transform="translate(-1073.83 -188.39)"/><path class="cls-1" d="M1095.33,212.67l487.33,1.49V481.91h-487.5Q1095.25,347.29,1095.33,212.67Z" transform="translate(-1073.83 -188.39)"/><path class="cls-1" d="M1077.67,189.67l529,1q1,158.49,2,317l-534-.67-.34-318Z" transform="translate(-1073.83 -188.39)"/><path class="cls-1" d="M1362.33,407.67c.14,1.2,1.14,2.6,1.67,3.66a49.5,49.5,0,0,1,2.68,6.32,31.41,31.41,0,0,1,1.31,9.45c0,2,.28,4.1.36,6.15-1.08-2.06-1.31-4.56-2.52-6.59-.38-.65-1-1.06-1.43-1.67a6.26,6.26,0,0,1-.76-1.76c-.69-2-2.29-3.87-2.35-6a16.69,16.69,0,0,1,.53-5.5c.64-2.08,1.69-4.31,1.54-6.52a17,17,0,0,1,.29-5.37,30.3,30.3,0,0,0,1-5.74,50.92,50.92,0,0,1,.92-5.34c.13-1,.11-3.1,1.4-3.55a1.89,1.89,0,0,1,2.36,1.48c.08,1.38-1.18,2.61-1.52,3.89-.89,3.35,2.21,5.29,3.45,8,2-1.77,2.52-5,3.71-7.3a6.82,6.82,0,0,1,3.65-3.13A8.38,8.38,0,0,1,1382,387a12.33,12.33,0,0,1,0,2.43c0,1.54,0,3.08,0,4.62a4,4,0,0,0,1.75,3.49c1,.75,2.2,1.42,2.93.17s.71-4.3.71-5.8c0-.79-.27-2.45.28-3.23a1.63,1.63,0,0,1,1.47-.66c1,.19.92,1.16.93,1.95,0,2.25-.9,6.46,1.1,8.17,2.54,2.2,4.08-.47,5.1-2.87a69.17,69.17,0,0,0,2.28-7.6,12.39,12.39,0,0,1,5.8-7c.15.42-.23.94-.35,1.33a32.47,32.47,0,0,0-1,4.39c-.38,2.34-.88,5.32.6,7.35a29.23,29.23,0,0,0,7.14,6.49c.16-2.66-1.09-5.15-1.45-7.75-.13-.92,0-1,.72-1.56a1.52,1.52,0,0,1,.82,1.16c.51.95,1,1.9,1.61,2.83a21.93,21.93,0,0,0,3.09,4.87,38.2,38.2,0,0,0,8.86,6.56,2.24,2.24,0,0,0-.86-1.87q-1.66-2.59-3.47-5.1a17.84,17.84,0,0,1-3-5.9c-.19-.84-.44-1.63.39-2.15a4.49,4.49,0,0,1,2.18-.37c1.28,2.25,2.71,4.42,4.06,6.63a14,14,0,0,0,3.66,4.41c2.28,1.68,5.58,3.66,6.28,6.6.36,1.54-.72,3.11-.89,4.68-.23,2.22.54,3.92,1.66,5.83a23.23,23.23,0,0,0,0-2.89,15.6,15.6,0,0,1,0-3.48,1.3,1.3,0,0,1,1.34-1c1.76-.07,3.64,1.77,5.21,2.47a1.8,1.8,0,0,0,2.17-.39,17.87,17.87,0,0,0,1.62-2.23,27,27,0,0,0,2.21-3.43c.78-1.48,1.54-3,2.33-4.43a7.15,7.15,0,0,0-.3-6.16c-.51-.78-2.89-2.5-2.5-3.51,1.34-.27,2.37,1.08,3.2,1.92.66-.53.13-2.6-.25-3.24-.62-.7-1.22-1.43-1.78-2.18-.85-1.16-1.68-2.32-2.5-3.5a30.68,30.68,0,0,1-3.37-6.51,4,4,0,0,1,.34-3.76c1.71-3.09,3.87-6.95.94-10a22.43,22.43,0,0,0-3.35-2.55c-2.23-1.56-4.43-3.17-6.66-4.74-3.85-2.69-7.77-5.22-11.63-7.88a14.52,14.52,0,0,0-7.06-2.18c-1.88-.17-3.87-.4-5.76-.4a7.49,7.49,0,0,1-2.9-.34,17,17,0,0,1-4.68-3.3,35.63,35.63,0,0,0-4.85-3.93c-.44-.26-1.26-.92-1.75-.7a8.3,8.3,0,0,0,2.53,6.33c.77.69,2.35,1.56,2.55,2.67.26,1.43-2.72,2.18-3.71,2.28a7.13,7.13,0,0,1-2.51-.59c-.93-.23-2.06-.56-3-.7s-3.49.57-3.19,2" transform="translate(-1073.83 -188.39)"/><path class="cls-1" d="M1369.33,437a14.8,14.8,0,0,0,2.4,5.39c1.34,1.87,2.18,4.11,4,5.59,3.08,2.55,6.55,4.5,9.17,7.56,1.21,1.41,1.72,3.3,3.22,4.48a7.61,7.61,0,0,0,4.09,2,36.42,36.42,0,0,0,4.68-.31c1.2-.13,2.41.07,3.6-.06a13,13,0,0,0,2.83-.68,20.06,20.06,0,0,1,3-.68c2.6-.5,5.28-1.93,7.66-3.08a9.8,9.8,0,0,0,4.06-2.89c.9-1.28,1.42-2.83,2.3-4.14a19.11,19.11,0,0,1,2.38-3.18,17.14,17.14,0,0,1,2.43-1.71,11.92,11.92,0,0,0,2.58-2,9.34,9.34,0,0,0,1.3-3.06,13.57,13.57,0,0,0,.62-3.35c0-.72-.09-1.52,0-2.23.26-1.74,2-3.76,3.77-3.81.77,0,1.74.88,2.5.45a8.31,8.31,0,0,0,1.41-1.8,17.4,17.4,0,0,0,1.68-3,16.41,16.41,0,0,0,2-5.87,8.68,8.68,0,0,1,.71-3.28" transform="translate(-1073.83 -188.39)"/><path class="cls-1" d="M1370.33,413a9.69,9.69,0,0,1,4.58-2.09c2.26-.61,4.8,0,7,.45.75.17,1.49.72,2.15.91.82.23,1.49.14,2.2.74a8.9,8.9,0,0,1,1.69,2.63,15.9,15.9,0,0,0,1.53,2.19,8.89,8.89,0,0,1,1.17,2.67,28.33,28.33,0,0,1,1.65,6.26c.15,1.42.76,2.86-.08,4.17-.23.35-.51.71-.75,1.07s-1.1.94-1.17,1.33" transform="translate(-1073.83 -188.39)"/><path class="cls-1" d="M1386.33,435c.82.64,1.15,1.8,2,2.38a2.53,2.53,0,0,0,1.65.29,8.93,8.93,0,0,1,1.63,0,4.52,4.52,0,0,1,1.52.83c.25.16.74.73.94.82.68.32,1.06-.24,1.58-.55a5.28,5.28,0,0,0,1.12-.6,2.39,2.39,0,0,1,1.41-.63c1.1-.25,1.4.19,2.47.17" transform="translate(-1073.83 -188.39)"/><path class="cls-1" d="M1403,413.33a8,8,0,0,1,3.62-1.66,30.45,30.45,0,0,1,6-.34c1.43,0,2.78.32,4.19.34.57,0,2.78-.32,2.82.33" transform="translate(-1073.83 -188.39)"/><path class="cls-1" d="M1384.67,443.33a6.75,6.75,0,0,0,2.75-.25,5.55,5.55,0,0,1,2.58-.41,11,11,0,0,1,3,.26,8,8,0,0,0,1.9.07,15.43,15.43,0,0,0,2.45,0c.48-.09.71-.45,1.13-.61.63-.25,1.41-.36,2.07-.59,1.61-.56,3.54,0,5.11.36a13.5,13.5,0,0,0,3.18.15c.76,0,1.44-.47,2.19-.41.4,2.05-5.62,4-7.46,5a15,15,0,0,1-3.47,1.37c-4.11.93-8.33-.11-12.29-1.27-.57-.17-.73-.14-1.13-.72s-.56-1.73-1.34-1.61" transform="translate(-1073.83 -188.39)"/><path class="cls-1" d="M1401,444.67c-.88-.05-1.76.34-2.68.33h-2.17c-.79,0-3-.37-3.51.19l0-.19" transform="translate(-1073.83 -188.39)"/><path class="cls-1" d="M1408.33,435c1.09,2,2,3.77,4.22,4.57,1.37.5,3,1.65,4.45,1.76" transform="translate(-1073.83 -188.39)"/><path class="cls-1" d="M1383.33,439a7.63,7.63,0,0,1-3.21,4.34,21,21,0,0,0,1.88-1" transform="translate(-1073.83 -188.39)"/><path class="cls-1" d="M1436.67,415c-1.44.5-1,2.19-1,3.42a4.84,4.84,0,0,0,.25,1.58c.12.42.22,1-.3,1.16a2.38,2.38,0,0,1,1.38-1.83" transform="translate(-1073.83 -188.39)"/><path class="cls-1" d="M1427.33,445.33A5.21,5.21,0,0,1,1427,447a11.05,11.05,0,0,0-.34,2.48,14.16,14.16,0,0,0,.41,5.2,6.92,6.92,0,0,0,1.87,2.69,3.28,3.28,0,0,1,.9,1.27,5.11,5.11,0,0,0,1,.73,3.21,3.21,0,0,1,.45,2.22c0,2,.38,4.27-.31,6.14a68.43,68.43,0,0,1-3.49,8.3,19.39,19.39,0,0,1-2.28,3.58c-.63.75-1.53,1.37-2.25,2.08" transform="translate(-1073.83 -188.39)"/><path class="cls-1" d="M1382,456c-.13,1.24.61,2.44.68,3.67a15,15,0,0,1,0,3c-.44,2.65-3.52,2.06-4.76,4-.82,1.25-.7,3.3-1,4.77a16.32,16.32,0,0,0-.25,3.42,14.43,14.43,0,0,0,.4,3.53c.28,1.07.54,1.75-.43,2.52a3.32,3.32,0,0,0,0-.55" transform="translate(-1073.83 -188.39)"/><path class="cls-1" d="M1375,468.33c-.41.39-1.14.42-1.63.64-.86.37-1.67,1-2.5,1.4a7.16,7.16,0,0,1-2.2,1" transform="translate(-1073.83 -188.39)"/><path class="cls-1" d="M1428,456.33a5.33,5.33,0,0,1,4.34-1,7.22,7.22,0,0,1,3,1.67c.7.58,1.31,1.19,2.06,1.7a5.49,5.49,0,0,1,1.33,1.07c2,2.52,5.39,4.44,8.33,5.61a13.48,13.48,0,0,0,4.47,1,14.74,14.74,0,0,1,1.88,0c.76.12,1.56.49,2.31.67a16.89,16.89,0,0,1,4.64,2c.86.5,1.73.9,2.62,1.33a14.78,14.78,0,0,1,2.62,1.82,27.87,27.87,0,0,0,4,2.54c1.25.68,2.29,1.54,3.78,1.65s3.77,0,5.18,1a3.54,3.54,0,0,1,1.18,2.67" transform="translate(-1073.83 -188.39)"/><path class="cls-1" d="M1303.67,288.67c.46,1.94-4.06,1.15-4.91,1.62a7.49,7.49,0,0,1,2.47-1.31c-.37-.06-1,.13-.87.62.36,0,1,.51,1.33.44.61-.14.29-.56,0-.8-.57-.49-1.94-.07-2,.7.4.23.77-.15,1-.48v.21" transform="translate(-1073.83 -188.39)"/><path class="cls-1" d="M1336.33,288.33c-.16.78.51,1.41.29,2.29a7.37,7.37,0,0,1-1.54.31c.24,0-.95-.33-.74-.25a5.29,5.29,0,0,0-1-.36c-.76-.14-1.35.4-1.34-.65,0-.6.34-1,.39-1.61.76-.1,1.75-.86,2.44-.08s-.48,1.12-1.13,1.37c1.08,0,2.16-.05,3.24,0-.82-.27-1.5-.52-2.19-.06.06-1.19-1.85-.63-1.34.28a.85.85,0,0,0,.27-.79.51.51,0,0,0-.08.46c1.26-.27,2.5-.58,3.74-.91" transform="translate(-1073.83 -188.39)"/><path class="cls-1" d="M1372.33,418.33c.72.14,1.1-.49,1.67-.8a8.36,8.36,0,0,1,1.67-.61,12.93,12.93,0,0,1,3.83-.59,7.43,7.43,0,0,1,3.17.83,16.1,16.1,0,0,1,2.91,1.59,9.44,9.44,0,0,1-3.11,1.28c-.58.11-1.06.47-1.62.61-.73.18-1.53-.06-2.27.1-1,.2-2.52.61-3.5.19-.4-.16-.59-.75-.94-.91a7.74,7.74,0,0,0-1.81-.35" transform="translate(-1073.83 -188.39)"/><path class="cls-1" d="M1402.33,418.33c.85-1.07,2.18-1.29,3.35-1.65a3.94,3.94,0,0,1,1.56-.34c.75,0,1.37-.29,2.09-.35a13.29,13.29,0,0,1,1.67,0c.56,0,1,.29,1.53.36a16.72,16.72,0,0,0,2,0c.39,0,1.61.36,1.84.14-.67.62-1,1.53-1.76,2.1a7.68,7.68,0,0,1-4.42,1.1c-1.84,0-3.61.31-5.47.33a7.88,7.88,0,0,1-2.41-.33c-.5-.16-.84-.52-1.31-.67" transform="translate(-1073.83 -188.39)"/><path class="cls-1" d="M1376.33,418.33l-.27.06c-.49,1.38.62,2.36,1.94,2.28,1.48-.09,2-1,2-2.34,0-.75.21-1.3-.64-1.6a7,7,0,0,0-2.19-.07,2.09,2.09,0,0,0-1,.16c-.38.21-.3.35-.52.64-.37.49-.73.65-.6,1.34a2.72,2.72,0,0,0,2,1.87c1,.13,3,.23,3.36-1,.22-.71-.15-1.09-.44-1.59-.5-.84-.37-.75-1.5-.75-.81,0-1.15,0-1.55.82-.57,1.15.18,1.29,1.14,1.84" transform="translate(-1073.83 -188.39)"/><path class="cls-1" d="M1405.67,417c-.1.58-.57,1-.29,1.67a2.85,2.85,0,0,0,1.27,1,3,3,0,0,0,3.19-.17c.43-.35.76-.61.47-1.31a2.39,2.39,0,0,0-.85-.82,4.56,4.56,0,0,0-3.14-.72,6.17,6.17,0,0,0-1.34.58c-.43.35-.38.9-.32,1.44.14,1.3,1.9,1.29,3,1.34.94,0,2.2.19,2.63-.87.22-.54-.07-.92-.27-1.35a5.43,5.43,0,0,1-.43-1.4l-.28-.06" transform="translate(-1073.83 -188.39)"/><path class="cls-1" d="M1385.67,352.44c-3.94-.95-7.05-1.17-10.84.23-3.58,1.32-5.15,5.13-6.1,8.44a1.53,1.53,0,0,0-.9,1.27c0,.79.07,1.57.14,2.35-.35,1.14-1.23,1.38-2.22,2.08a14.76,14.76,0,0,0-5.74,6.8c-.9,2.13-.4,3.61-1,5.55-1.74,6.15-7,9.55-6.72,16.68.14,3.38,1.32,4.87,3,7.66,1.15,1.9,5.41,6.61,4.74,8.94" transform="translate(-1073.83 -188.39)"/></g></svg>