<svg xmlns="http://www.w3.org/2000/svg" viewBox="0 0 729.89 437.67"><defs><style>.cls-1{fill:none;stroke:#000;stroke-miterlimit:10;}</style></defs><title>women</title><g id="Hair"><path class="cls-1" d="M551.67,162a43,43,0,0,1,3.66,5A47,47,0,0,1,561,180.33,75,75,0,0,1,563.33,197c.32,5.73.15,11,1.67,16.33a19.57,19.57,0,0,0,3,6.67c1.34,1.84,2.84,3.13,2.67,3.33-.32.39-5.57-4.42-7-3.33-1,.74.23,3.88.66,5,1.85,4.81,5,7.3,4.67,7.67s-1.86-.58-8-5c4.09,4.57,7.09,8.22,6.67,8.66-.65.67-8-7.34-10.67-5.66-3,1.83,1.64,14,3.67,16.66.27.36.47.6.47.6,2,2.44,3.38,2.58,3.86,3.74.57,1.36-.42,3.46-1.67,4.33-2.22,1.56-6.74.22-10.66-4a20,20,0,0,1-1,8.33c-5.69,16.07-32.73,20.5-34.67,17-.74-1.32,1.82-4.38,2.33-5a15.66,15.66,0,0,1,5.67-4c4.52-2.3,7.06-5.93,9.67-9.66,1.32-1.9,2.3-3.81,5.33-15s4.53-16.83,4-19.67c-.72-3.85-3.59-7.68-9.33-15.33-6.1-8.13-10.4-11.48-12-12.67-4.07-3-4.88-2.62-7.67-4.67-11.76-8.63-11.2-25.85-14.33-25.66-1.55.09-3,4.37-3,8.33,0,10.36,10.25,17.15,9,18.67-.8,1-5.59-.94-9.67-4.34-7.14-5.94-9.7-14.46-10-14.33s5.4,11.4,3,13.33-10.76-6-12-4.66,5.82,10.22,5.67,10.33-9.08-13.66-12.34-12.33c-2,.8,0,6.44-1.33,16s-5.3,18.27-7.67,18S460.26,204.45,457,204c-1.67-.23-3.72,2.12-4.33,4.33-.48,1.73,0,3,.66,5.34,1.39,5,.41,3.72,2.34,11.33,1.58,6.27,2.29,7.29,3.33,8,.21.14.36.22,4,2,2.39,11.84,2.76,13.24,3.67,15.33,2.35,5.39,4.37,6.26,3.66,8-1.33,3.3-10.17,4.2-16.33.67a12.94,12.94,0,0,1-5.33-5.33c-3.51-6.81,1-14.15,1.33-14.67a13.16,13.16,0,0,1-9,2.33,12.4,12.4,0,0,1-5.14-1.87,5.11,5.11,0,0,0-.19-3.46c-1.3-2.7-5.38-3.08-5.34-3.33.11-.55,19.39,3.5,20,1.66.68-2-21.51-11.94-21.33-12.33s12.47,7.06,17.33,3c1.48-1.23,1.8-3.12,2.34-6.33a37.93,37.93,0,0,0-.34-13,79.41,79.41,0,0,1-.33-17c.53-5.45,1.68-17.24,10.33-23.67a20.57,20.57,0,0,1,5.67-3Z" transform="translate(-251.83 -133.06)"/><path class="cls-1" d="M628,229a6.64,6.64,0,0,1-5,1.67c-.51-.06-2-.29-5.67-3.67-2.46-2.26-3.7-3.4-4.66-5a18.31,18.31,0,0,1-2.34-10c.06,0,.84,2.22,0,3s-4-.05-6-2c-2.81-2.79-2.31-6.61-4.33-7-1.06-.21-1.65.77-2.67.33s-1.43-2.11-1.66-3.33a16.13,16.13,0,0,1,0-5.33c3.82-2.59,4.46-4.45,4.33-5.67-.3-2.79-4.76-3.52-5.67-7.67a5,5,0,0,1,.34-3.66c.39-.64,1.28-1.63,7.33-3,3.5-.8,4.52-.77,5-1.67.75-1.4-1-2.88-1.33-5.33-.3-1.9.15-4.73,3.66-8.63H750a32.89,32.89,0,0,1,2,6c.77,3.32,1.21,7.54.67,7.67s-2-3.49-1.67-3.67,2.77,3.39,4.33,6a43.93,43.93,0,0,1,2.34,4.33c.74,1.62,4.2,9.17,3,17.67-.07.46-.38,2.08-1,5.33-1,5.23-1.2,5.9-1.34,6.34-1.32,4.26-3.23,6.51-3,6.66a2.92,2.92,0,0,0,1.67-2.66c-.21-1.19-1.75-1.14-3-2.67-1.65-2-.76-4.21-1.67-4.67-1.68-.84-6.66,2.2-7,6.34a6.67,6.67,0,0,0,1.34,4.33,9.63,9.63,0,0,0,4.66,3c0,.1-7-3.62-9-1.67-.39.39-.66,1.06,0,5.34.91,5.89,1.88,7.64,1.34,8-1,.68-7.57-4-8.67-10.67-.88-5.31,2.2-8.79.67-10s-6.27.82-7.67,4.33a7.87,7.87,0,0,0,0,5c1.34,5.38,5,5.86,5.33,9.34.36,3.83-3.74,7.21-6.33,9.33a26.27,26.27,0,0,1-8.33,4.33c-4,1.47-6,2.24-7,1.34-1.48-1.4,1.3-5.2,3.33-12.67a63.26,63.26,0,0,0,2-15c.37-9.77-1.52-10.42,0-15.67,1.7-5.89,4.9-7.86,3.67-10.66s-4.83-2.07-8-6c-1.76-2.19-1.72-3.73-2.67-6-2.5-6-9.14-10.42-14.67-11.67-6.67-1.5-7.94,2.47-20.33,3-6.42.27-6.56-.78-11.33,0-2.71.44-13.24,2.15-15.67,8.67-1.4,3.75,1.14,5.76-.67,8.66-2.32,3.73-7.18,1.5-11.33,5-5.59,4.72-2.89,13.93-6,14.67-2.77.66-6.57-6.23-7-7-4.08-7.38-3.57-14.69-4-14.67s.66,6-.67,14c-.8,4.84-2,7.27-1,11.34.42,1.75,1.07,4.49,3.34,6,3.08,2.05,6-.24,8,1.66S630.52,226.58,628,229Z" transform="translate(-251.83 -133.06)"/><path class="cls-1" d="M759,231c3.52-2,3.7-3.08,6.33-4.33,3.49-1.67,4.78-.52,12-1,5.43-.36,9.85-.66,15-2.67,3.7-1.44,4.76-2.6,7.34-2.33,1,.1,2.14.41,8,3.66,2.4,1.34,4.15,2.37,4.66,2.67,4.51,2.64,8.11,4.42,12.67,6.67,8.32,4.1,8.59,3.71,10.33,5.33a21.89,21.89,0,0,1,5.67,9.67c.92,2.72,2.87,8.47,1,14.66-1.23,4.06-3.28,5.62-2.33,7.34,1.05,1.9,4.89,2.37,7.66,1.33s3.74-3.32,4.34-3c.81.44.12,5.28-3,9-3,3.57-7.2,4.87-7,5.33s4.9-2.16,7.33-.33c1.15.87,1.34,2.92,1.67,7,.29,3.66.44,5.49,0,7-.62,2.12-2.31,4-5.67,7.67a32.78,32.78,0,0,1-4,4c-2,1.53-2.7,1.56-7.33,4-5,2.62-5.16,3.11-6.34,3-2.63-.26-2.69-2.77-7-5.67-3.78-2.54-5.26-1.63-6.66-3.67-2.12-3.07.64-6.06-1.34-9-1.78-2.64-5.79-2.86-8.33-3-5.53-.29-6,1.89-12.67,2.67a122.41,122.41,0,0,1-13.66.33c-2.74,0-5-.1-6,1.34-1.12,1.66.2,8,0,6h0c1.75,1.26-3.37-2.78-5.34-3.67-3.6-1.62-8.72-1.28-10,1-.69,1.25.16,2.37.67,4.67,1,4.44.25,11.24-3.67,14-5,3.52-12.89-1.19-13.66-1.67-1.3-.8-5.49-3.37-6.67-8-1.06-4.16,1.4-5.74,0-8.67-1.87-3.91-6.92-2.47-9-6.66-1.47-3-.4-6.64,0-8a20.17,20.17,0,0,1,2.33-4.67c3-5.28,5.48-11.49,4.67-12-.53-.34-2.24,2-2.67,1.67-.6-.42,2.68-5.24,5-11,3.41-8.43,1-9.64,4-15.34.72-1.37,4.81-8.89,12.67-12C753.06,233.13,755.05,233.23,759,231Z" transform="translate(-251.83 -133.06)"/><path class="cls-1" d="M606,241.33c-2.83,1.14-6.57-4.33-9-3-2,1.07-1.19,5.5-2.33,5.67s-1.64-3.83-4-4.33-4.53,2.48-4.67,2.66c-.88,1.15-.7,1.62-2,5.67-.94,2.91-1.42,4.39-2.33,5.67-.39.54-1.15,1.36-2.67,3a27.63,27.63,0,0,0-2.67,3,13.73,13.73,0,0,0-1.66,3.33c-1.9,5.29-3.51,17-3.67,17a25.76,25.76,0,0,1,.33-4.67,32.81,32.81,0,0,1,1-5c.17,0-3.55,18.21-3,18.34a8.33,8.33,0,0,0,1-2.67,11.31,11.31,0,0,0-2.33,6.67c0,4,2.61,6.5,2,7s-3.17-1-3.67-3c-.58-2.38,4.18-2.92,6.67-7.67,1.36-2.59.42-3.12,2-6a12.57,12.57,0,0,1,5.67-5.67c3.14-1.43,6.86-1.25,7-.66s-2.32,1.91-3,1.33c-.87-.73.93-4.74,3.66-7.33,1.17-1.11,2.41-2.28,3.67-2,2.19.49,2.22,4.89,3.67,5,1.65.12,2-5.65,5-6.67,2.68-.9,4.45,2.92,10,5,6.31,2.38,13.64,1.05,14-.67.26-1.27-3.23-3.13-3.34-3s2.92,2.17,7.34,6.34,6.87,6.48,9,9.66c4.64,7,6.16,15.56,7,20.34.76,4.32,1.11,8.61,3,9,1.71.35,2.93-2.91,6-3,2.72-.09,3.65,2.41,5,2,2.78-.86-1.71-11.37,1.66-24.34,1.07-4.11,2.87-8.23,1-10-1.56-1.48-4.33,0-7-2-1.55-1.14-1.86-2.56-2.66-4.33-1.83-4-6.33-7.79-15.34-15.33-2.58-2.16-2.8-2.24-3.33-3-3.58-5.16.17-10.83-2.67-13.34-2.63-2.32-7.43,1.18-9.66-1.33-1.71-1.91.47-4.63-1.34-7s-6.11-3-8.66-1.33C606.81,233.2,609,240.13,606,241.33Z" transform="translate(-251.83 -133.06)"/><path class="cls-1" d="M689,215c.12-1.5,3.61-2.66,6.33-2.67,1.12,0,2.52.19,5.67,1.67,2.7,1.27,8.76,4.1,8.33,5.67S703,221,698.67,220C694.8,219.16,688.84,217,689,215Z" transform="translate(-251.83 -133.06)"/><path class="cls-1" d="M649.33,208c.17-1.32,6.44-1.57,9-1.67s3.85-.14,5.34.34c3.87,1.24,7,5,6.33,6.33s-5.27.34-9.67-.67C659.66,212.18,649.11,209.74,649.33,208Z" transform="translate(-251.83 -133.06)"/><path class="cls-1" d="M692.33,207.67" transform="translate(-251.83 -133.06)"/><path class="cls-1" d="M695,209.67c2,0,4-.07,5.73.9a12.93,12.93,0,0,0,2.95,1.36A7.26,7.26,0,0,0,705,212c.58,0,1.07.35,1.67.34" transform="translate(-251.83 -133.06)"/><path class="cls-1" d="M664.33,208.33c0,1.3,0,2.63-1.33,3.18a7.35,7.35,0,0,1-3.67.09,2.62,2.62,0,0,1-1.94-2.27c-.08-1.06,2.13-2,2.24-1.41a1.17,1.17,0,0,0-.65.29,1.5,1.5,0,0,1,1.58-1.55c-.86,0-1.91-.14-2.57.49s0,1.33.07,2.12l.27.06" transform="translate(-251.83 -133.06)"/><path class="cls-1" d="M661.33,208c-.5.1-.62.57-1.15.68s-1.33.13-1.54-.32-.06-1.33.35-1.41,1.08,1,1,1.28a1.43,1.43,0,0,1,.07-.87c.2-.05.29,0,.25.31" transform="translate(-251.83 -133.06)"/><path class="cls-1" d="M624,207.67c.13-1.29-.73-2.15-1.15-3.3-.22-.57-.25-1.32-.51-1.88-.17-.36,0-.66-.6-.44-.27.1-.41.65-.49.84a3.61,3.61,0,0,0-.33,2.78A8.47,8.47,0,0,0,622,208c.32.44.57.43.7,1a8.58,8.58,0,0,1,0,1,2.19,2.19,0,0,0,1.69,1.61c.66.17,1.9-.75,2.32-1.29" transform="translate(-251.83 -133.06)"/><path class="cls-1" d="M692,234.67c-.09.58.28,1,.5,1.55.32.77.4,1.63.74,2.39s.77,1.61,1.18,2.41c.3.59.71,1,1,1.56a6.12,6.12,0,0,0,1.07,1.58,5.14,5.14,0,0,1,1.43,1.91,8.66,8.66,0,0,1,.08,2.1,9.14,9.14,0,0,1-.07,2.16c-.08.31-.16.71-.25,1-.13.49-.68.82-.68,1.34" transform="translate(-251.83 -133.06)"/><path class="cls-1" d="M702.67,250.33c-.64.14-1,.93-1,1.51s.59,1.89,1.35,1.83" transform="translate(-251.83 -133.06)"/><path class="cls-1" d="M651.33,242.33a11.09,11.09,0,0,1,2.83.17,12.66,12.66,0,0,0,2.17.51,11.93,11.93,0,0,1,4,.65A21.75,21.75,0,0,0,664,245a7.55,7.55,0,0,1,1.54.52,4,4,0,0,1,1.83,1.7c.89,1.72.53,3.94.29,5.76" transform="translate(-251.83 -133.06)"/><path class="cls-1" d="M663.33,247c0,.31,0,.7,0,1,0,.1.27.73.27.74,0,.55-.28.91-.27,1.58" transform="translate(-251.83 -133.06)"/><path class="cls-1" d="M660,245.67l-.28.05a5.19,5.19,0,0,0,0,2.22l.28.06" transform="translate(-251.83 -133.06)"/><path class="cls-1" d="M673,249c.11.74.58,1.42.68,2.17a17.31,17.31,0,0,1,0,2.16" transform="translate(-251.83 -133.06)"/><path class="cls-1" d="M678.33,250c1,.83,0,2.7,0,3.67" transform="translate(-251.83 -133.06)"/><path class="cls-1" d="M681.33,249.67a6.27,6.27,0,0,1,.34,2c-.06.44-.45.89-.34,1.33" transform="translate(-251.83 -133.06)"/><path class="cls-1" d="M685,249.67V253" transform="translate(-251.83 -133.06)"/><path class="cls-1" d="M665.33,246.33a13.15,13.15,0,0,0,2.94,1.34c.76.23,1.55.44,2.32.66a18.28,18.28,0,0,0,5.08.34h6.43c2.45,0,4.8.09,7.23.33" transform="translate(-251.83 -133.06)"/><path class="cls-1" d="M692.33,250a2.52,2.52,0,0,0-1.3.39,14,14,0,0,1-2.89,1.38c-1.31.35-2.53.75-3.85,1a34.89,34.89,0,0,1-10,1.2,19.59,19.59,0,0,1-5.07-1.18c-.82-.31-1.61-.91-2.41-1.15a22.82,22.82,0,0,1-2.57-1,35.44,35.44,0,0,1-4.78-2c-1-.6-2.1-1.08-3.08-1.74-1.2-.8-2.84-2.28-4.37-2.27,1.26-.09,1.52,1.34,2.39,2.05,1.66,1.36,3.26,2.77,4.9,4.14a44.46,44.46,0,0,0,4.38,3.73,10.09,10.09,0,0,0,3.68,1.68c1.19.21,2.34.32,3.53.56a22.26,22.26,0,0,0,3,.2,20.37,20.37,0,0,0,4.2.28c2.49-.32,4.8-1.55,7.18-2.31a26.1,26.1,0,0,0,5.43-2.47c.79-.46,1.6-.89,2.36-1.39.57-.37,1.28-1.47,2-1.47" transform="translate(-251.83 -133.06)"/></g><g id="Faces"><path class="cls-1" d="M709,249a53.08,53.08,0,0,1-3.33,6.33,55.32,55.32,0,0,1-9,11A64.28,64.28,0,0,1,683,276.67c-4.66,2.6-7.09,3.15-9,3.33a19.35,19.35,0,0,1-8-1,24.94,24.94,0,0,1-11.33-7.67" transform="translate(-251.83 -133.06)"/><path class="cls-1" d="M488.67,209.17c-.07.63.62,1.7,1.34,1.47a.87.87,0,0,0,.08-1.55c-.83-.5-1.54,1.27-.76,1.27.4,0,.67-1,.34-1.06s-.52.64-.21.69a.4.4,0,0,0,0-.32" transform="translate(-251.83 -133.06)"/><path class="cls-1" d="M526.33,214.83l-.13,0c-.07.19-.11.57.1.63a.55.55,0,1,0-.45.16c.69.29.66-1.21.18-1-.08.29-.13.78.17,1,.21-.34.54-1.18,0-1.41s-1,.51-.91.92c.12.06.36.24.5.22.31,0,.46-.66.24-.84-.4-.34-.91.65-.72,1,.2,0,.28-.29.31-.49" transform="translate(-251.83 -133.06)"/><path class="cls-1" d="M486.67,207.67c-.84-.15-.84,1-.84,1.5a2.82,2.82,0,0,0,.24,1c.15.42,0,.9.43,1.18" transform="translate(-251.83 -133.06)"/><path class="cls-1" d="M492.83,208.33a5.74,5.74,0,0,0,.39.93,2.32,2.32,0,0,1,.11.83,2.26,2.26,0,0,1-.28,1.25,2.38,2.38,0,0,1-.72.66,6.38,6.38,0,0,1-1.33.67" transform="translate(-251.83 -133.06)"/><path class="cls-1" d="M496.67,212.67c-.28-1.44-2-3.19-3.09-4.09a5.92,5.92,0,0,0-.89-.62,4.85,4.85,0,0,0-1.58-.45c-.72-.11-1.42-.26-2.13-.41-1.16-.25-2.39.28-3.56.3a14.94,14.94,0,0,0-3.17.62c-.47.11-2,.27-2.27.75-.15.26-.08.17,0,.42s.47.24.53.27c1.82.94,3.87,1.44,5.72,2.34a14.9,14.9,0,0,0,1.62.49,10.16,10.16,0,0,0,2.43.74c1.05.07,1.94.31,3,.3h4" transform="translate(-251.83 -133.06)"/><path class="cls-1" d="M518.67,215.33l-.07.27a1.38,1.38,0,0,0-.85.4,10.71,10.71,0,0,0,3.43.33,9.77,9.77,0,0,1,1.82.35,5.26,5.26,0,0,1,1.65.32,3.91,3.91,0,0,0,1.85.33,20.54,20.54,0,0,0,4,0c1-.2,3.55-.85,3.81-1.9l-.31-.07" transform="translate(-251.83 -133.06)"/><path class="cls-1" d="M476.33,203c.21-.86,1.89-1.37,2.67-1.67s1.66-.22,2.47-.48a7.47,7.47,0,0,1,1.35-.49c.49-.07,1,0,1.46,0,.94-.05,1.75-.34,2.73-.34a12.86,12.86,0,0,1,5,.76c.64.28,1.38.35,2,.64a17.37,17.37,0,0,0,1.82.95c-1.2-.08-2.36.28-3.3-.5a5.51,5.51,0,0,0-2.19-1.19c-.54-.16-1.74-.91-2.26-.61.54.76,1.4.45,2.13.64s1.44.74,2.4.67c-.57-.26-2-.73-2.32-1.25.9.17,1.81.33,2.72.48a1.4,1.4,0,0,1,1.12.28,18.37,18.37,0,0,1-1.65-1.39,3.33,3.33,0,0,0-1.69-.55l-3.06-.73c-1-.23-1.42-.38-2,.47a9.61,9.61,0,0,0-.4,1A29.55,29.55,0,0,0,490,199c-1.16.1-2.34,0-3.5,0a15.18,15.18,0,0,0-4.13,1c.42,0,.83,0,1.24,0a4.79,4.79,0,0,0-2.48.55c.64-.53,1.57-.34,2.19-.88" transform="translate(-251.83 -133.06)"/><path class="cls-1" d="M520.67,204.67c2-.26,4.89,2.16,6.59.34-1.13-.11-2.24-.3-3.35-.48a4.54,4.54,0,0,0-2.25-.15c.66.52,1.66.38,2.24,1-.3.13-1.21.23-1.19.62a16.61,16.61,0,0,0,4.24-.63,2.53,2.53,0,0,0-.91.06,20.49,20.49,0,0,0,3.8.77,8.15,8.15,0,0,0,2.65.16,1,1,0,0,0-.82.36" transform="translate(-251.83 -133.06)"/><path class="cls-1" d="M487.28,210.47a.68.68,0,0,0-.32.2c-.79,1,1.81,1.48,2.35,1.51a4.62,4.62,0,0,0,1.43-.15c2.94-.82-.27-1.55-1.5-1.63A5.74,5.74,0,0,0,487.28,210.47Z" transform="translate(-251.83 -133.06)"/><path class="cls-1" d="M519.33,214.67c.5.07.67-.11,1.13-.32s1.28-.4,1.84-.7.81-.5,1.28-.73c.84-.41,1.8-1.09,2.75-.84,1.25.32,2.17,1.33,3.34,1.84.43.19,1,.23,1.34.4s.73.76,1.27.9a.57.57,0,0,0,.05-.55" transform="translate(-251.83 -133.06)"/><path class="cls-1" d="M532.33,211.67c.23-.71-1.45-1.44-2-1.67a11.68,11.68,0,0,1-1.66-.92,3.35,3.35,0,0,0-2.08-.41,9.67,9.67,0,0,0-3.4.37A15.08,15.08,0,0,0,521,210a5.81,5.81,0,0,0-2,2.35" transform="translate(-251.83 -133.06)"/><path class="cls-1" d="M688,215.33c-.94-.28-1.55,1.66-1.83,2.32a31.57,31.57,0,0,0-1,3.85,21.73,21.73,0,0,0-.49,5.83,3.11,3.11,0,0,0,.26,1.07c.13.53,0,1.08.06,1.62a2.9,2.9,0,0,0,1.35,1.9A9.93,9.93,0,0,1,688,233.5a3.75,3.75,0,0,1,1,2c.21.74,1.18,1.95.58,2.78a6.19,6.19,0,0,1-.93.4c-.41.16-.89.21-1.34.4-.86.36-1.77.33-2.67.66a4,4,0,0,0-1.27.66c-.43.43-.42,1-1,1.37a5.79,5.79,0,0,1-3.26.9,3.66,3.66,0,0,1-2.36-1c-.77-.53-1.39-1.15-2.12-1.74a15.89,15.89,0,0,0-2.27-1.34c-1.43-.83-2.79-1.91-4.23-2.74a3.86,3.86,0,0,1-1.27-.84,5.61,5.61,0,0,1-.66-1.26,5,5,0,0,1-.19-3.1c.53-1,2.05-1,2.94-1-.76-.88-3-.18-3.83.19a41.88,41.88,0,0,0-5,2.9,35.73,35.73,0,0,0-4.64,2.88,3.33,3.33,0,0,1-1.44.78c-.13,0-.2.22-.39.27s-.57-.06-.85,0a5,5,0,0,1-1.5.31,2.15,2.15,0,0,0-1.33.33,4.39,4.39,0,0,0-1.65,1.19,8.37,8.37,0,0,0-1.62,2.88c-.18.67-.39,3.13.6,3.27" transform="translate(-251.83 -133.06)"/><path class="cls-1" d="M703,215.33c0,2.31-2.13,5.63-4.76,3.76a3.4,3.4,0,0,1-.91-1.42,7,7,0,0,1-.59-1.41c-.12-.62-.3-1.75.24-2.2a3.57,3.57,0,0,1,2-.39c-.1.06.48,1.79.38,1.86a.26.26,0,0,1,.13-.23,2.91,2.91,0,0,0-.19.59,3.47,3.47,0,0,0,0-.56" transform="translate(-251.83 -133.06)"/><path class="cls-1" d="M647.67,203.67a3.62,3.62,0,0,0,1.68-.34c.43-.19.82-.21,1.24-.4s.82-.51,1.34-.68.94-.31,1.41-.5c2.2-.9,5.19-.47,7.49-.07.5.09,1-.06,1.5.06s.87.48,1.32.6.55.06.88.19a4.69,4.69,0,0,0,1.15.49,14.56,14.56,0,0,1,1.65.24,10.82,10.82,0,0,1,1.68.32,6.52,6.52,0,0,0,1.32.42c1.11.23,2.17.48,3.29.73l0,.27" transform="translate(-251.83 -133.06)"/><rect class="cls-1" x="28.21" y="28.98" width="672" height="372"/><polygon class="cls-1" points="0.5 0.5 729.39 0.5 729.39 437.17 0.5 432.72 0.5 0.5"/><path class="cls-1" d="M257.89,51.33" transform="translate(-251.83 -133.06)"/><path class="cls-1" d="M481.5,255.75c-.76.26-1.09-2.17-1.25-2.69a8.1,8.1,0,0,1-.26-.79c-.09-.41.08-.84,0-1.27a6.38,6.38,0,0,1-.46-1.75,12.59,12.59,0,0,1,.06-3c.22-.85.37-1.74.56-2.61a6.72,6.72,0,0,1,1-2.25,9.13,9.13,0,0,1,3.1-3.31,16,16,0,0,0,4-2.81c1.63-1.59,3.26-2.92,4.26-5" transform="translate(-251.83 -133.06)"/><path class="cls-1" d="M520.75,249.5a22.62,22.62,0,0,0-2.61,0,4.13,4.13,0,0,0-1.63-.45c-.7-.12-1.27-.23-2-.37s-1.51-.34-2.26-.5a19.24,19.24,0,0,0-2.76-.7,15.49,15.49,0,0,0-1.67,0c-.59,0-1.1.23-1.68.26a9,9,0,0,1-1.56,0,14.26,14.26,0,0,1-1.81-.73c-1-.29-2-.64-3-1a7.18,7.18,0,0,0-1.78-.23,13.18,13.18,0,0,0-2-.26,13.51,13.51,0,0,1-1.56,0c-1.36-.15-2.67-.7-4-.75a23.29,23.29,0,0,0-3.24.15,24,24,0,0,0-3.18.18c-.59.14-.43.87-1,.94,1.65,0,3.31,0,5,0s3.05.7,4.54,1a12.72,12.72,0,0,1,3,1.31c.46.22,1,.25,1.47.43a9.74,9.74,0,0,0,1,.31c.58.15,1.11.1,1.69.21.74.15,1.57.28,2.33.48a23.5,23.5,0,0,0,2.86.73,21.27,21.27,0,0,0,2.25.28,10.39,10.39,0,0,1,1.67.05,17.38,17.38,0,0,0,1.91.18c.5,0,1,.24,1.45.27a24.77,24.77,0,0,0,5-.52,14.87,14.87,0,0,1,2.11,0,6.73,6.73,0,0,1,1.74.05,7.32,7.32,0,0,1-2.29,1,24.23,24.23,0,0,0-3,1.37c-1.33.76-2.85,1-4.17,1.83a18.68,18.68,0,0,1-2.52,1.18,13.44,13.44,0,0,1-2.34,1c-1.12.26-2.33-.12-3.45,0a10.09,10.09,0,0,1-2.13.26,6.82,6.82,0,0,1-2.15-.59c-1.51-.63-3-1.26-4.46-2-.64-.33-1.39-.55-2.05-.87a7.47,7.47,0,0,1-1.59-.7c-.48-.38-1-.76-1.45-1.12-.29-.22-.57-.36-.86-.55a8.5,8.5,0,0,1-1.05-.94,8.61,8.61,0,0,1-1.7-2.25c-.57-1-1.52-2.17-2.81-2,.57.56.36,1.59.83,2.24s.88,1,1.24,1.55a22.28,22.28,0,0,0,1.67,2.72c.41.47.92.77,1.3,1.23a14.77,14.77,0,0,0,2.22,1.95c.64.51,1.23,1,1.85,1.56A17.79,17.79,0,0,0,494,258.8a22.25,22.25,0,0,0,2,1.1,12.93,12.93,0,0,0,2.63.78,24.62,24.62,0,0,0,2.5.51,5.65,5.65,0,0,0,2.13,0c1.51-.34,3.09-.26,4.6-.69a18.27,18.27,0,0,0,2-.5,2.3,2.3,0,0,1,.9-.24,3,3,0,0,0,1.57-1c.42-.47.71-1,1.17-1.45a7.44,7.44,0,0,1,1.06-.87c.28-.19,1.36-.48,1.39-.88l-.38-.05" transform="translate(-251.83 -133.06)"/><path class="cls-1" d="M493,249.75a6.86,6.86,0,0,0,.28,3.1c.52,1,1.72,1.32,2.72,1.59.75.21.76-.1.75-.75s.07-1.15,0-1.7-.48-.93-.09-1.32,1,0,1.48.06a9,9,0,0,0,1.47,0,3.32,3.32,0,0,1,.77,0c.48.14.2.08.36.51a8.52,8.52,0,0,1,.25,3c0,.43.19,1.09-.23,1.27a6.51,6.51,0,0,1-2,0c-.55,0-1-.26-1.55-.26s-1.15-.09-1.27-.69a6,6,0,0,1,1-.31" transform="translate(-251.83 -133.06)"/><path class="cls-1" d="M506,252v2c0,.6.23,1.76-.17,2.28s-1.69.23-2.33.23a7.61,7.61,0,0,1-2,0c-.79-.35,0-3,0-3.77,0-.45-.2-1.33.23-1.52a7.86,7.86,0,0,1,2.27,0" transform="translate(-251.83 -133.06)"/><path class="cls-1" d="M510.25,251.75c0,.54,0,1.08,0,1.63s-.34,1.17-.25,1.62" transform="translate(-251.83 -133.06)"/><path class="cls-1" d="M493.25,252a5,5,0,0,1,.5,1.23c-.49.13-.76-.08-1.17-.23a10.06,10.06,0,0,1-1.11-.3c-.46-.21-.78-1-1-1.44a4.77,4.77,0,0,1-.5-1.95c0-.52,0-1,0-1.56a15.79,15.79,0,0,1,3,1.31v.19" transform="translate(-251.83 -133.06)"/><path class="cls-1" d="M516.25,233.5a19.57,19.57,0,0,1,0,2.76,7.59,7.59,0,0,0-.26,1.49c0,.89-.27.86-1,1.18a5.18,5.18,0,0,1-2.92.33c-.4-.06-.67-.23-1.08-.27s-.67,0-1,0a3.46,3.46,0,0,0-1.51.44c-1.06.45-2,1.57-3.37,1.29a10.27,10.27,0,0,1-1.87-.48,9.46,9.46,0,0,1-1.88-1.5,8.06,8.06,0,0,0-2.58-1.57A2,2,0,0,0,498,237h-1.24c-1.09,0-2.46.24-3.46-.3a4.4,4.4,0,0,1-1.69-2.71,2.35,2.35,0,0,1,.37-2.29,3.38,3.38,0,0,1,.7-.85l.78-.35a1.69,1.69,0,0,0,.54-.75" transform="translate(-251.83 -133.06)"/><path class="cls-1" d="M510.75,211.5a48.81,48.81,0,0,0-1.1,5.81,16.31,16.31,0,0,0-.4,3.34c0,.75-.23,1.44-.26,2.19a23.5,23.5,0,0,0,1,6.5,9.65,9.65,0,0,0,1,2.63,3.48,3.48,0,0,0,1.74,1.28" transform="translate(-251.83 -133.06)"/><path class="cls-1" d="M518.25,236c-.21.61.84,1.75,1.24,2.13.92.87,1.86,1.72,2.76,2.63s2.19,1.69,3.07,2.74a6.6,6.6,0,0,1,1.72,3.61,16.81,16.81,0,0,1,.21,2.65,4.32,4.32,0,0,1,0,.88c0,.22-.18.32-.24.51a4,4,0,0,1-.42,1.2c-.27.44-.68.68-.61,1.34.06-1.27,0-2.54,0-3.81a5.3,5.3,0,0,0-.53-2.58,7.61,7.61,0,0,1,.54,4.14,5.51,5.51,0,0,1-.7,1.61c-.33.7-.62,1.38-1,2.07a17.61,17.61,0,0,0-1,2.12c-.08.26-.06.54-.13.78s-.21.22-.24.38c-.07.39.08.83,0,1.22a3.3,3.3,0,0,1-1,1.56,4.07,4.07,0,0,1,0-.93" transform="translate(-251.83 -133.06)"/><path class="cls-1" d="M457.25,205c-.26-1.34-2.87,1.26-3,1.44a6.88,6.88,0,0,0-.81,2.25,5.77,5.77,0,0,0-.18,2.07,8.61,8.61,0,0,0,1,2.81c.47,1.12,1.12,2.14,1.51,3.28.24.72.33,1.45.55,2.17s.49,1.14.7,1.71a22.41,22.41,0,0,1,.93,3.51c.14.75.22,1.51.37,2.25.1.54.38,1,.45,1.51,0,.25-.05.53,0,.79a5.14,5.14,0,0,0,.47,1.22,15.4,15.4,0,0,0,.51,1.85c.58,1.19,5,4.46,5.93,2.78.24-.45.06-1,.13-1.51.05-.32.29-.6.28-.94,0-.88-1.43-2.58-1.8-3.19" transform="translate(-251.83 -133.06)"/><path class="cls-1" d="M462,216.75h-.15c.13-.06.21-.22.31-.31-.37-.57-.89-1.1-1.29-1.66a3.53,3.53,0,0,0-.81-.87,2.58,2.58,0,0,1-.86-.65,5.81,5.81,0,0,1-.75-1.52,23.37,23.37,0,0,0-1.13-2.75c-.79-1.37-2,.29-2.08,1.27-.1,1.67.84,3.45,1.64,4.86a9.74,9.74,0,0,1,.68,1.87,9.4,9.4,0,0,1,.21,1.38,7.75,7.75,0,0,0,4.49,5.81c1-.7.52-4.66-1-3.53a2.28,2.28,0,0,1,0-1.13,1.9,1.9,0,0,0,1.17-.58c.28-.43.13-1,.54-1.45" transform="translate(-251.83 -133.06)"/><path class="cls-1" d="M465.25,234a12,12,0,0,0,.25,2c.08.94.24,1.86.26,2.8,0,1.69,0,3.4,0,5.09a8.49,8.49,0,0,0,.2,2.38c.09.33.07.65.16,1a16.43,16.43,0,0,0,.9,2c.48,1.08.81,2.23,1.3,3.32.25.57.64,1.1.92,1.66.41.82,1.15,1.45,1.48,2.29a5.62,5.62,0,0,0,.8,1.28c.22.33.28.74.48,1.08a12.39,12.39,0,0,0,1,1.12c.49.62.86,1.34,1.29,2,1,1.62,1.95,3.31,2.94,4.94.69,1.13,1.44,2.16,2.05,3.34,1.32,2.55,2.68,5.43,5,7.21a20.77,20.77,0,0,0,5.2,2.71,34.5,34.5,0,0,0,4.64,1.23c1.25.26,2.41-.18,3.64-.2,1.46,0,3-.09,4.44,0,1,.05,1.93.23,2.93.25.67,0,1.34.32,2,.28.82,0,1.28-.7,1.88-1.2.78-.66,1.69-1.15,2.46-1.8.4-.34.66-.86,1.07-1.19a8.25,8.25,0,0,1,1-.5c.75-.49,1.21-1.39,2-1.85s2.21-1.93,3.24-1.73" transform="translate(-251.83 -133.06)"/><path class="cls-1" d="M540.25,242.75c0,.57-.07.54.43.82a4,4,0,0,0,1.44.43,19.49,19.49,0,0,0,2.64.25,3.52,3.52,0,0,0,1.17,0c.46-.14,1-.73,1.31-1A6.22,6.22,0,0,0,549,241a16.88,16.88,0,0,1,1.72-2.48,45.1,45.1,0,0,0,2.8-4.29,11.88,11.88,0,0,0,1.41-3.73c.31-1.21.78-2.4,1-3.63a8.19,8.19,0,0,0,.08-2c.12-.34,0-.55-.28-.63a17,17,0,0,0-2.25,1" transform="translate(-251.83 -133.06)"/><path class="cls-1" d="M547.75,224.75c-.12,1.07.81,2.13,1.34,2.95a10.8,10.8,0,0,1,.92,1.79,4.28,4.28,0,0,1-1.51,5c-1.35,1-3.49,1.44-4.14-.49a3.9,3.9,0,0,1-.06-3c.25-.51.64-1,.91-1.47a3.81,3.81,0,0,1,.54-1" transform="translate(-251.83 -133.06)"/><path class="cls-1" d="M449.75,255.75l-.51,0a.26.26,0,0,0-.27.25c-.82.4-1.65.89-2.5,1.27-1.3.58-2.68.9-4,1.44a16.67,16.67,0,0,1-3,1c-1.78.39-3.41,1.2-5.17,1.61-1,.23-1.82.62-2.81.77s-2.24.33-3.35.56c-3.78.78-7.49,1.8-11.25,2.63a8.4,8.4,0,0,0-3.05,1.06,6.9,6.9,0,0,1-1.61.74c-1.67.6-3.11,1.7-4.86,2a12.57,12.57,0,0,0-2.78.91c-.46.2-.92.22-1.4.38a16.51,16.51,0,0,0-2.31,1.14,21.43,21.43,0,0,0-1.89,1.44,18.25,18.25,0,0,0-2.32,2.07c-.89.85-1.75,1.69-2.67,2.5s-1.67,1.3-2.56,2c-1.94,1.44-3.58,3.2-5.4,4.76-.67.57-1.52,1-2.14,1.57a15.07,15.07,0,0,1-1.66,1.83,6.34,6.34,0,0,0-2.52,3.13,10.47,10.47,0,0,0-.26,1.92c.64-1.67,3-2.39,4.41-3.14a4,4,0,0,1,1.38-.55,14.64,14.64,0,0,1,2.88.27c1.74.1,3.19,1.08,4.7,1.87a12.07,12.07,0,0,1,1.63,1.12c1.16.81,2.45,1.3,3.63,2.05,1,.63,1.93,1.49,2.89,2.2s1.72,1.2,2.51,1.87a22.37,22.37,0,0,0,2,1.87c1,.64,2,1.3,3,1.91.64.38,1.31.52,1.77,1.1.89,1.12,1.43,2.47,2.22,3.66a42.45,42.45,0,0,1,3.05,5.63c.51,1.06.74,2.22,1.23,3.28.25.53.63,1,.91,1.5s.38.93.61,1.37a49.35,49.35,0,0,1,3.18,6.23,44.38,44.38,0,0,0,2.82,6.15c1.24,2.29,3.11,4.35,4,6.79a16.93,16.93,0,0,1,1.14,3.6c.09.77.18,1.52.29,2.29a43.45,43.45,0,0,1,.51,4.83,14,14,0,0,1-.3,3.77,16.1,16.1,0,0,1-1.77,3.89,2.88,2.88,0,0,0-.44,1.32c0,.51-.23.94-.25,1.44a3.91,3.91,0,0,0,.36,1.64c.44,1.28.73,2.6,1.14,3.88a24.28,24.28,0,0,0,1.31,3c.61,1.34,1.11,2.71,1.76,4a27.93,27.93,0,0,1,1.37,3,7.86,7.86,0,0,1,.81,2,23.32,23.32,0,0,0,.49,3.38c.29,1.29.54,2.57.81,3.87.15.72.53,1.37.66,2.09a3,3,0,0,0,.27,1.21,23.44,23.44,0,0,1,1.52,4.13c.77,2.5,1.3,5.06,2.05,7.56.2.68.51,1.3.65,2s.17,1.44.35,2.14c.5,1.85.67,3.71,1.21,5.57a46.55,46.55,0,0,1,1.74,10c.09,1.56.25,3,.25,4.61v3.22a31.09,31.09,0,0,0,.51,4.92c.09.6.12.64.7.85a9.72,9.72,0,0,0,4.33.13,53.3,53.3,0,0,1,8.17-.69,25.72,25.72,0,0,0,4.48-.19c1.45-.25,2.95-.05,4.42-.26,1.3-.18,2.62-.12,3.92-.36,1-.18,1.91-.29,2.9-.39,2.55-.24,5.07-.23,7.62-.29a4.46,4.46,0,0,0,1-.21c.5-.1,1,0,1.48-.1a13.08,13.08,0,0,0,1.33-.46,15.28,15.28,0,0,0,1.69-.3A2.7,2.7,0,0,0,488,426.4a16.59,16.59,0,0,0,.16-2.89,35.64,35.64,0,0,1-.19-5.76,36.89,36.89,0,0,1,.19-4.2,28.65,28.65,0,0,1,.75-5.84c.39-1.18.73-2.39,1.1-3.6.89-2.82,2.25-5.42,3.23-8.2,1.72-4.88,2.5-10,3.78-15,.62-2.43,1.57-4.75,2-7.24.19-1.13.56-2.21.84-3.31.41-1.64.75-3.3,1.2-4.93.51-1.88.91-3.78,1.42-5.66.15-.54.09-1.21.24-1.71.09-.29.36-.42.26-.77a8.88,8.88,0,0,1-.24-2.52c.05-1.12,0-2.25,0-3.37,0-2,0-3.92,0-5.88a10.53,10.53,0,0,1,.65-3.17c.28-.87.72-1.71,1-2.59.29-1,.44-2.15.64-3.21a21,21,0,0,0,.51-3c0-.62.21-1.14.26-1.75s-.33-.6-.73-1.05-.33-.62-.6-.94a3.88,3.88,0,0,1-1.2-3.07.87.87,0,0,1,.37-.73,4.47,4.47,0,0,0,1.08-1.21c.79-1.39,1.77-2.72,2.6-4.11a68.66,68.66,0,0,0,4.8-10c.22-.56.46-1.12.66-1.7.38-1.11.42-2.32.76-3.46.29-.95.29-2,.58-2.91.34-1.15,1-2.24,1.41-3.39.28-.83.63-1.72,1-2.52.6-1.35,1.11-2.74,1.58-4.14a12.16,12.16,0,0,1,1.43-2.41,9.66,9.66,0,0,0,.8-1.86,11.7,11.7,0,0,0,.67-2.18c.07-.43,0-.76.21-1.13a5.45,5.45,0,0,1,1-1c.26-.2.62-.27.81-.56a9.29,9.29,0,0,0,.8-2.21A3.13,3.13,0,0,0,524,280c0-.36-.08-.66.26-.89v.15" transform="translate(-251.83 -133.06)"/><path class="cls-1" d="M516.25,277.25l-.2,0a31.47,31.47,0,0,1-1.61,4c-.47,1.16-.83,2.3-1.23,3.48-.36,1-.87,2-1.22,3a38.68,38.68,0,0,1-4.37,8.57A31.57,31.57,0,0,1,505,300c-1.17,1.36-2.41,2.7-3.48,4.15-2,2.74-2.83,5.81-1,8.84.1-1.1,1.26-2.64,1.73-3.46" transform="translate(-251.83 -133.06)"/><path class="cls-1" d="M402.25,271.5l-.38-.06a2,2,0,0,1,.9-.43c.71-.25,1.43-.49,2.13-.78a6.54,6.54,0,0,1,2.25-.24c0,.23,1.65.83,2,1a37.86,37.86,0,0,0,3.57,1.57c.49.2,1.07.26,1.54.46a11.43,11.43,0,0,1,1.14.81,12.12,12.12,0,0,1,1.3.65,6.22,6.22,0,0,1,1.57,1.92c.48.73,1,1.46,1.44,2.2.69,1.12,1.22,2.32,1.86,3.47s1.42,2,2,3a44.33,44.33,0,0,0,3,4.63,25,25,0,0,1,2.39,3.71,79,79,0,0,1,3.69,8.12c.84,2.23,1.44,4.53,2.14,6.8.49,1.61,1.12,3.17,1.6,4.79a18.94,18.94,0,0,0,1.1,3.12q1.27,2.61,2.45,5.25a45.92,45.92,0,0,1,2.46,8.05c.61,2.53.49,5,.84,7.59a67.45,67.45,0,0,1,.74,13.09,27.85,27.85,0,0,1-.62,4.54,18.7,18.7,0,0,0-.88,3.52c-.08,2.19-.26,4.8.43,6.9a20.82,20.82,0,0,0,1.53,3.24,5.38,5.38,0,0,0,1.33,1.32,13.34,13.34,0,0,0,2.8,2.05,6.09,6.09,0,0,0,2.8.65,6.5,6.5,0,0,0,2.56-.59c2.13-.84,4.21-1.85,6.38-2.6a34.12,34.12,0,0,0,5.42-2.23c2.17-1.2,4.54-2.14,6.62-3.52a30.63,30.63,0,0,1,3.57-2.25c1.1-.53,2.16-1.07,3.22-1.66,1.76-1,3.58-1.84,5.32-2.88,1.9-1.13,3.89-2.11,5.81-3.22a17.38,17.38,0,0,0,2.21-1.28c2.47-1.93,5.49-4.22,6.87-7.14.24-.52.34-1.09.58-1.62.4-.88.84-1.74,1.28-2.59.71-1.38.29-3.72.29-5.18,0-2.26-.09-4.54,0-6.8.11-3.1.94-6.11,1.24-9.18.13-1.38.28-2.67.53-4a11.41,11.41,0,0,0,.26-2,10.84,10.84,0,0,1,.48-3.91,45.88,45.88,0,0,1,1.73-5.07,12.64,12.64,0,0,1,1.3-2.25c.3-.39.89-.7,1-1.23,0-.29.58-.72.78-.95a9.48,9.48,0,0,0,1.48-2.38,29.58,29.58,0,0,0,1.87-6.41,31.43,31.43,0,0,1,2.75-7.06c.63-1.35,1.07-2.77,1.66-4.14.35-.8.83-1.53,1.21-2.31.14,1.27-1,3.22-1.12,4.47a16.56,16.56,0,0,0-.09,3.72c.12,1.11.39,2.19.44,3.31s.51,2.43.54,3.69c0,.6,0,1.21,0,1.81" transform="translate(-251.83 -133.06)"/><path class="cls-1" d="M378,295.25c-.92.66-1.17,2-1.8,2.86a18.94,18.94,0,0,0-2.29,3.88c-1.74,4.4-3.5,8.95-3.41,13.76a19.56,19.56,0,0,0,.85,4.28c.18.73.19,1.46.4,2.19A14,14,0,0,1,372,324a11.47,11.47,0,0,0,.32,1.25,6.93,6.93,0,0,1,.18,1.66A54.07,54.07,0,0,0,374,335.2c.28,1.31.63,2.55,1,3.82.27.9.18,1.82.47,2.72a36.42,36.42,0,0,1,1,6.45c.27,2,.18,4.18.62,6.2a16.75,16.75,0,0,1,.38,2.23c.11,1.43.52,2.79.7,4.2a36.65,36.65,0,0,0,.55,3.74c.25,1.07.33,2.11.52,3.18.16.9.59,1.68.71,2.6.18,1.42.52,2.76.78,4.17.23,1.19.3,2.4.54,3.59s.65,2.28.89,3.44c.17.78.59,1.41.76,2.19.29,1.39.56,2.79.95,4.16a25.76,25.76,0,0,1,.91,3.34,26.64,26.64,0,0,0,.95,4c.64,2.1.92,4.3,1.64,6.37.47,1.35.63,2.76,1.11,4.1a31.85,31.85,0,0,1,1.62,4.54,21.61,21.61,0,0,0,1.22,4c.44,1.1.73,2.24,1.15,3.35,1.35,3.52,2.73,7.05,4.31,10.48a23.77,23.77,0,0,1,1.44,3q.57,2,1.26,3.9c.73,2,1.79,3.82,2.51,5.83.48,1.32,1.05,2.59,1.59,3.88a18.29,18.29,0,0,0,.93,2.29c1.58,2.71,2.69,5.64,4.2,8.38,2.26,4.1,4.53,8.19,7,12.14,1,1.65,1.65,3.49,2.93,5,1.13,1.31,1.64,3,2.76,4.33a7.18,7.18,0,0,0,2.28,1.48c1.87.86,4,1.92,6.15,1.74a7.83,7.83,0,0,0,1.94-.45c.83-.29,1.68-.49,2.51-.78a17.41,17.41,0,0,1,2.7-1c.83-.14,1.57-.53,2.38-.74a36.09,36.09,0,0,1,4.51-.68c2.28-.27,4.71-.24,6.95-.74,2-.44,4-.66,6-1,1.19-.18,2.36-.47,3.55-.69a16.8,16.8,0,0,1,3.17-.15A63,63,0,0,0,475.93,472c2.33-.49,4.6-1.28,6.94-1.77a42.85,42.85,0,0,0,5.47-1.36c.84-.3,1.63-.66,2.49-.9s2-.4,3-.67a21.28,21.28,0,0,0,2.33-.92,2.14,2.14,0,0,0,.81-.45c.23-.24.27-.5.48-.75a7.1,7.1,0,0,0-.67.56,7,7,0,0,0,2.29-.37c1-.41,2.06-.63,3.06-1,.85-.32,1.59-.82,2.45-1.13s1.9-.75,2.85-1.14c1.88-.77,3.45-2.09,5.3-2.94,2.31-1.06,4.6-2.19,7-3.1a44.8,44.8,0,0,0,6.59-3.07c1.26-.74,2.57-1.32,3.83-2,2.31-1.28,4.76-2.27,7.1-3.49a21.81,21.81,0,0,1,6.25-2.31c3.48-.65,7.07-.4,10.59-.44a8.42,8.42,0,0,1,3.08.48c.73.26,1,.73,1.51,1.27a7.18,7.18,0,0,0,1.12.85c.52.36,1,.85,1.49,1.17s1,.45,1.49.78c1,.74,2.1,1.43,3.19,2.12a9.25,9.25,0,0,0,3.1,1.22,6.53,6.53,0,0,0,1.48.12c1.09,0,2.11.14,3.18.23a20,20,0,0,0,4.71-.17c1.39-.23,2.8,0,4.2-.24a28,28,0,0,1,2.78-.57c1-.09,2-.49,3.08-.51a27.14,27.14,0,0,1,5.56.2,8.09,8.09,0,0,1,1.73.42c.64.27,1.23.64,1.89.87a29,29,0,0,1,4.09,2.15c1.5.8,3.11,1.4,4.63,2.13a3.1,3.1,0,0,0,1.4.49c.48,0,.85.19,1.31.26s.79-.06,1.18,0a8.81,8.81,0,0,0,1.11.24,13.11,13.11,0,0,1,2.26,0c.21.06.42.23.68.29a11.26,11.26,0,0,0,1.28.18,10.74,10.74,0,0,0,2.49.27c1.4-.11,4.17-.93,3.94-2.77a4,4,0,0,0-.74-1.62,3.24,3.24,0,0,0-.76-.61c-.47-.36-.65-.79-1.26-1-2.07-.58-4.25-.42-6.34-.67-.85-.11-1.68-.07-2.52-.15s-1.38-.3-2.08-.43-1.14.05-1.7-.09c-1-.25-1.9-.48-2.91-.64a40.25,40.25,0,0,1-5.8-1.43c-.95-.3-1.89-.91-2.86-1.12a7.82,7.82,0,0,0-1.53,0c-.42,0-1.63.19-1.75-.19a7.08,7.08,0,0,1,2.25-.06,8.51,8.51,0,0,1,2.71.22c1.2.38,2.35.91,3.56,1.29,1.38.43,2.76.78,4.13,1.26.9.31,1.82.38,2.68.71s1.9.67,2.85,1a25.78,25.78,0,0,0,8.58,1.51,5.73,5.73,0,0,1,2.27.22c.7.29,1.38.61,2.06,1a11.28,11.28,0,0,0,2.34,1.08,16,16,0,0,0,4.94.18c1.25-.08,2.48-.26,3.72-.4.78-.08.86.06,1.16-.65a3.93,3.93,0,0,0,.13-3.62c-1.19-1.85-4-2.73-6-3.34-1.5-.45-3-.81-4.56-1.18a11.91,11.91,0,0,1-1.94-.55c-.59-.33-1.2-.64-1.82-.92a9.8,9.8,0,0,1-2.25-.93c-1.41-1-3-1.65-4.41-2.63a5.75,5.75,0,0,0-2.27-1.18c-.44-.08-.81-.12-1.24-.23a30.47,30.47,0,0,0-6.21-1.07c-2-.11-4.07-.13-6-.43a14.81,14.81,0,0,0-3.63-.3,5.21,5.21,0,0,1,2.89-.74c1.42.18,2.82.49,4.24.7a47.73,47.73,0,0,1,7.36,1.84c1.65.52,3.38.82,5,1.43,1.16.44,2.27,1,3.42,1.5a45.41,45.41,0,0,0,7,2.25c2,.49,4,1.07,5.91,1.75a18.57,18.57,0,0,0,1.88.71,8,8,0,0,0,1.83,0,11.08,11.08,0,0,0,2.23-.09,13,13,0,0,0,3.14-.92c.39-.22.75-.51,1.14-.74s.67-.37.62-1a3.33,3.33,0,0,0-1.92-2.78c-1.24-.57-2.37-1.45-3.58-2.12-4.23-2.34-8.55-4.43-12.71-6.92a31.65,31.65,0,0,0-4.82-2.69,21,21,0,0,0-2.75-1.22c-.72-.15-1.65-.14-2.38-.22-3-.31-5.93-.74-8.89-1.19-1-.16-2.1-.42-3.14-.57a5.29,5.29,0,0,1-1.78-.32,11.5,11.5,0,0,1,3,.45c2.24.43,4.51.53,6.75.95,1.07.21,2.16.27,3.22.51,1.94.45,3.71,1.58,5.58,2.26a46,46,0,0,1,5.27,1.79c1,.52,2,1.12,3,1.61a31.52,31.52,0,0,0,4.19,1.67,8.22,8.22,0,0,0,2.07.57,4.07,4.07,0,0,0,2.62-1.26c.77-1,.65-2.56.54-3.78-.44-4.85-4.85-6.49-8.59-8.51-1.82-1-3.21-2.48-5-3.49A28.6,28.6,0,0,0,616,418.2a75.21,75.21,0,0,0-8.17-1.35c-2.42-.4-4.8-1-7.18-1.6-2.76-.66-5.6-1-8.21-2.2s-5.09-1.87-7.6-2.86a20.09,20.09,0,0,1-3.07-1.37c-1.39-.85.22-.72,0-1.55a7.7,7.7,0,0,0,1,3.48c1,1.3,2.56,1.47,4.1,1.8a33.18,33.18,0,0,0,4.53.75,60.86,60.86,0,0,1,6.32.75,44.15,44.15,0,0,0,4.73.68,4.68,4.68,0,0,0,1.4,0,3,3,0,0,1,1.86-.06c.61.23.81.47,1.45.23a5.27,5.27,0,0,0,2.11-1.87,1.87,1.87,0,0,0,.27-2.15c-.07-.16-.12-.46-.29-.56s-.74.11-1,.15a7.09,7.09,0,0,1-1.66.07,5.51,5.51,0,0,1-1.08-.27c-.69-.15-1.44-.15-2.15-.33s-1.25-.4-1.89-.59a22.36,22.36,0,0,1-2-1c-.9-.37-1.82-.71-2.72-1.07a45.68,45.68,0,0,0-4.23-1.78c-.71-.2-1.41-.38-2.11-.61-1-.35-2-.94-3-1.24-1.75-.51-3.6-.69-5.34-1.2-.9-.27-1.79-.63-2.67-.95a10.63,10.63,0,0,0-2-.76c-1.27-.19-2.49.8-3.62,1.21a19.58,19.58,0,0,0-3,1.19,26.8,26.8,0,0,1-3.85,2c-1.36.47-2.74.86-4.1,1.33a31.13,31.13,0,0,1-4.17,1.34,42.88,42.88,0,0,0-4.78.78,7.38,7.38,0,0,0-1.65.7,2.6,2.6,0,0,0-.67.76c-.48.68-.19,1.35-.33,2.14a5,5,0,0,1-.46,1.38c-.3.57-.52,1.57-1,2-.75.58-1.86.16-2.71.27-.39,1.44.78,3.14.24,4.42a10.81,10.81,0,0,1-1.73,2.53c-.38.46-.66,1.06-1.27,1.25-.91.3-1.14-.31-1.83-.47a.71.71,0,0,0-1,.51c-.11.37,0,1.2-.26,1.53-.44.61-1.9.45-2.55.47-.83,0-1.55.65-2.41.55a5,5,0,0,1-1.12-.52,11.83,11.83,0,0,1-1.64-.76c-.72-.55-.84-1.31-1.25-2-.2-.34-.53-.82-.92-.9-.6-.13-1.58,1.07-1.85,1.47s-.54,1.2-1.06,1.41-1.3-.26-1.78-.45c-1.73-.7-3-1.93-4.61-2.87-1.1-.64-2.06-1.42-3.28-1-.91.33-1.69.91-2.58,1.28a21.92,21.92,0,0,1-3.43.8c-1.61.38-3.25.46-4.87.79-1.43.28-2.78.74-4.19,1.11s-3.09.49-4.61.88c-3.72.93-7,3-10.81,3.71a107.64,107.64,0,0,1-12.8,1.35c-2.38.15-4.76.13-7.13.47a76.59,76.59,0,0,1-7.72.69c-2.9.11-5.77.25-8.67.25a36.4,36.4,0,0,0-4.67,0c-.21,0-.82.34-1,.23s0-1.58,0-1.71a10.12,10.12,0,0,0-.21-1.21,9.86,9.86,0,0,1,.05-1.33,23.68,23.68,0,0,0-.36-2.93c-.15-1.26-.52-2.58-.8-3.83-.21-1-.5-1.95-.7-2.94-.37-1.83-.53-3.59-1.05-5.41a50.25,50.25,0,0,1-1.5-7c-.16-1.19-.36-2.37-.42-3.57a23.54,23.54,0,0,0-.36-3.84c-.28-1.26-.76-2.46-.93-3.75a28.65,28.65,0,0,0-.21-2.93,13.21,13.21,0,0,0-.64-3.23c-.23-.95-.44-1.9-.65-2.86a34.92,34.92,0,0,0-2.36-6.51c-1.31-2.94-2.63-5.89-4-8.8-.6-1.32-1.32-2.6-1.89-3.93-.69-1.58-1.17-3.25-1.87-4.83-.31-.69-.66-1.37-1-2a32.45,32.45,0,0,1-2-3.35,10.47,10.47,0,0,0-1.12-2.4,21.49,21.49,0,0,0-2.51-3.11c.13-.45.54-.73.74-1.15a4.85,4.85,0,0,0,.29-2.33c-.09-1.53-.36-3.05-.49-4.58a18.17,18.17,0,0,0-.8-3.17c0,2.7.84,5.35.66,8.06a54.4,54.4,0,0,1-1.15,6.57c-.89-2.13-1.4-4.3-2.74-6.24-1-1.47-3-2.75-3.6-4.42a3.75,3.75,0,0,0,.79,1.23c1.24,1.59,2.88,2.86,4.26,4.32a12,12,0,0,1,2.09,2.79c.41.82.78,1.64,1.21,2.45a7.93,7.93,0,0,0,2.23,2.69,3.46,3.46,0,0,1,1.54,2.56" transform="translate(-251.83 -133.06)"/><path class="cls-1" d="M582,251.5a2.51,2.51,0,0,0-1.31.22c-1.21.54-2.48.95-3.68,1.52-2,.93-4,2-6,2.75a25.37,25.37,0,0,1-3.61,1.08c-1.41.31-2.77.77-4.18,1.07a32.73,32.73,0,0,0-4.21,1.24c-.49.17-.93.41-1.41.61a17.72,17.72,0,0,0-1.88,1,18,18,0,0,1-3,1,6.82,6.82,0,0,0-1.56.88c-.43.32-.83,1.07-1.43,1.07" transform="translate(-251.83 -133.06)"/><path class="cls-1" d="M503.5,327.25c-.12.3-.43.2-.69.34.13.59.82,1.09,1.24,1.49a22.58,22.58,0,0,0,3.43,2.65,37.49,37.49,0,0,0,5.32,2.89c1.79.8,3.63,1.72,5.34,2.68a19,19,0,0,0,4.32,1.56,36.89,36.89,0,0,1,4.32,1.64c2.58,1,5.17,2,7.82,2.81a30.79,30.79,0,0,1,4.18,1.44,27.24,27.24,0,0,0,3.63,1.46,47,47,0,0,1,5.14,1.85,16.1,16.1,0,0,0,4,1c.61.11,1.81.53,2.32,0s.17-1.36.17-1.82a16.41,16.41,0,0,1,0-3.21c.1-.42.34-.76.46-1.19a21.2,21.2,0,0,0,.5-2.34,23.84,23.84,0,0,0,.58-4.09c0-1.41-1.29-1.73-2.16-2.58a23.07,23.07,0,0,1-3.13-4,16.45,16.45,0,0,0-2.49-3.36c.4.47.75,1,1.13,1.48a27.36,27.36,0,0,0,3.94,4c1.11,1,2.31,1.88,3.34,2.93.37,0,.35-1.25.37-1.44a16,16,0,0,0-.1-4.94c-.29-1.47-.85-2.88-1.17-4.34a15.63,15.63,0,0,0-1.07-3.75c-2.18-4.29-5.44-8-7.64-12.23.62.21,1.41,1.32,1.74,1.74a12.89,12.89,0,0,1,1,1.41,32.08,32.08,0,0,1,2.18,4.14c.56,1.37.89,2.82,1.41,4.21a54.81,54.81,0,0,0,2.55,5c.66,1.32.44,2.74.62,4.16a51.43,51.43,0,0,1,.46,6.57,19.1,19.1,0,0,1-.16,3.38,21.28,21.28,0,0,0-.35,2.24c-.13,1.91-1.41,4.91.26,6.56a.65.65,0,0,1,.49-.88" transform="translate(-251.83 -133.06)"/><path class="cls-1" d="M647,318.25a2,2,0,0,1-1.21-.21c-.23-.66,1.15-2.68,1.47-3.11a6.74,6.74,0,0,1,3.84-2.79,6.16,6.16,0,0,1,5,1,4.78,4.78,0,0,1,1.73,1.52c.33.64-.12,1.39-.25,2.08a13.11,13.11,0,0,1-.22,1.53c-.21.64-.51,1.14-.66,1.8a7.44,7.44,0,0,1-.86,2.49,17.91,17.91,0,0,1-2.37,2.7,20,20,0,0,0-2.52,3.59,98.28,98.28,0,0,0-5,9.26c-.74,1.57-1.68,3.82-3.73,2.82a3.78,3.78,0,0,1-2-2.46,2.79,2.79,0,0,1-.17-1.25,6,6,0,0,1,.25-.9c.48-1.51.9-3.05,1.43-4.55.66-1.87,1.53-3.59,2-5.51a15.72,15.72,0,0,1,.9-3,1.27,1.27,0,0,1,.28-.44,2,2,0,0,1,.9-.32,6.32,6.32,0,0,0,2.46-1.66c.86-.79,1.29-1.85,2.2-2.61,1.2-1,2.84-2.19,4.47-2.27.55,0,.74.25,1,.73a3.33,3.33,0,0,1,.49,1.59c0,.43-.2.56-.49.91a11.09,11.09,0,0,1-2,2c-.4.29-.89.48-1.26.81a5.42,5.42,0,0,0-1.6,2.66c-.31-.3-.62-.95-1.18-1,.38.07-.33.06-.27.43a2.65,2.65,0,0,1-.5,1.51c-.81,1.24-2.5,1.44-3.27,2.64a9.66,9.66,0,0,0-1,2c-.23.59-.3.87-.92,1a2.59,2.59,0,0,1-1,0,1.67,1.67,0,0,1-.71-.47c-1.09-.87-2.21-1.71-3.36-2.5" transform="translate(-251.83 -133.06)"/><path class="cls-1" d="M616.25,316a4.71,4.71,0,0,0-.27.71c0-.6.18-1.52,1-1.5a4.15,4.15,0,0,1,.53,2.59c-1.14-.34-1.33-2.41-.48-3.1.52,0,.74,1.09.75,1.36a4.75,4.75,0,0,1-.59,2.36c-.4.72-.68.72-1.32.29a3.23,3.23,0,0,1-1.17-1.79c-.27-1.15.32-2.18,1.57-1.54a1.6,1.6,0,0,1,.28,2.53c-2.76-.36-.45-5,.65-1.81.2.56.09,3.09-.91,2.13-.49-.46-1.18-1.79-.73-2.5s1.89,0,2.19.52c.22.37.42,1.26.1,1.57-.49.49-.81-.05-.83-.56,0-.84.74-1.28.76-2" transform="translate(-251.83 -133.06)"/><path class="cls-1" d="M612.25,309.5a15.62,15.62,0,0,0,2.84.76c1.16,0,2.33,0,3.49,0a8.25,8.25,0,0,1,1.64.19,21.56,21.56,0,0,1,2.56.3,17,17,0,0,1,2.57,1.26,19.86,19.86,0,0,1,2.59,1.54l-.19,0" transform="translate(-251.83 -133.06)"/><path class="cls-1" d="M596.25,309a17.55,17.55,0,0,1-5.72-.75c-1.48-.51-2.93-1.2-4.4-1.76a16.43,16.43,0,0,0-5.89-1c-.75,0-2.75-.31-2.74,1" transform="translate(-251.83 -133.06)"/><path class="cls-1" d="M592,316.5a1.68,1.68,0,0,0-.7.46c.44.23,1.25,0,1.74,0,.67.05,1.29.37,1.93.48.25-.54-1-1.81-1.32-2.22a3,3,0,0,0-.66-.87c-.48-.39-1.2-.56-1.54-1.1-.11-.19-.13-.43-.24-.62-1.62-2.85-8-2-10.63-.61-.58.32-1.21.83-.65,1.48a4.1,4.1,0,0,0,2.63,1,6.66,6.66,0,0,1,1.35.2,2.22,2.22,0,0,1,.37.21c.08.05.12.15.19.21a2.61,2.61,0,0,0,1.57.68,14.66,14.66,0,0,1,2.36,1,3,3,0,0,0,2.21.29,2.15,2.15,0,0,0,1-1.36,3.89,3.89,0,0,0-.11-2.56" transform="translate(-251.83 -133.06)"/><path class="cls-1" d="M613.79,316.15a2.35,2.35,0,0,0-.09.4c-.35,2.95,2.71,4.07,5.06,3.11a3.76,3.76,0,0,0,2.43-3.37c0-1.32-1.25-1.76-2.39-1.8C617.21,314.45,614.36,314.27,613.79,316.15Z" transform="translate(-251.83 -133.06)"/><path class="cls-1" d="M598,320.5c0,1.88.47,4.65-1.17,6a13.39,13.39,0,0,1-2.09,1.44c-.17.09-.32.21-.48.3-.43.25-.3.18-.54.61a3.14,3.14,0,0,0-.47,1.85,7.27,7.27,0,0,0,0,1.68,1.15,1.15,0,0,0,1,.87,6.43,6.43,0,0,0,.76,0c.32,0,.68.27,1,.23.19-.39-.2-.39-.24-.71-.07-.62.15-.36.52-.5a1.54,1.54,0,0,1,1.75.23c.72.46.84,1.12,1.64,1.52a5.16,5.16,0,0,0,2,.49,3.35,3.35,0,0,0,2-.31c.38-.22.42-.45.67-.7a2.71,2.71,0,0,1,.58-.42c.32-.2.24-.27.67-.33a5.79,5.79,0,0,1,1,0c.42.06,1.15.43,1,1" transform="translate(-251.83 -133.06)"/><path class="cls-1" d="M592.5,345.25c1.3-1.11,2.68-2.09,3.9-3.25a3.09,3.09,0,0,1,2-1c.72,0,1.25-.4,2-.23.21.05.54.17.76.24.71.24.73.59,1.4.25s.88-.21,1.6.09a5.82,5.82,0,0,1,1.24.7c1.12.8,2.33,1.51,3.52,2.2a9.76,9.76,0,0,0,1.91,1,4.85,4.85,0,0,1,1.94.75,7,7,0,0,1-2.8,0c-1.32-.21-2.62-.56-3.92-.84a27.14,27.14,0,0,0-5.63-.12c-1,0-2,0-3.07,0a27.64,27.64,0,0,1-2.86-.52,3.29,3.29,0,0,0-1.71.1c-.9.67.56,1.14,1,1.33a20.48,20.48,0,0,1,2.78,1.47c.78.52,1.27,1.27,2,1.81a4,4,0,0,0,2.72.81,22.72,22.72,0,0,0,3.3,0,4.94,4.94,0,0,0,2-.73,9.45,9.45,0,0,1,1.42-1c.31-.14.7-.15,1-.3.5-.24.92-.52,1.45-.72a6.43,6.43,0,0,1,2.31-.23" transform="translate(-251.83 -133.06)"/><path class="cls-1" d="M639.25,339.5c-1.86,1.79-3.13,4.17-4.66,6.22-.59.78-.93,1.68-1.58,2.41a6.82,6.82,0,0,0-1.23,1.43c-.27.49-.44,1-.71,1.52a13.29,13.29,0,0,1-1.58,2.14c-.55.65-.94,1.4-1.53,2-1.38,1.45-2.52,3.18-4.18,4.36-1.4,1-3.23.74-4.83,1a22.89,22.89,0,0,0-4.66.76,19,19,0,0,0-1.79.93c-1.07.49-2.16,1.07-3.27,1.47-1.72.62-3.2,1.21-5,.8a16.11,16.11,0,0,1-3.45-.77,28.19,28.19,0,0,0-3.27-1.25,39.7,39.7,0,0,0-4.72-1c-3.29-.63-6-3.05-8-5.59-.63-.78-1.19-1.61-1.77-2.44a28.17,28.17,0,0,0-2.18-2.19,16.35,16.35,0,0,1-2.1-3.22c-.83-1.61-1.72-3.21-2.51-4.85a9.75,9.75,0,0,1-.8-2,7.29,7.29,0,0,1-.08-1.47c-.08-1.16-.84-2.16-1.08-3.29s-.58-1.92-.7-2.94-.35-2.31-.43-3.47c-.15-1.87-.31-3.72-.31-5.6a56.62,56.62,0,0,1,0-6.25c.15-1.32.43-2.61.46-3.95a33.17,33.17,0,0,0-.19-4.11,45,45,0,0,0-.81-6.12,9.82,9.82,0,0,0-.92-2.9c-.53-.84-1.76-1.71-1.59-2.86" transform="translate(-251.83 -133.06)"/><path class="cls-1" d="M570.25,303.75c-.83.15-2-.77-2.71.05-.08.09,0,.32-.09.43a4,4,0,0,0-.44.87,4.8,4.8,0,0,0,.12,2c.62,2.26,2,4.15,2.64,6.41a6.06,6.06,0,0,0,.4,1.38c.23.42.58.72.79,1.16.33.71.59,1.46.86,2.2.3-.21.19-.95.19-1.24,0-.88,0-1.76,0-2.64a4.8,4.8,0,0,0-.24-2,3.13,3.13,0,0,0-1.49-1.85,7.46,7.46,0,0,1-2.18-1.53l.16,0" transform="translate(-251.83 -133.06)"/><path class="cls-1" d="M633.25,346.25c.48.72.67,1.59,1.09,2.35a5,5,0,0,0,1.87,1.68,14.64,14.64,0,0,0,2.95,1.21,6.68,6.68,0,0,1,2.33,1.06,29.31,29.31,0,0,0,5,3.14c.16-.28-.29-.63-.5-.69" transform="translate(-251.83 -133.06)"/><path class="cls-1" d="M644,350.5c-2.53,3.66-2.06,8.7-4.78,12.22a16.15,16.15,0,0,1-4.16,3.79,43.93,43.93,0,0,0-4.8,3.42c-.91.78-1.91,1.45-2.76,2.3a6.48,6.48,0,0,1-.77.8,4.44,4.44,0,0,1-1.78.67,38.58,38.58,0,0,1-5.69.05c-1.67,0-3.35,0-5,0-3.58-.07-7.18-.4-10.41-2a44.7,44.7,0,0,1-5.6-3.37c-.57-.39-1.05-.86-1.61-1.25-.4-.27-.62-.2-1-.34a3.77,3.77,0,0,1-1.34-1c-1-1-2.07-1.72-3-2.75a6.37,6.37,0,0,0-1.38-1.49c-.22-.13-.86-.52-.87,0" transform="translate(-251.83 -133.06)"/><path class="cls-1" d="M646,348c.13-.93.64-2.14,1.63-2.26a7.84,7.84,0,0,1,2.22.14c1.87.33,3.72.78,5.59,1.11,3.71.67,7.28,1.91,10.93,2.84a12.18,12.18,0,0,1,1.54.53,3.94,3.94,0,0,1,1.81,1,4.62,4.62,0,0,1,.9,2.48,8,8,0,0,1,0,1.1,4.23,4.23,0,0,1-.36,1.57,8.88,8.88,0,0,1-1.79,2.12c-2.18,2.3-2.87,5.77-3.94,8.66a59.52,59.52,0,0,0-3.46,11.43,35.92,35.92,0,0,0,1.38,15.88c.4,1.31,1.11,2.53,1.59,3.83.41,1.11.88,2.19,1.38,3.27.84,1.82,1.64,3.68,2.3,5.57,1.15,3.34,2.7,6.51,4.11,9.71.4.92.8,1.81,1.14,2.75a1.5,1.5,0,0,1-.1,1.58c-2,3.64-3.58,7.46-5.9,10.91-.62.92-1.06,1.9-1.58,2.86-.4.75-.9,1.37-1.24,2.15a11.53,11.53,0,0,0-.91,1.95,9.19,9.19,0,0,0,0,1.74,3.91,3.91,0,0,0,.43,2.33c.2.29.69.85,1.07.73" transform="translate(-251.83 -133.06)"/><path class="cls-1" d="M667,365.25c0,.76,1.17,1.88,1.62,2.38.78.87,1.51,1.74,2.23,2.66a34.2,34.2,0,0,1,3.84,5.54c1.5,2.89,2.12,6.15,3.44,9.12A31,31,0,0,0,680,389c.66,1.06,1.08,2.22,1.74,3.26a47.91,47.91,0,0,0,2.94,4.25c.6.75,1.37,1.33,2,2s1,1.46,1.54,2.15a55.47,55.47,0,0,1,8,13.51,23.58,23.58,0,0,1,.86,3.09c.12.42.38.79.52,1.2.19.6.2,1.19.42,1.79.35,1,.2,2,.55,2.94a14.09,14.09,0,0,1,.71,5.47,32,32,0,0,1-1.07,5c-.77,3.45-1.59,6.91-2.25,10.37-.19,1-.49,1.86-.75,2.82a6.33,6.33,0,0,1-.94,2.37" transform="translate(-251.83 -133.06)"/><path class="cls-1" d="M649.25,451.75c-1.11.74,0,5.75-1.88,5.52-1.14-.13-2-1.74-2.62-2.63a4.58,4.58,0,0,1-1-2.7,3.13,3.13,0,0,1,1.23-2.69c.82-.68,1.82-.5,2.83-.5a28.21,28.21,0,0,0,3.05,0c1.47-.15,2.71-1.31,4-1.87s3.13.32,4.24.68c2.09.69,1.41,2.86,1.39,4.76,0,.71.26,1.25.25,1.94a8.53,8.53,0,0,0,0,2.26,15.93,15.93,0,0,0,2.45,4.31A2.17,2.17,0,0,0,665,462a2.09,2.09,0,0,0,1.69-.31,4,4,0,0,0,.84-3,15.69,15.69,0,0,0-.51-2.21c-.25-1.13-.56-2.23-.83-3.35a12.08,12.08,0,0,1,.07-3.84,2.28,2.28,0,0,1,.51-1.29,6,6,0,0,1,.39-.76l-.15,0" transform="translate(-251.83 -133.06)"/><path class="cls-1" d="M669.75,444.25a2.11,2.11,0,0,1,1.25-1.88,1.27,1.27,0,0,1,1.56.32,1.6,1.6,0,0,1,.68,1.41,11.52,11.52,0,0,1,.26,2c-.12,1-.54,1.93-.69,2.9a6.19,6.19,0,0,1-.38,1.48,6.41,6.41,0,0,1-.36,1.07c-.34.57-1.58.61-2.2.43-.32-.09-.47-.47-.66-.73s-.68-.66-.94-1a3.47,3.47,0,0,1-.27-2.05c0-1.15.1-3.22,1.15-3.92l-.15.23c-.25-1-3.41.22-4.26.24a6.65,6.65,0,0,0-1.75.46,4.69,4.69,0,0,0-1.39.44,9.76,9.76,0,0,0-2.11,1.48,3.15,3.15,0,0,0-.74,1.63c-1.08.4-.41,1.4-.52,2.34s-.12,1.86-.25,2.76a9.23,9.23,0,0,0-.23,1.65,8.13,8.13,0,0,1-.63,2.5,6,6,0,0,1-1.08,2.2,2.16,2.16,0,0,1-1.81.57c-.62-.09-.52-.36-.82-.77s-1.12-.52-1.53-.9a5.48,5.48,0,0,1-1.12-2.1,10.8,10.8,0,0,1-.51-4.47c.08-.52.36-.53.49-1a3.41,3.41,0,0,1,.26-1" transform="translate(-251.83 -133.06)"/><path class="cls-1" d="M672.5,440.5c0-1,0-2,0-3a86.81,86.81,0,0,1,.76-10.06,13.1,13.1,0,0,1,2-5.4c.39-.63.86-1.2,1.27-1.8a2.16,2.16,0,0,0,.48-1c-.72,0-3.38-.88-3.82-1.5-.22-.3-.78-.87-.68-1.25" transform="translate(-251.83 -133.06)"/><path class="cls-1" d="M668.25,454a20.4,20.4,0,0,0,3.4.25,20.84,20.84,0,0,0,3.16,0c.65-.11,1.26-.39,1.92-.45.42,0,.84,0,1.26,0a25.7,25.7,0,0,0,4.24-.86c1.24-.31,2.52-.47,3.76-.78,1-.26,2-.76,3-1s2.37-.47,3.54-.81a40.24,40.24,0,0,1,6-1.45,33.23,33.23,0,0,0,3.56-.65,28.55,28.55,0,0,1,7.39-.41c2,0,3.91.27,5.87.26s3.74-.13,5.63-.21a7.5,7.5,0,0,0,2.86-.85,4.16,4.16,0,0,0,.82-.63,5.21,5.21,0,0,1,1.77-.68,19.2,19.2,0,0,1,3.82-1.09,29.46,29.46,0,0,1,3.64,0,1,1,0,0,0-.45-.26" transform="translate(-251.83 -133.06)"/><path class="cls-1" d="M674.75,424.5c-.72.41-.51,1.44-.5,2.13a16.52,16.52,0,0,1-.23,2.23,52.3,52.3,0,0,0,0,5.6,26.08,26.08,0,0,1-.7,5.59,10.54,10.54,0,0,1-.81,2.95" transform="translate(-251.83 -133.06)"/><path class="cls-1" d="M701.25,448l-.22.16A28.13,28.13,0,0,0,702,443c.33-3.3.57-6.64.75-9.94s1-6.48.76-9.68c-.1-1.35-.24-2.62-.23-4a26.1,26.1,0,0,0-.18-3.75c-.9-6.4.07-12.95.92-19.3.5-3.7,1-7.38,1.51-11.07.58-3.94,1.32-8.11,3.5-11.51a18.5,18.5,0,0,0,2.35-.12,55.51,55.51,0,0,0,8.63-.9,66.08,66.08,0,0,0,9.59-3.54c2.87-1.17,5.79-2.49,8.76-3.41a42.42,42.42,0,0,1,6-1.49,43.47,43.47,0,0,1,6,0,26,26,0,0,0,3.63-.5" transform="translate(-251.83 -133.06)"/><path class="cls-1" d="M713.5,359.25c-.9,0-1.27,1.34-1.48,2a38.09,38.09,0,0,0-1.42,6.52c-.4,3.29-.52,6.71-1.39,9.92-.37,1.33-.82,2.69-1.29,4a6.51,6.51,0,0,1-1.19,2.31c-.44.45-1,.74-1.46,1.2a17.71,17.71,0,0,0-1.89,2.57,17,17,0,0,0-2.89,8.94,10.57,10.57,0,0,1-.73,3.34c-1.17,2.85-3.57,4.91-5.33,7.37a2.65,2.65,0,0,1,.82-.42" transform="translate(-251.83 -133.06)"/><path class="cls-1" d="M696.75,266.25a10.89,10.89,0,0,1-.54,3.53c-.44,1.81-1,3.61-1.51,5.4a44,44,0,0,1-4.48,9.82q-1.79,3.12-3.47,6.28a119.9,119.9,0,0,1-6.46,10.19c-2.24,3.38-4.6,6.65-6.67,10.14-2.89,4.88-5.77,9.74-8.78,14.56-2.44,3.91-4.76,7.9-7.12,11.85-.85,1.44-1.7,2.84-2.67,4.2a9.28,9.28,0,0,1-1,1.55,3.87,3.87,0,0,1,.68,0" transform="translate(-251.83 -133.06)"/><path class="cls-1" d="M702.25,264.25a4.56,4.56,0,0,0,0,.73c.28.95,1.68,1.12,1.81,2.11a4.71,4.71,0,0,1-.27,1.57c-.29,1.08-.75,2.1-1.09,3.16a45.73,45.73,0,0,1-1.85,5.59,56.54,56.54,0,0,1-4.18,6.75c-1.06,1.62-1.92,3.38-2.82,5.1-.73,1.4-1.15,2.85-1.81,4.26-.39.82-.86,1.6-1.19,2.45s-.48,1.63-.79,2.43-.86,1.63-1.25,2.47c-.51,1.11-1,2.22-1.55,3.3-1.2,2.26-2.36,4.55-3.59,6.79-.68,1.22-1.37,2.43-2,3.69-.73,1.52-1.29,3.13-2.06,4.63-1,1.91-2.18,3.75-3.32,5.57-2.73,4.36-5.72,8.54-8.67,12.76-1.08,1.54-2.28,2.91-3.49,4.34-.94,1.11-1.7,2.38-2.6,3.53-.61.78-1.68,1.58-2,2.52" transform="translate(-251.83 -133.06)"/><path class="cls-1" d="M386.75,402.5a9.87,9.87,0,0,1-.79,2.41,22.82,22.82,0,0,0-1.36,4.27,16.12,16.12,0,0,1-1.87,4.87,14.31,14.31,0,0,0-1.38,3,10,10,0,0,0-.37,3.12,11.41,11.41,0,0,0,.48,2.08,4.7,4.7,0,0,1-.27,2.49c-.24.63-.72,1.5-1.43,1.56-.95.08-2.08.14-2.63,1.11a4.08,4.08,0,0,0-.15,1.85,6,6,0,0,0,.7,2.47c.45,1,1.6,2.27.82,3.31s-1.68,1.73-2.37,2.75c-.55.82-1.12,1.65-1.63,2.5s-1.65,1.53-1.76,2.72c-.05.54.05,1.1,0,1.64,0,.93-.67,1.48-1.13,2.25s-.68,1.49-1,2.24a10.6,10.6,0,0,0-1.25,2.41c-.22.93.43,1.83.11,2.73-.19.53-.56,1-.76,1.59a27.51,27.51,0,0,1-1.66,3.41,3.17,3.17,0,0,0-.46,2.26c.16.6.82,1.21.69,1.86s-.88,1.26-1.19,1.66c-1.45,1.83-2.74,3.8-4.22,5.6a18,18,0,0,0-2.71,4.62c-.88,2.05-2.14,4.18-1.9,6.51.16,1.53,2.34,2.59,3.62,3.09a35.72,35.72,0,0,0,4.69,1.17,39.78,39.78,0,0,1,5.63,1.83,32.12,32.12,0,0,1,5.71,3c1.86,1.26,3.82,2.37,5.65,3.67,1.52,1.07,3,2.23,4.6,3.18,2.11,1.25,4.22,2.53,6.34,3.77a24.44,24.44,0,0,0,8.5,3.28c2.09.3,4.21.71,6.31.9a45,45,0,0,0,4.92-.18c.84,0,1.7-.05,2.53,0a23.21,23.21,0,0,1,4.54,1.07c.94.28,2.19.93,3.14.59a5.84,5.84,0,0,0,2.29-1.79,11.55,11.55,0,0,1,3.13-2.95,32.37,32.37,0,0,1,4.29-2.14c2-.8,4.05-1.35,6-2.32,1.74-.86,3.4-1.89,5.17-2.7a43.93,43.93,0,0,1,5.14-1.65c1.77-.56,3.43-1.39,5.21-1.94a88.94,88.94,0,0,0,8.58-3.54c2.33-1,4.8-1.76,7.07-2.89a45.77,45.77,0,0,1,14.34-4.47,65.94,65.94,0,0,1,6.59-.49,36.3,36.3,0,0,1,5.31-.17c1.17.14,2.34.14,3.5.31,1.53.22,3,.58,4.56.92,1,.22,1.09.05,1.83-.75s1.14-1.39,1.7-2.1a43.34,43.34,0,0,0,3.14-5c.24-.4.47-.79.67-1.21s.75-1,.79-1.32-.5-.94-.75-1.26a11.71,11.71,0,0,1-1.23-1.83,13.4,13.4,0,0,0-1.62-2.39c-.8-.95-1.16-2.24-1.88-3.26" transform="translate(-251.83 -133.06)"/><path class="cls-1" d="M358.25,485.5c-.81-.15-1.57.51-2.17.95a30.08,30.08,0,0,0-3.66,3.48,18.6,18.6,0,0,0-2.87,4.07c-.78,1.43-1.64,2.82-2.3,4.3-1.44,3.24-3.34,6.26-4.94,9.43-.9,1.79-1.58,3.59-2.31,5.46a28.6,28.6,0,0,0-1.64,5.1c-.43,2.32-.63,4.81-1.65,7-.85,1.78-2.12,3.35-2.8,5.22-.09.26-.29.64-.35.89a1.35,1.35,0,0,0-.05.66.3.3,0,0,1-.2.28c-.12.6.09,1.34-.19,1.91q1.42-.51,2.88-1" transform="translate(-251.83 -133.06)"/><path class="cls-1" d="M432,504a.56.56,0,0,0-.44-.5c-.15.59-.81.74-1.28,1a21.63,21.63,0,0,0-3.29,2.15c-1.32,1-2.54,2.21-3.88,3.23a23.53,23.53,0,0,0-2.35,2c-2.4,2.38-2.83,5.78-4.36,8.64-.52,1-1.21,1.81-1.72,2.77-1.32,2.48-1.07,5.4-2.06,8-.23.62-.32,1.23-.5,1.86a4,4,0,0,0-.36,1.29,4.12,4.12,0,0,0,1-1.84c.64-1.56,1.44-3,2.18-4.54.6-1.25,1.12-2.56,1.77-3.79a23.28,23.28,0,0,1,2.17-3.13c1.09-1.41,2-3.24,3.3-4.42s3.28-2,4.83-3.18c1.15-.85,2.17-1.91,3.34-2.72.33-.23,1.27-.57,1.39-1a2.3,2.3,0,0,0-1,.41" transform="translate(-251.83 -133.06)"/><path class="cls-1" d="M481.75,532.75c-.08-.4.2-.64.26-1a3.67,3.67,0,0,1,.17-1,33,33,0,0,1,2.14-4.34c.91-1.58,2.33-3.4,2.45-5.27.09-1.53-1-2.78-1-4.3a12.19,12.19,0,0,1,0-2.34,8.82,8.82,0,0,1,1.45-3.14c1.3-2,3.32-3.23,4.6-5.24,1.17-1.85,2.37-3.62,3.42-5.55,1.14-2.1,2.2-4.21,3.23-6.37s2.07-4.26,3.25-6.3a9.11,9.11,0,0,1,3.52-3.92c.49-.24.06-1.52.33-1.95.41-.64,1-1.16,1.39-1.8a29.73,29.73,0,0,1,2-2.56,35.34,35.34,0,0,0,2.85-4.21,18.93,18.93,0,0,0,1-2.43c.14-.32.3-.74.67-.8" transform="translate(-251.83 -133.06)"/><path class="cls-1" d="M503.75,481.5c-3,0-6-.28-9-.26-3.89,0-7.79-.38-11.69-.26a30.63,30.63,0,0,0-3.31.46,17.22,17.22,0,0,0-4,1.21,34.64,34.64,0,0,0-4.72,2.36,57.09,57.09,0,0,1-6,2.63c-2.07.89-4.06,1.9-6.08,2.89a14.14,14.14,0,0,1-4.75,1.44,10.13,10.13,0,0,0-3.8.86c-1.5.74-3.05,1.43-4.52,2.23-3.65,2-7.29,4-11,5.78-1,.49-2.08,1.15-3.15,1.57-.42.17-1,.25-1,.84" transform="translate(-251.83 -133.06)"/><path class="cls-1" d="M511.75,468.75l-.19.08c.37,1.27,2.34,2.39,3.3,3.09.46.34,1.94,1,1.91,1.8a12.5,12.5,0,0,0,3.46,0,27.32,27.32,0,0,1,4.13.37,32.25,32.25,0,0,1,6,1.89c2.12.77,4.36,1.23,6.47,2a16,16,0,0,0,2,.73c.58.15,1.32.22,1.69.76.06.08,0,.25,0,.34s.16.12.21.21c.2.29.35.64.55.93s.73.71,1,1.16a20.67,20.67,0,0,1,1.43,3,59.26,59.26,0,0,1,3.15,7.33,37.48,37.48,0,0,1,1.59,8.68c.06,1.21,1,2.36,1.77,3.26,1.1,1.38,2.22,2.73,3.31,4.11a48,48,0,0,1,2.65,4.26c1.16,1.8,2.36,3.59,3.55,5.38.84,1.28,1.71,2.57,2.5,3.88a7.34,7.34,0,0,0,1,1.37,17.44,17.44,0,0,1,1.43,1.87,34.21,34.21,0,0,0,2.4,3.14,10.18,10.18,0,0,0,2.16,2c.63.37,1.2.81,1.82,1.2,1.57,1,3.23,2.66,5.17,2.66a.79.79,0,0,0,0-.48" transform="translate(-251.83 -133.06)"/><path class="cls-1" d="M557.25,505.75a3.41,3.41,0,0,1,1.78,1,9.9,9.9,0,0,1,2.32,2c1.3,1.81,2.45,3.74,3.71,5.59.8,1.18,1.58,2.33,2.36,3.52a16.88,16.88,0,0,0,3.05,4,44.24,44.24,0,0,0,3.78,2.44c1.62,1.09,3.12,2.35,4.73,3.47a41.63,41.63,0,0,1,4,3.58,12.09,12.09,0,0,1,1.72,1.71" transform="translate(-251.83 -133.06)"/><path class="cls-1" d="M571.25,500.75c.6.09,1.14,1.18,1.5,1.63,1.11,1.4,2,2.93,3,4.4.72,1.06,1.58,2,2.26,3.11a12.79,12.79,0,0,0,1.88,2.5,17.48,17.48,0,0,0,4.79,3.29c1.91.9,3,2.72,4.76,3.8,1.49.91,3,1.75,4.57,2.57,1.12.59,2.06,1.28,3.23,1.77,1,.41,1.94.95,2.89,1.43a41.28,41.28,0,0,1,4,2.51c.48.33.94.68,1.41,1a4.52,4.52,0,0,0,1.66.55l.54.19a6.06,6.06,0,0,0,.74.27A2.29,2.29,0,0,0,610,529a9.16,9.16,0,0,0,1.61-2.81,4.83,4.83,0,0,0,.66-1.86,17.63,17.63,0,0,0,0-1.78,6.63,6.63,0,0,0-2.29-4.74,2.41,2.41,0,0,1-.7-.39c-.63-.55-1.28-1.08-1.95-1.57A28.74,28.74,0,0,0,604.6,514a43.61,43.61,0,0,1-4.77-2.9c-1.81-1.38-3.84-2.49-5.73-3.77a25,25,0,0,1-3.09-2.83c-1.3-1.23-2.78-2.26-4.13-3.44a26.86,26.86,0,0,1-5.12-6.4c-.73-1.22-1.64-2.35-2.25-3.64-.22-.45-.39-.68,0-1,.49,1.62,1.89,3,2.93,4.26,1.55,1.87,3,4.13,4.88,5.68a26.6,26.6,0,0,0,5,3c1.34.67,2.55,1.49,3.84,2.22,2.19,1.26,4.15,2.92,6.42,4.06s4.18,2.92,6.28,4.28a9.91,9.91,0,0,0,3.15,1.69,2.17,2.17,0,0,0,1.14-.26,8.88,8.88,0,0,0,1.65-.55c.46-.33.58-.94.92-1.39a2.57,2.57,0,0,0,.56-1.88,29.81,29.81,0,0,0,0-4.63,7.46,7.46,0,0,0-.77-2c-.4-.87-.82-1.74-1.25-2.59-.86-1.34-2.37-1.94-3.71-2.7-1.6-.9-3.33-1.6-5-2.42a10.79,10.79,0,0,1-4.23-3.55,78.13,78.13,0,0,1-4.87-6.76c-.72-1.23-1.61-2.34-2.31-3.56s-1.58-2.3-2.15-3.51a32.32,32.32,0,0,1-1.25-3,9,9,0,0,1-.22-1.4c-.07-.34-.18-.66-.25-1s-.35-.53-.46-.85a3.46,3.46,0,0,1,0-1.63,4.8,4.8,0,0,1,.67-1,6.71,6.71,0,0,0,.57-1.63,7,7,0,0,0,.42-3.7c-.24-.91-.87-2.64-1.84-3a14.44,14.44,0,0,1,1.5,1.72c1.17,1.66,2.54,4.16,2.62,6.23.06,1.85-2.33,3.35-1.7,5.35,1.39-1.45,1.91-3.35,3.23-4.84.57-.63.75-1.08,1.63-1.11a5.34,5.34,0,0,1,1.85.32c3.33,1,6.87.69,10.31.69,1.19,0,2.38,0,3.57,0a7.27,7.27,0,0,0,3.66-1.64,11.45,11.45,0,0,0,2.51-2.35c.41-.61,1.16-1.66,1-2.48a8.1,8.1,0,0,0-1.65-2.9,3.29,3.29,0,0,0-1.31-.89,7.65,7.65,0,0,1-1.09-.45c-.4-.3-.63-.92-1.07-1.26a4.26,4.26,0,0,0-1.51-.74,14,14,0,0,0-3.39-.8" transform="translate(-251.83 -133.06)"/><path class="cls-1" d="M611.5,459.25a5.25,5.25,0,0,0-3.22.74,14.35,14.35,0,0,0-1,1.05,4.77,4.77,0,0,0-1.23,1.49c1.41,1.81,3.68,1,5.59,1a10.71,10.71,0,0,0,2.86-.5c.6-.18,1.58-.47,1.51-1.26" transform="translate(-251.83 -133.06)"/><path class="cls-1" d="M615,508.25h.16c-1,0-2.39-.52-3.35-.21a4.48,4.48,0,0,0-2.27,2.47,2.29,2.29,0,0,0,.19,1.5c.35.94.38,2.09,1.29,2.64a2.58,2.58,0,0,0,1,.37c.13,0,.38-.1.5,0,.54.29,0,.86-.27,1.27" transform="translate(-251.83 -133.06)"/><path class="cls-1" d="M610.5,523.25c-1.67,0-3.7.32-4.89,1.64a2.48,2.48,0,0,0,.14,3.36" transform="translate(-251.83 -133.06)"/><path class="cls-1" d="M635,443.5c-.9.22-.69,1.89-.9,2.52s-.54.78-.27,1.29a2.57,2.57,0,0,0,1.18.91c.8.24,1.69-.2,2.51-.23a2.47,2.47,0,0,0,.72,0,6.65,6.65,0,0,0,1.13-.49,1.36,1.36,0,0,0,.64-1.23c0-.6-.51-.73-1-1.05-1.5-1-3.42-.75-4.76-1.94" transform="translate(-251.83 -133.06)"/><path class="cls-1" d="M631.5,429.5c.11.38-.12.53-.29.83a7.49,7.49,0,0,0-.79,1.9c-.06.23-.1.57-.17.78a3.82,3.82,0,0,1-.25.6,2.41,2.41,0,0,0-.26,1.52c.14.67,1.26,1.05,1.87,1.24a3.26,3.26,0,0,0,1.64.07,3.91,3.91,0,0,0,1.19-.48c.54-.51.46-2.3.32-2.92a10.77,10.77,0,0,0-1.46-2.48,7.8,7.8,0,0,0-1.55-2.06" transform="translate(-251.83 -133.06)"/><path class="cls-1" d="M599.75,409.25a3.53,3.53,0,0,0,1.16-.19,10.47,10.47,0,0,1,1.94-.06h2.52a6.46,6.46,0,0,1,1.47.26c.5.08,1.26,0,1.57.55l-.16.19" transform="translate(-251.83 -133.06)"/><path class="cls-1" d="M629,451.5c-.57.1-1.14,3-1.16,3.5.57.38,1.15.73,1.73,1.09.25.16.58.46.91.46s.7-.35,1-.5a8.71,8.71,0,0,1,.93-.34c.69-.27,1.61-.65,1.64-1.51,0-1.27-.87-1.74-1.78-2.4a6.53,6.53,0,0,0-3.73-1.55" transform="translate(-251.83 -133.06)"/><path class="cls-1" d="M650.75,458a3.21,3.21,0,0,1,1-.49c.4-.17.74-.37,1.13-.51a2.4,2.4,0,0,1,2.14,0c1.05.61.35,1.44-.47,1.77a10.08,10.08,0,0,1-4,.5h.17" transform="translate(-251.83 -133.06)"/><path class="cls-1" d="M663,460c-.17-1,1.57-1.72,2.36-1.76a5.51,5.51,0,0,1,1.67,0c.25.14.31.44.44.7-.83.82-2.5,2-3.72,1.82" transform="translate(-251.83 -133.06)"/><path class="cls-1" d="M545,420c.23-.71-1.47-1.4-2-1.27-.73.16-1,1.18-1.24,1.78a3,3,0,0,0-.45,2c.27,1.11.89,1.33,1.45.26" transform="translate(-251.83 -133.06)"/><path class="cls-1" d="M546.75,413.75a2.78,2.78,0,0,1,2.25-2c.55,0,1-.32,1.5-.25" transform="translate(-251.83 -133.06)"/><path class="cls-1" d="M534,424a1,1,0,0,1-.74.51c-.24-.73.51-1.21,1-1.58a4.36,4.36,0,0,1,1.25-.88c.68-.2,3-.29,3.25.45-.41-.42.26-2.09-.06-2.54-.77-1.07-1.57-2.1-2.29-3.2a39,39,0,0,1-2.14-3.32c-.68-1.31-1.94-3.14-1.76-4.69" transform="translate(-251.83 -133.06)"/><path class="cls-1" d="M541.25,406.25a3,3,0,0,0,.13,1.39A15.42,15.42,0,0,0,543.9,411c.69.79,1.2,1.71,1.85,2.54.33.43,1.27,1.34,1.25,1.94" transform="translate(-251.83 -133.06)"/><path class="cls-1" d="M526,414.75c-.59-.1-.74.26-.89.75-.2.67-.21.77.29,1.16a10.23,10.23,0,0,0,3.31,2.14c0,.38.24.66.28,1.05a10.44,10.44,0,0,1,.26,2.15c-.08,1-.77,1.57-1.18,2.44l.68-.69" transform="translate(-251.83 -133.06)"/><path class="cls-1" d="M538.25,402.25a22.07,22.07,0,0,1-3-1.9,8.23,8.23,0,0,1-.78-.53,5.65,5.65,0,0,1-1.15-1.14,3.69,3.69,0,0,1-.7-2.61c.28-2.63,2.48-4.76,3.54-7.09.36-.77.52-1.6.81-2.39.48-1.29,1-2.56,1.45-3.85s1-2.36,1.47-3.55,1-2.73,1.58-4.05a39.21,39.21,0,0,0,1.72-5.62c.59-2.09,1.5-4,2.12-6.11a17,17,0,0,1,1.31-2.88c.74-1.42,1.36-2.91,2.06-4.35a16.12,16.12,0,0,1,2.57-4c.23-.24,1-.77,1-1.22-.64.11-1,.93-1.75.74a14.38,14.38,0,0,1,2.19-2.08c.74-.53,1.56-.91,2.29-1.45a11.32,11.32,0,0,1,4.2-2.34c.32-.07.66-.05,1-.13a33.18,33.18,0,0,0,3.29-1.19c1.17-.39,2.39-.74,3.58-1.07a10.18,10.18,0,0,1,2.12-.22c.57-.05,1-.25,1.64-.27,1.21-.05,2.44,0,3.65,0a7,7,0,0,0,1.77,0l0-.21" transform="translate(-251.83 -133.06)"/><path class="cls-1" d="M558.75,353.25a27.43,27.43,0,0,0-2.53,8,76,76,0,0,0-1.91,9.21,15.47,15.47,0,0,1-1.8,5.17c-.78,1.72-1.75,3.38-2.47,5.13a48.08,48.08,0,0,0-2.25,7.81c-.43,1.89-.62,4.06-1.59,5.78-.68,1.2-1.38,2.29-2,3.55,0,.06-1.36,2.62-.49,2.62" transform="translate(-251.83 -133.06)"/><path class="cls-1" d="M550.5,505.75c-.43-.39-.17-1-.25-1.44-1-.34-1.92-.9-2.9-1.31a23.87,23.87,0,0,0-5.83-1.47,18.16,18.16,0,0,0-3.83,0c-1.6.15-3.23.17-4.82.42a25.34,25.34,0,0,0-9.34,4,10.84,10.84,0,0,0-3.46,4,22.76,22.76,0,0,0-1.14,2.39c-.15.37-.38.74-.51,1.12a4.72,4.72,0,0,0,.09,1.9,4.32,4.32,0,0,1-.2,1.67c-.18.54-.37,1.06-.56,1.6a17.2,17.2,0,0,0,.07,9.62,12.62,12.62,0,0,1,1.19,3.47c.07.7,0,1.46,0,2.16v-.16" transform="translate(-251.83 -133.06)"/><path class="cls-1" d="M561.25,521a23.33,23.33,0,0,0,.35,3.42,36.15,36.15,0,0,1,.15,4.77c0,1,.11,2.13,0,3.16a15.22,15.22,0,0,0-.26,1.9" transform="translate(-251.83 -133.06)"/><path class="cls-1" d="M614.5,520c0,.39,0,.8,0,1.18a2.86,2.86,0,0,0,.45,1.25c.53,1,.62,2.14,1.56,2.93a8.39,8.39,0,0,0,.9.45c.18.12.29.34.48.42a3.44,3.44,0,0,0,1.53,0,.71.71,0,0,0,.53-.77,1.88,1.88,0,0,1,.56-1.22" transform="translate(-251.83 -133.06)"/><path class="cls-1" d="M623,521a11.64,11.64,0,0,0-2.75,4,52.79,52.79,0,0,1-2.94,4.75,21.5,21.5,0,0,1-2.1,3.25c-.47.51-1,1-1.48,1.46-.23.24-.94.71-1,1a9,9,0,0,0,1.5-2" transform="translate(-251.83 -133.06)"/><path class="cls-1" d="M617.5,509.25c.63-.92,1.25-1.8,1.82-2.76a29.74,29.74,0,0,1,2-2.78c.6-.82,1.27-1.64,1.83-2.48a31.09,31.09,0,0,1,4.87-5.8c1.8-1.64,4-2.59,6-3.86.47-.3,1-.52,1.5-.86.62-.45,1.16-1,1.76-1.54a13.57,13.57,0,0,1,2.75-1.95,4.41,4.41,0,0,1,2.57-.11,60.47,60.47,0,0,1,6.53,1.34c2.67.75,5.44.83,8,1.89,1.19.49,2.32,1.16,3.46,1.76a8.2,8.2,0,0,1,2.12,1.15c.2.34,0,1.41,0,1.77a40.45,40.45,0,0,0,0,4.12c.17,1.55.37,3.1.55,4.65a39.09,39.09,0,0,0,.47,4.2c.19.82.61,1.59.75,2.42a4.17,4.17,0,0,1,0,1.41c-.31,2.15-1.34,4.15-1.9,6.23-.51,1.88-.77,3.77-1.34,5.63s-1.05,3.6-1.61,5.38a26.86,26.86,0,0,1-1.23,2.94c-.13.26-.28.76-.54.91a28.08,28.08,0,0,1,1.56-4.41" transform="translate(-251.83 -133.06)"/><path class="cls-1" d="M634.5,488.5a10.78,10.78,0,0,1-3.36-.12,10.52,10.52,0,0,1-3.64-2.63" transform="translate(-251.83 -133.06)"/><path class="cls-1" d="M631.25,491.75a7.79,7.79,0,0,1-3.92.74c-1.61-.15-2.82-1.2-4.36-1.47a9.79,9.79,0,0,0-3.89.19,6.92,6.92,0,0,0-2.57,1.29A5.54,5.54,0,0,0,615.2,494a14.72,14.72,0,0,0,2.3,0" transform="translate(-251.83 -133.06)"/><path class="cls-1" d="M631,493.5c-1,.22-2,.66-3.11.88a19.26,19.26,0,0,1-2.73.37c-1.38.11-2.75.38-4.14.45-.9.05-1.82,0-2.72.08a24.28,24.28,0,0,0-2.77.67,14.41,14.41,0,0,0-2.52.46,4,4,0,0,0-1.29,1.07,1.17,1.17,0,0,0,1.53.27" transform="translate(-251.83 -133.06)"/><path class="cls-1" d="M662.5,497a3.56,3.56,0,0,1,1.58.63,25.62,25.62,0,0,0,3.38,1.3,35.92,35.92,0,0,0,6.89,1.44,91.91,91.91,0,0,0,12.41.9,66.14,66.14,0,0,0,6.88-.52c.7-.08,1.44-.15,2.14-.28a21.69,21.69,0,0,0,3.88-1.48,21.21,21.21,0,0,1,5.18-1.13c2.62-.33,5.26-.71,7.9-.82s5.46,0,8.18,0a7.1,7.1,0,0,0,1.84,0c.27-.1.25-.32.48-.47s.65-.13,1-.37a3.9,3.9,0,0,0-.69.82c4.27.79,9.2,0,13.5,0h1.53a.3.3,0,0,0,.27-.2c.47-.09,1.07.06,1.2-.56" transform="translate(-251.83 -133.06)"/><path class="cls-1" d="M703,259.5c.68,0,1.23-.72,2-.78.41,0,.86,0,1.28,0,.78,0,1.06.4,1.46,1a32.39,32.39,0,0,1,2,2.76c.53,1.06,1.45,1.89,1.94,2.95.31.66.57,1.3.83,2,0,.06,0,.15,0,.21a1.14,1.14,0,0,0,.15.23,1.48,1.48,0,0,0,.72.3,8.05,8.05,0,0,0,2.35,0c1.34-.1,2.67-.43,4-.52a11.75,11.75,0,0,1,4.75,1.1,6.57,6.57,0,0,1,2.61,2.11,5.91,5.91,0,0,1,1.14,2.81,3.09,3.09,0,0,1-.49,1.58,12.44,12.44,0,0,0-1,5.11c0,1,0,2,0,3a8.28,8.28,0,0,1,0,2.05c-.21.64-1.94,1.28-2.45,1.56a16,16,0,0,1-2.25,1c-.5.18-.36.31-.86,0a9.34,9.34,0,0,1-2.48-3.76,10.41,10.41,0,0,1-1-3.34,15.93,15.93,0,0,1,0-3.78,9.33,9.33,0,0,1,.85-2c.16-.35.65-1,.61-1.32-1.13-.29-2.47,0-3.63-.27-.89-.18-1.48-1.08-2.36-1.26" transform="translate(-251.83 -133.06)"/><path class="cls-1" d="M794,312a2.18,2.18,0,0,1,.74-1.81c.62-.58.91-1.34,1.62-1.83a7.89,7.89,0,0,1,5-.87c1.56.16,3.11.51,4.66.82,1.31.27,2.77-.09,4,.23-.33.55-1.56.86-2.12,1.14-1.09.55-2.21,1-3.3,1.57-.72.36-1.34.9-2.06,1.23a10.68,10.68,0,0,1-3,.79,15.7,15.7,0,0,1-3.56,0,18.35,18.35,0,0,0-2.91-.77h.17" transform="translate(-251.83 -133.06)"/><path class="cls-1" d="M775,314.5c-1-1.14-2.15-2.33-3.8-2-1.25.23-2.64,1.32-3.9,1.23a.34.34,0,0,1,.11-.17.73.73,0,0,1-.22.94c-.37.14-.79-.42-.76-.73.08-.75,1.32-.68,1.29.06,0,1.06-2.64.73-.72-.68a2.23,2.23,0,0,1,1.43-.65c.45,0,1,.28.87.82-.3,1.08-2.21.41-2.83.06s-1.11-1-1.75-1.37a3.27,3.27,0,0,0-1.21-.44,4.11,4.11,0,0,0-1,0c-1.19.14-1.54,1.23-2.11,2.13-.16.24-.72.7-.59,1,.22.44,2.29.09,2.71.13a31.76,31.76,0,0,1,3.35.6c1.31.29,2.59.74,3.9,1a2.73,2.73,0,0,0,1.65,0c.57-.2,3-1.2,2.88-1.88" transform="translate(-251.83 -133.06)"/><path class="cls-1" d="M798,309.25c-.74-.05-.88,1.23-.74,1.72a3.37,3.37,0,0,0,2,1.77c.44.08.61-.19,1-.24" transform="translate(-251.83 -133.06)"/><path class="cls-1" d="M804.5,308.5c0,.41.44.6.52,1a3.25,3.25,0,0,1,0,.88,2.56,2.56,0,0,1-2.23,1.59.75.75,0,0,1,0-.47" transform="translate(-251.83 -133.06)"/><path class="cls-1" d="M800.5,309.25a2,2,0,0,1-.25.66c-.37-.64-1.08.43-1,.86s.21.53.54.48c.56-.1.34-1,.25-1.25" transform="translate(-251.83 -133.06)"/><path class="cls-1" d="M779.25,313.5c0,2.9.77,6.13.07,9a20.37,20.37,0,0,1-.57,2,5.48,5.48,0,0,1-1.24,2c-.58.71-1.07,1.48-1.66,2.19a3.89,3.89,0,0,0-.41.5,3.5,3.5,0,0,0-.39,2.47,7.12,7.12,0,0,0,.69,1.31c.38.71.85.84,1.45,1.32.41.33,1.48.77,2,.39.38-.28.08-1.17.33-1.42s1.46,0,1.7.19c.63.43,1.11,1.2,1.75,1.6,2.21,1.36,3.12-.93,4.75-1.89a3.53,3.53,0,0,1,2.12-.44,13.08,13.08,0,0,1,1.4,0c.56.07,1.19.6,1.75.54,1.15-.12,1.55-1.61,1.8-2.55.51-1.88-.22-3.7-.82-5.52a4,4,0,0,1-.24,1" transform="translate(-251.83 -133.06)"/><path class="cls-1" d="M802.75,342.5c.06.52-1.36,1.29-1.75,1.74-.76.86-1.44,1.73-2.27,2.54a18.38,18.38,0,0,1-5.26,3.69,13.56,13.56,0,0,1-3.52.75,7.56,7.56,0,0,1-3.14.1,14.58,14.58,0,0,1-4.1-2.09c-2-1.24-3.92-2.49-5.83-3.77a2.91,2.91,0,0,1-1.39-1.73.75.75,0,0,1,.3-.74,4.12,4.12,0,0,1,1.35-.44c1-.31,2-.67,3.08-.93a17.35,17.35,0,0,0,4-1.19,2.28,2.28,0,0,1,1.83-.41c.35.08.46.26.9.23a3.15,3.15,0,0,0,1.13-.38c.29-.12.5-.23.77-.37a3.35,3.35,0,0,1,1.17-.24c.34-.06.55-.28.9-.28a5.21,5.21,0,0,1,1.92.65,7.14,7.14,0,0,0,2.61.63,10.65,10.65,0,0,1,1.69.18,16.47,16.47,0,0,0,2.81.06" transform="translate(-251.83 -133.06)"/><path class="cls-1" d="M798,343c.19,0,.27,0,.24.19a9.57,9.57,0,0,1-2.73.07c-.53,0-1-.23-1.51-.27-.36,0-.73,0-1.1,0-1.59,0-3.11.53-4.69.51-1.18,0-2.23.16-3.38.25a19.69,19.69,0,0,1-3.83-.26c.84.12,1.14,1.47,2,1.69s1.37.28,2.06.43a16.55,16.55,0,0,0,3.72.38,14.89,14.89,0,0,0,4-.5,6.85,6.85,0,0,0,2.33-.75c.27-.2.91-.9.9-1.25" transform="translate(-251.83 -133.06)"/><path class="cls-1" d="M797,329.75c.75,1,1.53,2,2.24,3.05.45.65,1.11,1.21,1.52,1.85a2.54,2.54,0,0,1,.24.72c.1.31.22.58.35.9s0,.8.14,1.13.2.38.76.6" transform="translate(-251.83 -133.06)"/><path class="cls-1" d="M922.75,533.5a16.29,16.29,0,0,0-1-2.79c-.36-1.08-.92-1.92-1.32-3-.28-.74-.69-1.4-1-2.13s-.67-1.74-1.12-2.56c-.53-1-.8-2-1.33-3a60.56,60.56,0,0,0-4.66-7.3,34.65,34.65,0,0,1-2.07-3.79c-.72-1.28-1.47-2.55-2.18-3.84-1.41-2.56-3.09-4.88-4.61-7.35-1.37-2.24-3.25-4.1-4.71-6.27a24.63,24.63,0,0,1-1.89-3c-.66-1.38.41-3,.62-4.34.32-2,.79-3.93,1-5.9a56.41,56.41,0,0,0,.24-7c0-1.54,0-3.08,0-4.61s-.24-2.9-.27-4.36a70.73,70.73,0,0,0-1.12-9.5c-.54-3.44-.51-6.95-1.15-10.37-.37-2-.45-3.91-.71-5.88-.18-1.3-.43-2.59-.59-3.9-.26-2.27-.2-4.58-.47-6.85-.44-3.74-.79-7.55-1.44-11.26-.27-1.51-.54-3-.77-4.52-.31-2-.37-4-.72-5.9-.43-2.41-.9-4.81-1.33-7.21a44.51,44.51,0,0,0-1.18-5.62,61.49,61.49,0,0,0-4.21-10.18c-1-1.88-1.74-4-3.18-5.61-.92-1-1.67-2.21-2.62-3.19-1.42-1.47-3.16-2.7-4.68-4.06-.7-.64-1.52-1.12-2.16-1.83-.21-.23-.4-.49-.61-.73a20.32,20.32,0,0,0-3.48-3.2,14.44,14.44,0,0,0-1.26-1,5.31,5.31,0,0,0-1.77-.75,4.94,4.94,0,0,0-3.2.81,12.87,12.87,0,0,0-3.7,2.42,9.62,9.62,0,0,0-2,4.47c-.17,1.18-.19,2.37-.35,3.56-.91,6.4-2.06,12.8-2.06,19.31a17.62,17.62,0,0,0,.23,4.11c.36,1.52.59,3.1,1.06,4.58.3.78.6,1.56.91,2.33s.39,1.44.61,2.15a13.26,13.26,0,0,1,1.15,2.82,55.13,55.13,0,0,1,.54,8.42c0,1.82-.11,3.69,0,5.51.43,6.09,3.23,11.89,2.67,18.07-.18,2-.57,4.55,0,6.56a24.9,24.9,0,0,1,.83,3.16c.27,1.61.4,3.24.68,4.85.71,4.18,2.11,8.23,3.06,12.33a.31.31,0,0,1,.21.27,1.91,1.91,0,0,0,0,.75c.17.92.21,1.85.37,2.78a44.45,44.45,0,0,1,.87,6.06c-.61-1.09-1.22-2.2-1.8-3.31" transform="translate(-251.83 -133.06)"/><path class="cls-1" d="M866.5,477.5c-1.11,1.52-2.11,3.07-3.32,4.52-1.42,1.69-2.88,3.32-4.22,5.08-2.41,3.18-5,6.24-7.22,9.52s-4.27,6.73-6.19,10.21c-.5,1-1,2-1.61,3-.56.82-1.12,1.64-1.7,2.44-1,1.66-1.88,3.43-3,5.08-2.79,4.22-5.36,8.52-8.49,12.5-.81,1-1.56,2.21-2.29,3.29-.35.51-.43,1.12-.77,1.62a24.68,24.68,0,0,0,.28-4.53" transform="translate(-251.83 -133.06)"/><path class="cls-1" d="M754,467.5a48.74,48.74,0,0,0,.11,5.27c.42,4,.51,8.08,1.14,12.08.33,2.11.76,4.19,1.11,6.28.21,1.24.27,2.5.46,3.74.14.92,0,1.88.22,2.79.28,1.58.82,3.06,1,4.69a44.74,44.74,0,0,0,2.3,10c1.35,4.12,2.3,8.31,4.31,12.15a59.86,59.86,0,0,0,3.72,5.74c.55.81,1.21,1.51,1.8,2.28a7,7,0,0,0,1.11,1.46c-.48-.34-1-.66-1.49-1" transform="translate(-251.83 -133.06)"/><path class="cls-1" d="M734.5,497.5c0,.52.72,1.13,1,1.59a5.78,5.78,0,0,1,.55,2.71c0,1.62.38,3.84-.36,5.34a5.11,5.11,0,0,0-.6,1,7,7,0,0,0-.09,1.12,10.32,10.32,0,0,1-.87,3.23,9.19,9.19,0,0,0-1,2.54c-.11.73,0,1.46-.08,2.2-.14,1.09-.4,2.16-.53,3.25a41.07,41.07,0,0,0-.18,5.32c0,1.4-.21,2.45-2,2.16" transform="translate(-251.83 -133.06)"/><path class="cls-1" d="M728,526c.8-.71.92-2.09,1-3.12s0-1.89,0-2.8a7.17,7.17,0,0,1,.11-2.12,7.84,7.84,0,0,0,.4-2.78c0-1.61-.16-3,.73-4.41A9.58,9.58,0,0,0,732,507c.07-.47,0-.92,0-1.38s.21-.9.25-1.37c.12-1.39-.46-2.77-.5-4.17,0-.78,0-1.57,0-2.35" transform="translate(-251.83 -133.06)"/><path class="cls-1" d="M735.25,519.75c0,.38.47.7.67,1,.28.57.57,1.14.87,1.7l.42.77c0,.67-.73.76-.71,1.4s.76,1.33,1,1.78a37,37,0,0,0,2.36,4,30.23,30.23,0,0,0,2.4,3.3" transform="translate(-251.83 -133.06)"/><path class="cls-1" d="M757.75,484.5c.09.3.33.35.63.54.91.56,1.8,1.2,2.7,1.8,2.18,1.47,4.27,3.06,6.46,4.52a62.72,62.72,0,0,0,8.34,4.12,12.22,12.22,0,0,0,4.91,1.29c1.3,0,2.55-.25,3.85-.28,1.87-.06,3.72-.09,5.6-.28,2.47-.24,4.88-1,7.37-1,1.86,0,3.72,0,5.57,0,3,0,6.06.12,9.07,0,1.65-.06,3.28-.74,4.88-.76a13.26,13.26,0,0,0,3.81-.56,13.35,13.35,0,0,1,2.64-.7A22.9,22.9,0,0,0,826,493c-.23-.5-.77-.85-1.09-1.28a6.69,6.69,0,0,1-.74-1.58,10.1,10.1,0,0,1-.58-1.36,12.48,12.48,0,0,0-.33-2.05c-.7-1.88-2.47-5,.2-5.84a27,27,0,0,1,7.15-1.44,7.73,7.73,0,0,0,1.73-.21c1.89-.52,3.54-1.68,5.43-2.21a20.78,20.78,0,0,1,5.72-.51c1.45,0,2.89,0,4.33,0a13.32,13.32,0,0,0,5.84-1.82c2-1,4-2.12,6-3.28.81-.47,1.6-1.14,2.41-1.56.54-.27,2.38-.76,2.5-1.36,0,.81-.79,3.13-.77,3.94,0,1.48.43,2.91.51,4.38a8.27,8.27,0,0,1-.23,2.67,7.67,7.67,0,0,1-.45,1.43c-.25.45-.65.63-1,1a8.76,8.76,0,0,1-2,1.79,22.22,22.22,0,0,1-5.79,2.27c-2.09.55-4.22.87-6.33,1.36-1.42.32-2.82.8-4.25,1.07-1.24.24-2.41.63-3.67.86-1.79.33-3.58.58-5.4.77-1.55.16-3.11,0-4.65.21-.93.11-1.84.36-2.76.53a6.37,6.37,0,0,0-2.9,1.31c-.65.49-.78,1.08-1.32,1.62" transform="translate(-251.83 -133.06)"/><path class="cls-1" d="M820.75,480.75c-2.69-.6-5.73-.22-8.49-.26-1.36,0-2.75.19-4.11.29a46.65,46.65,0,0,0-6.14.65c-4.23.89-8.58.89-12.88,1.07-2.85.12-5.65.48-8.5.5-1.52,0-3-.26-4.52-.26a10.91,10.91,0,0,1-3.33-.71c-3.89-1.19-8.15-2.46-11.59-4.75a24.42,24.42,0,0,1-3.69-2.78c0,.59,0,1.18,0,1.77,0,1,.49,1.8.53,2.76a14.69,14.69,0,0,0,0,2,13,13,0,0,1,.12,3.23,9.08,9.08,0,0,0,2.07-.25" transform="translate(-251.83 -133.06)"/><path class="cls-1" d="M814,496a31.39,31.39,0,0,1-1.23,7.36,76.66,76.66,0,0,1-3.95,10.8c-.72,1.75-1.41,3.56-2,5.36-.83,2.56-1.94,5-2.59,7.62-.52,2.09-1.22,4.11-1.73,6.19-.19.76-.78,1.39-.85,2.19a21.7,21.7,0,0,0,4.6-3.52" transform="translate(-251.83 -133.06)"/><path class="cls-1" d="M826.25,495a82,82,0,0,1-.93,11.39c-.25,1.92-.68,3.76-1.08,5.64s-.58,3.71-1,5.55a47.63,47.63,0,0,1-3.85,9.8c-.59,1.23-1.23,2.46-1.74,3.73a4.79,4.79,0,0,1-.65,1.52,19.58,19.58,0,0,0,3.5-3.13" transform="translate(-251.83 -133.06)"/><path class="cls-1" d="M833.75,490.75a13.62,13.62,0,0,0,.54,3.33c.58,2.66,1.13,5.28,1.53,8a75.88,75.88,0,0,1,.68,11.27,25.6,25.6,0,0,1-.3,4.71,13.39,13.39,0,0,1-.5,2.17c-.18.43-.51.73-.45,1.24,0-.4,0-.8,0-1.2" transform="translate(-251.83 -133.06)"/><path class="cls-1" d="M827,493.75a22.9,22.9,0,0,0,.35,3.07,57.24,57.24,0,0,1,.15,8c0,2.88,0,5.72-.25,8.6-.16,2.09-.25,4.14-.25,6.23v4.84c0,1.75-.1,3.41-.26,5.15a10,10,0,0,1-.25,1.14c-.14.81-.15,1.68-.29,2.5H826" transform="translate(-251.83 -133.06)"/><path class="cls-1" d="M800,497.75a2.5,2.5,0,0,1-.14,1.05,8.72,8.72,0,0,0,.13,2.79,61.54,61.54,0,0,1,.26,7.92v4.7c0,1.94-.13,3.81-.23,5.74-.14,2.84,0,5.61-.33,8.43a14.46,14.46,0,0,1-1.12,3.91c-.29.72-.56,1.45-.78,2.19,0,.15-.24,1.34-.47,1.53a5.87,5.87,0,0,1,.68-1.51" transform="translate(-251.83 -133.06)"/><path class="cls-1" d="M776,497.25a18.56,18.56,0,0,0-2.81,5.22,65.24,65.24,0,0,0-2.69,9.61,37.68,37.68,0,0,0-1,6.34c0,1.19,0,2.32-.2,3.51a44.49,44.49,0,0,0-.06,5.54c0,.42-.23,1.85.18,2.08.45-.69.51-2.85.57-3.3" transform="translate(-251.83 -133.06)"/><path class="cls-1" d="M761.25,492.75a14.48,14.48,0,0,0,.4,3.71,32,32,0,0,1,1.1,5.49c.08,1.21,0,2.41.12,3.62a42.19,42.19,0,0,1,.38,5.15c0,1.31.45,2.76.2,4a14.87,14.87,0,0,0-.19,2.21,7.3,7.3,0,0,1-.46,1.53c-.11.44-.16.85-.29,1.28a7.25,7.25,0,0,0-.57,2c.61-.4,1.22-.81,1.81-1.24" transform="translate(-251.83 -133.06)"/><path class="cls-1" d="M779.33,359.67c-1.45,1.47-2,3.7-3.55,5.17-.8.77-2,.94-2.78,1.69a31.14,31.14,0,0,1-2.41,2.14c-.88.68-1.4,1-1.63,2.13a34.39,34.39,0,0,1-2,7.44c-.82,1.82-2.17,3.49-2.75,5.43-1,3.14-2.08,6.25-3,9.43a19.82,19.82,0,0,0-.84,4.51c-.05.85.13,1.82,0,2.65a5.24,5.24,0,0,0-.29,1.36c.07,1.07.28,2.09.28,3.2,0,2.25-.29,4.42-.32,6.65a25,25,0,0,1-.86,4.43c-.22,1.21-.27,2.42-.57,3.62s-.69,2.25-.87,3.44c-.2,1.35-.49,2.7-.66,4.06s0,2.81-.09,4.21a129.16,129.16,0,0,1-2.41,16.15,42.45,42.45,0,0,1-2.4,8c-.79,2-1.4,4-2.2,6-.65,1.59-1.53,3.08-2.29,4.61a29.25,29.25,0,0,0-2.15,6c-.92,3.66-2.4,7.19-3.22,10.86-.36,1.62-.44,3.29-.72,4.92-.13.83-.44,1.64-.56,2.45a6.91,6.91,0,0,1-.2,1.69c-.34.93-.76,1.89-1.16,2.78a3.56,3.56,0,0,1-1,1.47c-.34.26-.68.34-1,.69a14.84,14.84,0,0,0,1.62-1.45" transform="translate(-251.83 -133.06)"/><path class="cls-1" d="M777,358.67c-.07.35-.43.59-.63.87a4,4,0,0,1-.73.95,7.92,7.92,0,0,1-2.11,1.49,17.91,17.91,0,0,0-2.86,1.69" transform="translate(-251.83 -133.06)"/><path class="cls-1" d="M768.33,362h-10" transform="translate(-251.83 -133.06)"/><path class="cls-1" d="M770,365c.27-1,3.19-.26,4-1.26a8.32,8.32,0,0,0-.31,2.43c-.1,1.79-.32,3.58-.35,5.37-.05,2.2-.22,4.65.48,6.78a11.38,11.38,0,0,0,3.68,5.68,20.06,20.06,0,0,0,3.52,1.86,27.78,27.78,0,0,0,4.07,1.79,17.35,17.35,0,0,0,8.26,0c3.75-1,6.6-3.79,10.32-4.78a53.58,53.58,0,0,0,7.51-2.56c3.3-1.42,6.82-2.23,9.55-4.71,4.62-4.18,8.09-9.3,11.53-14.44,1.78-2.67,3.71-5.22,5.47-7.9a6.85,6.85,0,0,1,1.13-1.61c.34-.28.8-.41,1.16-.68,3.18-2.48-1.75-6-3.8-7.3-4.27-2.75-8.89-5.06-12.53-8.68" transform="translate(-251.83 -133.06)"/><path class="cls-1" d="M825,316.33a85.67,85.67,0,0,1-3.07,22.29,24.24,24.24,0,0,1-2.89,6.05c-1.72,2.68-4.07,4.34-6.68,6.06-2.37,1.56-4.61,3.27-7.05,4.75a27.91,27.91,0,0,0-2.9,2.08,23.63,23.63,0,0,0-3.48,4.1c-.33.41-.74,1.08-1.26,1.3-.33,0-.66.08-1,.1a11.67,11.67,0,0,0-1.31.55,14.67,14.67,0,0,1-2.89.06,24.07,24.07,0,0,1-6.78-1,20.21,20.21,0,0,1-4.56-1.7,21.27,21.27,0,0,1-1.76-1.28c-2.77-2-4.68-4.66-7.13-7a32.2,32.2,0,0,0-7.11-5.21c-2.39-1.26-4.78-2.86-6.08-5.33a55.42,55.42,0,0,1-3.48-7.55,35.6,35.6,0,0,1-2.26-8.44c-.11-1.21-.51-2.37-.66-3.53" transform="translate(-251.83 -133.06)"/><path class="cls-1" d="M842.67,348.33a4.3,4.3,0,0,0,2.07,1.18A44.18,44.18,0,0,1,849,351.4c3,1.52,6.25,2.56,9.34,4,2.33,1,4.91,1.53,7,3a34.55,34.55,0,0,1,4,3.23,11.86,11.86,0,0,1,2.17,3c.4.72,1.34,1.9,1.17,2.79" transform="translate(-251.83 -133.06)"/><path class="cls-1" d="M896,488.67c0,.43-.38.66-.62,1a15.36,15.36,0,0,0-1.6,3.19,86.89,86.89,0,0,1-5.26,10.64,66,66,0,0,1-6.17,7.61c-2.29,2.68-5,5.06-7.49,7.56a63.47,63.47,0,0,0-5.5,5.87c-1.23,1.59-2.64,3-4,4.46a30.47,30.47,0,0,0-2.37,2.84c-.25.33-.59,1.14-1,1.18" transform="translate(-251.83 -133.06)"/><path class="cls-1" d="M761.67,423.33a77.38,77.38,0,0,1,1.41,10.26,20.56,20.56,0,0,1,0,5c-.27,2.17-.17,4.43-.58,6.58a12.82,12.82,0,0,0-.56,2.74,17.19,17.19,0,0,0,.29,2.38,30.09,30.09,0,0,1,.43,4.82,30.55,30.55,0,0,1-1.6,9.35,35.16,35.16,0,0,1-1.43,3.79,17.68,17.68,0,0,0-.55,2.14,37.31,37.31,0,0,0-.68,4c-.11.55,0,1-.07,1.58s-.29,1.08-.36,1.69c-.33,3.06.25,6.42.6,9.45s1.27,6.48.68,9.52a13.3,13.3,0,0,1-.32,1.67c-.16.46-.51.69-.62,1.25a23,23,0,0,0-.33,5.12c0,2.82,1.73,5.1,2.94,7.55.84,1.71,1.51,3.56,2.41,5.26a12.35,12.35,0,0,1,1.38,4.1l.28.06" transform="translate(-251.83 -133.06)"/><path class="cls-1" d="M584.67,313.67a2.53,2.53,0,0,0,.48,1.68c.49.49,1.15.27,1.77.39.34.07.21.48.68.21-.09.05.39-.68.39-.67a5.15,5.15,0,0,0,.61-1.3c.07-.34,0-.78.28-1-.73.17-.71-.25-1.2-.49a3.76,3.76,0,0,0-1.68-.16c-.65,0-1.29-.07-1.62.66s.32,1.17.77,1.68c.83.95,2.77,1.15,3.28-.25.59-1.6-.9-1.8-2.1-1.76a1.74,1.74,0,0,0-1.64,1.7c-.1.92.67,1.25,1.48,1.32a1.71,1.71,0,0,0,1.76-.9,2,2,0,0,0-.26-2.55c-.91-1-3.47-.8-3,1.13.15.68.74.76,1.37.65s.65-.32,1-.95c-.34-.18-.57-.1-.63.27" transform="translate(-251.83 -133.06)"/><path class="cls-1" d="M610.33,316.67c1.09,0,2.37-.72,3.31-1a9.31,9.31,0,0,1,1.67-.33c.44-.06,1,.12,1.39,0,.25-.05.28-.27.52-.32,1.68-.35,3.18.69,4.64,1.3a14.21,14.21,0,0,1,2.65,1.48,5.29,5.29,0,0,0,2,.87c-.68-.13-1,.13-1.57.32s-1.21.23-1.82.4a37.43,37.43,0,0,1-4.28.9,8.4,8.4,0,0,1-2.92-.23c-.25,0-1.63-.06-1.36-.37-.93-.36-1.68-1.39-2.62-1.62-.76-.19-1.44,0-2.16-.43l.56,0" transform="translate(-251.83 -133.06)"/><path class="cls-1" d="M763.67,312.33c.17.6-.38.54-.38,1,0,.24.55.91.71,1.14a3.58,3.58,0,0,0,3,1.21,1.47,1.47,0,0,0,1.34-1.34c.17-1.2-1-1.61-1.85-2.18-.7-.45-1.21-.78-1.9-.18-1.13,1-.15,2.11,1.09,2.4a2,2,0,0,0,2-.57,1.35,1.35,0,0,0-.34-2.14c-2-1.23-3.71,1.94-2,3.35,2,1.61,2.29-.28,2.29-1.95,0-1.26.06-1.75-1.34-1.74-1.13,0-2,.13-2.32,1.5-.23,1-.2,3,1,3.45,2.41.94,5-2.1,3.19-4.12-.52-.6-1.95-1.85-2.85-1.47-.63.27-.74,1.45-.85,2a2.51,2.51,0,0,0,.78,2.65,3.82,3.82,0,0,0,2.76.27c.46-.3.45-1.45.34-1.9-.21-.84-.56-.74-1.36-.73" transform="translate(-251.83 -133.06)"/><path class="cls-1" d="M799.67,309c-.52,1-.67,2.83.83,3a.93.93,0,0,0,1.18-.87c.28-1.38-.62-1.69-1.62-2.33a3.1,3.1,0,0,0-2.48-.78c-1.63.45-1.32,2-.53,3s1.43,1.58,2.62,1.35c.92-.18,1.24-.7,1.34-1.61.24-2-3.08-2.53-3.37-.48a1.81,1.81,0,0,0,1.64,2.13c1.15.05,1.52-1.29,1.08-2.14-1.6-3.13-3.63,2.55-1.36,2.12.79-.15,1.55-1.52.52-1.74-1.37-.28-1.66,2-.52,1.7" transform="translate(-251.83 -133.06)"/><path class="cls-1" d="M517.67,422c-1.29-1.34-3-2.21-2.69-4.36.08-.52.3-.79.36-1.3a12.38,12.38,0,0,1,0-1.36c.09-.39.3-.52.35-1s-.06-.91,0-1.35A9.07,9.07,0,0,1,517,410a5.39,5.39,0,0,1,2.85-2.66c.63-.28,1.31-.55,1.95-.86,1.16-.54,2.55-.6,3.61-1.32a7,7,0,0,0,1.74-2.32,5.57,5.57,0,0,1,6.87-2.53c.84.22,3,1.95,3.85,2,.62,0,1.11.27,1.73.35.87.11,1.33-.28,2.11-.38a5.68,5.68,0,0,1,2.85.67c1,.59,1.57,1.8,2.23,2.72a11.4,11.4,0,0,1,1.72,3,19.3,19.3,0,0,1,.44,2.41c.05.28,0,.66.05.92.12.44.43.74.57,1.18l-.22.14" transform="translate(-251.83 -133.06)"/></g></svg>